<svg width="30" height="20" viewBox="0 0 30 20" fill="none" xmlns="http://www.w3.org/2000/svg">
<rect width="30" height="20" rx="2" fill="white"/>
<mask id="mask0_278_7664" style="mask-type:alpha" maskUnits="userSpaceOnUse" x="0" y="0" width="30" height="20">
<rect width="30" height="20" rx="2" fill="white"/>
</mask>
<g mask="url(#mask0_278_7664)">
<rect width="30" height="20" fill="#F1361D"/>
<path fill-rule="evenodd" clip-rule="evenodd" d="M10.792 3.10076L11.8296 3.26586L12.6078 3.92736L12.7847 2.95891L13.4935 2.23258L12.4559 2.06747L11.6776 1.40598L11.5007 2.37442L10.792 3.10076ZM13.5714 6.48803L14.4705 5.97728L15.5228 6L14.9756 5.16079L14.9999 4.17863L14.1008 4.68938L13.0485 4.66667L13.5957 5.50588L13.5714 6.48803ZM12.3516 11.9709L11.4721 12.5106L11.4597 11.5282L10.8814 10.7074L11.9339 10.6958L12.8134 10.1561L12.8258 11.1384L13.4041 11.9593L12.3516 11.9709ZM13.1154 9.43143L14.1616 9.3232L15.105 9.75887L14.989 8.78243L15.4558 7.9019L14.4096 8.01013L13.4662 7.57446L13.5822 8.5509L13.1154 9.43143Z" fill="#FFDC42"/>
<path fill-rule="evenodd" clip-rule="evenodd" d="M7.14314 8.22667L4.62406 9.90273L5.55351 7.14873L3.06718 5.4306L6.1607 5.4046L7.14314 2.66666L8.12558 5.4046L11.2191 5.4306L8.73276 7.14873L9.66222 9.90273L7.14314 8.22667Z" fill="#FFDC42"/>
</g>
</svg>
