<svg
                                width="102"
                                height="102"
                                viewBox="0 0 102 102"
                                fill="none"
                                xmlns="http://www.w3.org/2000/svg"
                            >
                                <path
                                    d="M51 0C22.8137 0 0 22.8098 0 51C0 79.1863 22.8098 102 51 102C79.1863 102 102 79.1902 102 51C102 22.8137 79.1902 0 51 0ZM51 94.0312C27.2175 94.0312 7.96875 74.7856 7.96875 51C7.96875 27.2175 27.2144 7.96875 51 7.96875C74.7825 7.96875 94.0312 27.2144 94.0312 51C94.0312 74.7825 74.7856 94.0312 51 94.0312ZM15.6636 39.8367C20.4012 24.8704 34.422 13.9453 51 13.9453C67.5375 13.9453 81.5863 24.8315 86.3364 39.8367C87.0002 41.9348 85.8384 44.1736 83.7404 44.8374C81.6369 45.5036 79.4019 44.334 78.7389 42.2414C75.0292 30.5209 64.0333 21.9141 51 21.9141C37.9862 21.9141 26.977 30.5015 23.2611 42.2414C22.5965 44.3394 20.3577 45.5013 18.2596 44.8374C16.1616 44.1736 14.9998 41.9348 15.6636 39.8367ZM51.3844 67.8106C52.1533 67.8106 52.9221 67.2846 52.9221 66.718V65.5445C57.6552 64.7757 60.8917 61.7415 60.8917 56.7244C60.8917 51.2623 56.6038 49.3603 52.9221 47.9845V42.078C55.5517 42.2803 56.3205 43.5752 57.6552 43.5752C59.4357 43.5752 60.1633 41.3496 60.1633 40.257C60.1633 37.4656 55.4303 36.8181 52.9221 36.7372V35.7255C52.9221 35.159 52.1533 34.6337 51.3844 34.6337C50.4942 34.6337 49.8475 35.159 49.8475 35.7255V36.8586C45.5588 37.4656 41.7558 39.934 41.7558 45.0725C41.7558 50.2514 46.1254 51.9906 49.8475 53.407V59.9617C46.853 59.4357 45.4779 57.0482 43.7783 57.0482C42.2414 57.0482 41.0274 59.0715 41.0274 60.4473C41.0274 63.0364 44.9923 65.5453 49.8475 65.7072V66.718C49.8475 67.2846 50.4942 67.8106 51.3844 67.8106ZM52.5175 54.4988C53.9735 55.1867 54.9852 56.0365 54.9852 57.3719C54.9852 58.8287 53.8926 59.5968 52.5175 59.9205V54.4988ZM47.6623 44.4647C47.6623 43.4935 48.4312 42.5628 50.2514 42.1986V47.0133C48.7144 46.3666 47.6623 45.6382 47.6623 44.4647ZM86.3364 62.1633C81.5988 77.1296 67.578 88.0547 51 88.0547C34.4625 88.0547 20.4137 77.1685 15.6636 62.1633C14.9998 60.0652 16.1616 57.8264 18.2596 57.1626C20.3577 56.498 22.5965 57.6606 23.2611 59.7586C26.9708 71.4791 37.9667 80.0859 51 80.0859C64.0138 80.0859 75.023 71.4985 78.7389 59.7586C79.4035 57.6606 81.6416 56.498 83.7404 57.1626C85.8384 57.8264 87.0002 60.0652 86.3364 62.1633Z"
                                    fill="url(#paint0_linear_85_1303)"
                                />
                                <defs>
                                    <linearGradient
                                        id="paint0_linear_85_1303"
                                        x1="0"
                                        y1="51"
                                        x2="102"
                                        y2="51"
                                        gradientUnits="userSpaceOnUse"
                                    >
                                        <stop stop-color="#0EEDFF" />
                                        <stop offset="1" stop-color="#AB74F9" />
                                    </linearGradient>
                                </defs>
                            </svg>