<svg
                                        width="40"
                                        height="40"
                                        viewBox="0 0 40 40"
                                        fill="none"
                                        xmlns="http://www.w3.org/2000/svg"
                                    >
                                        <path
                                            fill-rule="evenodd"
                                            clip-rule="evenodd"
                                            d="M20.1995 7.79634C17.9053 8.39797 16.8419 10.3203 16.8376 13.8756C16.8352 15.4276 16.7407 15.5874 15.7521 15.7049C14.7419 15.8248 14.6612 15.9768 14.5501 17.9675C14.4312 20.0988 14.4323 20.1016 15.623 20.1016H16.8148L16.9235 26.3008L17.0322 32.5H19.3953H21.7584L21.8671 26.3008L21.9758 20.1016H23.4949C25.1558 20.1016 25.4839 19.5846 25.4945 16.9512C25.5 15.6557 25.4657 15.6301 23.7277 15.6301H21.9553V13.8008V11.9715H23.7277H25.5V9.73577V7.5L23.2353 7.54715C21.9896 7.57317 20.6237 7.68537 20.1995 7.79634Z"
                                            fill="white"
                                        />
                                        <rect
                                            x="0.5"
                                            y="0.5"
                                            width="39"
                                            height="39"
                                            rx="15.5"
                                            stroke="url(#paint0_linear_49_16)"
                                            stroke-opacity="0.4"
                                        />
                                        <defs>
                                            <linearGradient
                                                id="paint0_linear_49_16"
                                                x1="52.8155"
                                                y1="-5.24272"
                                                x2="-6.60194"
                                                y2="40"
                                                gradientUnits="userSpaceOnUse"
                                            >
                                                <stop stop-color="#0EEDFF" />
                                                <stop offset="1" stop-color="#AB74F9" />
                                            </linearGradient>
                                        </defs>
                                    </svg>