<svg
                                width="103"
                                height="108"
                                viewBox="0 0 103 108"
                                fill="none"
                                xmlns="http://www.w3.org/2000/svg"
                            >
                                <path
                                    fill-rule="evenodd"
                                    clip-rule="evenodd"
                                    d="M12.926 0.263141C9.66025 0.930408 5.06464 3.83899 3.02267 6.53099C1.4924 8.54837 -0.0178816 13.2781 0.000160046 15.9958C0.0260269 19.8582 2.86095 26.8212 7.6022 34.6663C11.3342 40.8418 11.1675 40.4822 10.7886 41.5378C10.6073 42.0424 9.97434 43.5264 9.3818 44.8354C6.43536 51.3439 5.292 57.0185 5.48351 64.1829C5.67349 71.2957 7.01552 76.5984 10.4167 83.6728C14.3656 91.8866 23.4275 100.528 31.658 103.928C39.3474 107.104 43.6589 108.019 50.8569 108C57.4103 107.982 61.456 107.169 68.0522 104.543C72.0988 102.932 72.9346 102.495 75.9427 100.416C81.3352 96.6895 85.26 92.6491 88.9499 87.0265C93.1877 80.5693 95.8522 71.3396 95.8522 63.1182C95.8522 58.5923 94.9462 52.9164 93.6659 49.4198L93.047 47.7298L94.864 44.6598C95.8635 42.9715 96.9288 41.1971 97.2316 40.7167C99.3466 37.3612 102.188 30.5147 102.821 27.2485C103.481 23.8477 102.259 18.6394 100.094 15.6196C98.165 12.9284 93.867 10.1473 90.4378 9.37099C88.4862 8.92917 85.0922 8.92917 83.2587 9.37099C81.3061 9.84136 78.2294 11.3613 76.3977 12.7601C74.1512 14.4755 72.1986 17.5502 71.226 20.9034L70.7268 22.6246L67.5029 21.3307C62.415 19.2889 57.9611 18.2956 52.5958 18.0056C46.2932 17.6653 38.7894 19.0784 32.6853 21.7552C31.8629 22.1159 31.1669 22.3877 31.1385 22.3593C31.11 22.331 31.2841 21.7903 31.5256 21.1579C31.7669 20.5254 32.1036 19.0864 32.2733 17.96C32.8618 14.0583 31.9773 10.5811 29.4062 6.68872C27.6323 4.00321 24.7146 1.93564 20.9223 0.677262C18.7993 -0.0272196 15.2479 -0.211129 12.926 0.263141ZM20.2472 4.24554C22.2548 4.82431 23.5499 5.62032 25.2391 7.3138C26.2744 8.3517 26.938 9.27471 27.5814 10.5714C29.04 13.5107 29.218 16.138 28.2144 19.9027C27.6934 21.8567 24.4646 28.3357 21.9892 32.3945C21.0821 33.882 20.12 35.5495 19.8516 36.1C19.3864 37.0537 17.3492 40.2431 16.6241 41.1529C16.2889 41.574 16.2733 41.5701 15.7531 40.9366C14.9445 39.9517 11.1973 33.9281 10.7084 32.8272C10.4706 32.2917 10.0072 31.4641 9.67872 30.9881C8.64253 29.487 4.83531 21.5471 4.24255 19.6507C3.44719 17.1069 3.33851 15.6973 3.78346 13.7061C4.80705 9.12628 8.47102 5.12701 12.4913 4.2014C13.3281 4.00862 14.2085 3.80351 14.4476 3.74531C15.316 3.5337 18.8302 3.83683 20.2472 4.24554ZM13.4905 9.49864C12.0926 10.0331 10.7908 11.2687 9.88283 12.9235C9.28789 14.0077 9.23073 14.2918 9.23073 16.1672C9.23073 18.1446 9.26246 18.2802 10.0665 19.7372C11.0403 21.5023 11.632 22.0521 13.2023 22.6512C15.0032 23.3382 16.4711 23.4273 18.2824 22.9595C19.5699 22.6272 20.0583 22.3667 20.9986 21.5114C22.6878 19.9746 23.3371 18.4981 23.348 16.1672C23.3556 14.5531 23.2806 14.1838 22.7348 13.1489C21.8646 11.4994 20.0676 9.83682 18.6691 9.38722C17.1336 8.89347 14.9506 8.94064 13.4905 9.49864ZM18.1072 13.1669C19.3605 13.7729 19.7731 14.5029 19.7731 16.1144C19.7731 17.7159 19.2062 18.6591 17.8151 19.3724C15.4492 20.5858 12.5999 18.8166 12.5999 16.1343C12.5999 13.4518 15.4836 11.8979 18.1072 13.1669ZM90.2471 13.1204C94.4749 14.1537 97.8657 17.5567 99.0988 22.0047C99.6979 24.1655 99.6696 25.8636 98.9956 28.2053C98.413 30.2289 94.693 38.0509 93.3685 40.0371C92.9479 40.6678 92.4495 41.5513 92.261 42C91.8246 43.0398 88.6647 48.1891 87.6296 49.5472L86.842 50.5806L86.4412 50.0881C85.6882 49.1625 83.6919 46.049 83.1846 45.0088C82.9061 44.4373 81.9386 42.7529 81.035 41.2654C78.2968 36.7586 75.6915 31.4953 74.7694 28.6073C74.1307 26.6072 74.0721 23.3074 74.6444 21.5763C75.6384 18.5699 78.1014 15.4746 80.5279 14.1816C83.19 12.7634 87.0581 12.3408 90.2471 13.1204ZM85.0524 18.1952C83.7089 18.5334 83.0689 18.9271 81.7834 20.2067C80.6994 21.2859 79.8695 22.9251 79.6536 24.4135C79.3437 26.5538 80.7414 29.712 82.5501 30.9579C84.4868 32.292 87.2592 32.5912 89.6328 31.7223C91.2787 31.1197 91.8309 30.7073 92.5662 29.5314C93.7968 27.5631 94.1906 25.9036 93.8826 23.984C93.6463 22.5106 92.2006 20.084 91.1122 19.3343C89.4053 18.1586 86.9959 17.7058 85.0524 18.1952ZM88.917 22.2855C91.0616 23.5037 90.942 26.7178 88.696 28.2243C87.2672 29.1828 84.8825 28.709 83.7989 27.2511C83.2026 26.449 83.0657 24.3209 83.5524 23.4212C83.8687 22.8368 84.994 22.0685 86.0706 21.702C86.6492 21.5051 88.0478 21.7918 88.917 22.2855ZM48.6832 33.3682V44.9436L47.9767 44.9415C46.5719 44.9369 42.0102 44.4921 40.0971 44.1729C35.5715 43.418 30.4242 42.0872 30.4242 41.6722C30.4242 41.2222 32.8029 35.9163 33.828 34.0791C36.1151 29.9812 39.9039 25.6987 42.8509 23.8802C44.2741 23.0019 47.2594 21.8913 48.4115 21.8115C48.6258 21.7966 48.6832 24.2419 48.6832 33.3682ZM54.3348 22.1966C56.3159 22.6813 57.8807 23.4431 59.8259 24.87C61.5362 26.1247 64.1194 28.8308 64.9436 30.2309C65.2588 30.7664 65.8188 31.6015 66.1881 32.0866C67.6075 33.9521 71.0991 41.5502 70.7083 41.9234C70.6096 42.0175 68.9504 42.4873 67.0213 42.9671C63.2069 43.9163 58.6665 44.6189 54.8238 44.8549L52.3784 45.0053V33.3989C52.3784 27.0155 52.4519 21.7938 52.5415 21.7953C52.631 21.7966 53.4381 21.9772 54.3348 22.1966ZM36.048 25.1989C34.6611 26.6581 33.3974 28.291 31.5621 30.9944C30.3298 32.8093 28.6909 35.8793 28.6809 36.3912C28.6785 36.5134 28.3407 37.4899 27.9301 38.5609C27.1982 40.4714 27.1713 40.5071 26.5072 40.4513C26.1348 40.4201 25.0652 40.0462 24.1298 39.6206L22.4294 38.8469L24.0005 36.2157C24.8645 34.7687 26.3411 32.2322 27.2815 30.5794C28.4446 28.5354 29.2032 27.4422 29.6536 27.1609C31.3639 26.0927 36.9174 23.6506 37.1428 23.8676C37.1917 23.9146 36.6992 24.5137 36.048 25.1989ZM66.0679 24.4953C69.558 25.9821 70.6431 26.604 70.7757 27.1929C71.1513 28.8626 71.8419 30.8737 72.7215 32.8601C73.2667 34.0915 73.8953 35.608 74.1181 36.23C74.3409 36.852 74.8772 37.9908 75.3095 38.7606L76.096 40.1605L75.1924 40.4026C74.6955 40.5359 74.2664 40.614 74.239 40.5765C74.2116 40.5389 73.9177 39.7293 73.5858 38.7773C72.1707 34.7165 69.7318 30.6523 65.8277 25.8495C64.8845 24.6894 64.154 23.7399 64.2039 23.7399C64.2542 23.7399 65.093 24.0799 66.0679 24.4953ZM24.6096 43.6511C25.2969 43.9298 25.8594 44.2632 25.8594 44.3917C25.8594 44.5204 25.5734 45.8898 25.2239 47.4351C24.4179 50.9977 23.9822 53.9201 23.654 57.9666L23.394 61.1709H16.258H9.12204L9.12639 60.6841C9.13639 59.5298 9.79654 55.4299 10.4065 52.7327C11.0186 50.0271 12.037 47.1064 13.0749 45.0817L13.5044 44.2437L14.2311 45.3179C15.1045 46.6088 15.9979 47.0659 16.9112 46.6895C17.5153 46.4404 19.9905 43.0567 19.9905 42.4801C19.9905 41.7406 20.497 41.7287 21.9231 42.434C22.7132 42.8248 23.9222 43.3724 24.6096 43.6511ZM79.5495 45.9627C80.4462 47.4673 81.3865 48.949 81.6391 49.2551C81.8917 49.5613 82.4236 50.396 82.8214 51.11C83.9628 53.1585 85.578 55.4771 85.9673 55.6257C86.4243 55.8004 87.2392 55.8001 87.6965 55.6253C87.8932 55.5502 88.6501 54.6065 89.3785 53.5279C90.5806 51.7485 90.7201 51.6126 90.8862 52.059C91.3005 53.1741 91.9706 57.0533 92.0924 59.0419L92.2226 61.1709H85.0322H77.8419L77.7256 60.035C77.6617 59.4104 77.5515 58.0228 77.4808 56.9518C77.2652 53.6915 76.2718 47.9018 75.4215 44.9503C75.2261 44.2725 75.2417 44.2523 76.3538 43.7493C76.9757 43.4678 77.5823 43.2352 77.7019 43.2322C77.8214 43.2294 78.6529 44.4581 79.5495 45.9627ZM72.6813 48.2973C73.5191 52.1587 73.8942 54.8797 74.046 58.1959L74.182 61.1709H67.348H60.5139L59.7248 60.119C58.7343 58.7983 55.5448 56.3304 53.745 55.492L52.3784 54.8555V51.7846V48.7136L55.9107 48.4531C57.8535 48.3096 60.6167 47.9996 62.0513 47.7639C64.5785 47.349 70.1842 46.054 71.2895 45.6302C71.5884 45.5155 71.8971 45.4843 71.9755 45.5611C72.054 45.6382 72.3716 46.8693 72.6813 48.2973ZM33.0326 46.4402C37.4463 47.545 40.9659 48.1244 45.2174 48.4464L48.6832 48.7086V51.3372V53.9658L46.4551 54.1017C43.8661 54.2598 42.2182 54.6586 40.0971 55.6398C38.381 56.4337 35.4395 58.7118 34.224 60.1882L33.415 61.1709H30.2894H27.1637V60.5567C27.1637 59.2994 27.8175 53.2103 28.1433 51.4346C28.3288 50.4231 28.5755 49.0113 28.6913 48.2973C28.8074 47.5833 28.9556 46.6826 29.0209 46.2959C29.0863 45.9093 29.2576 45.5936 29.4015 45.5949C29.5456 45.596 31.1795 45.9763 33.0326 46.4402ZM51.1049 58.3327C53.6127 59.0586 55.1384 60.1177 56.6847 62.206C60.2496 67.0208 60.4943 71.1979 57.5625 77.1819C56.9501 78.4314 56.2237 80.0178 55.9478 80.7073C55.0914 82.8483 50.5178 90.6079 48.0928 94.0338L47.0144 95.5573L46.4925 94.8619C45.7009 93.8069 44.6086 92.0959 42.5951 88.7574C41.5904 87.0914 40.5684 85.4312 40.324 85.0684C39.0709 83.2068 35.5352 75.5161 34.9576 73.3955C34.2799 70.9069 34.3097 68.2458 35.0372 66.3113C35.8054 64.2688 36.8385 62.6366 38.3581 61.0647C39.8245 59.5478 41.177 58.779 43.2494 58.2846C44.0263 58.0992 44.8575 57.8989 45.0966 57.8389C45.9728 57.6202 49.7015 57.9263 51.1049 58.3327ZM44.7449 63.417C41.8145 64.4592 39.7773 67.1926 39.7732 70.0877C39.77 72.2144 40.4088 73.7536 41.9204 75.2617C43.2961 76.6343 44.8033 77.2371 46.9442 77.271C49.8865 77.3178 52.2389 75.9077 53.5116 73.3345C54.1393 72.0655 54.2261 71.6793 54.2261 70.1546C54.2261 68.5886 54.1535 68.2856 53.4811 67.0515C52.0785 64.4763 49.817 63.1094 46.9903 63.1277C46.188 63.1329 45.1774 63.2632 44.7449 63.417ZM23.4684 65.1423C23.4684 67.6177 24.3513 74.7448 25.0078 77.569C25.571 79.9918 25.5547 80.1883 24.7685 80.4611C23.6416 80.8523 20.5835 82.3759 19.4471 83.1126C18.8493 83.5004 17.812 84.1743 17.1421 84.6105C16.4724 85.0467 15.8366 85.4035 15.7292 85.4031C15.3418 85.4016 13.0736 81.1565 11.8563 78.1544C10.7314 75.3804 9.149 67.9503 9.12639 65.336L9.12204 64.8491H16.2952C22.1848 64.8491 23.4684 64.9015 23.4684 65.1423ZM31.4478 65.336C30.6855 68.595 30.6072 69.174 30.7226 70.691C30.8552 72.4307 31.4747 74.8921 32.2057 76.5836C32.454 77.1579 32.6133 77.6713 32.5598 77.7247C32.3785 77.905 28.9026 78.849 28.9017 78.7181C28.9011 78.6467 28.6659 77.2738 28.3787 75.6673C27.9036 73.0087 27.6447 70.8489 27.2699 66.4178L27.1374 64.8491H29.3495C31.5325 64.8491 31.5602 64.8556 31.4478 65.336ZM74.051 67.4996C73.8973 70.6187 73.3967 74.3826 72.7885 76.9911L72.3535 78.8559L70.6805 78.3721C68.612 77.7741 64.3665 76.8206 62.958 76.6375C62.0807 76.5235 61.9348 76.4415 62.0698 76.1384C62.1587 75.9389 62.4665 74.8992 62.7541 73.8282C63.5288 70.9413 63.4169 67.6662 62.4587 65.1806C62.3459 64.8879 63.0232 64.8491 68.2561 64.8491H74.1814L74.051 67.4996ZM92.1561 66.0932C92.1545 68.3609 90.7232 75.3662 89.9874 76.7083C89.8772 76.9093 89.3863 78.0329 88.8968 79.2049C87.9717 81.4198 86.0041 85.069 85.6015 85.3165C85.4743 85.3949 84.6451 84.9572 83.7587 84.3438C81.9749 83.1094 78.8124 81.4008 76.885 80.6303C75.9779 80.2677 75.6608 80.0368 75.7325 79.7919C76.532 77.0648 77.5932 69.5559 77.5932 66.6255C77.5932 65.8072 77.6584 65.0726 77.7382 64.9934C77.8177 64.914 81.0946 64.8491 85.0201 64.8491H92.1569L92.1561 66.0932ZM48.8566 67.2832C50.4836 68.0898 51.0447 69.8902 50.2274 71.6817C49.2183 73.8927 46.6288 74.486 44.7727 72.9314C43.8717 72.1767 43.4663 71.3336 43.4667 70.215C43.4676 67.487 46.2334 65.9827 48.8566 67.2832ZM65.2597 80.7586C66.6035 81.0632 68.5189 81.5574 69.5164 81.8567C71.6495 82.4967 71.6058 82.1561 70.0557 86.0528C68.8015 89.2059 66.9252 92.8839 65.832 94.332C65.3667 94.9486 64.9858 95.5395 64.9858 95.6453C64.9858 96.0945 61.9157 99.412 60.3304 100.676C58.125 102.434 56.0996 103.488 54.1313 103.9C53.2712 104.08 52.5249 104.227 52.473 104.227C52.421 104.227 52.3784 102.001 52.3784 99.2809V94.3344L54.0889 91.5351C55.0297 89.9954 55.8687 88.5185 55.9533 88.2532C56.0381 87.9878 56.4387 87.2136 56.8438 86.5331C57.2488 85.8525 58.195 84.0928 58.9464 82.6228L60.3124 79.9501L61.5644 80.0775C62.2533 80.1476 63.9161 80.454 65.2597 80.7586ZM35.4274 83.4024C36.0295 84.5627 36.802 85.9606 37.1439 86.5091C37.4861 87.0574 37.8373 87.7303 37.9247 88.004C38.1647 88.7567 40.164 91.9753 43.2003 96.4969C45.2637 99.5697 46.0645 100.595 46.4903 100.707C47.2455 100.906 47.6126 100.813 48.1941 100.276L48.6832 99.8246V102.026C48.6832 103.237 48.6097 104.226 48.5201 104.224C47.7448 104.206 44.9322 103.253 43.7439 102.605C42.0332 101.672 39.7597 99.9006 38.7192 98.6893C37.0972 96.8016 34.6835 93.4096 33.738 91.6893C32.6144 89.6455 30.8013 85.5028 30.2162 83.6423L29.8323 82.4216L31.5956 81.8768C34.3179 81.0356 34.1684 80.9761 35.4274 83.4024ZM26.7289 84.1955C26.7289 84.6395 29.1024 90.7845 29.8266 92.216C30.978 94.4912 33.4252 97.8814 36.4373 101.375L37.2424 102.308L36.2786 101.944C35.7486 101.744 34.1314 101.02 32.6848 100.335C30.3811 99.2452 29.0904 98.4388 24.603 95.2866C23.058 94.2011 20.713 91.9381 19.2021 90.0744L17.8142 88.3621L18.4813 87.9107C18.8482 87.6624 19.4929 87.1954 19.914 86.8733C20.335 86.5509 21.038 86.1246 21.4762 85.926C26.4639 83.6648 26.7289 83.5776 26.7289 84.1955ZM77.2126 84.7689C79.758 85.8823 80.6566 86.3544 82.2134 87.3967L83.4641 88.234L83.1265 88.8837C82.9409 89.2412 81.6932 90.6263 80.3542 91.9619C77.1867 95.1209 73.4765 97.8572 69.7449 99.7865C67.7114 100.838 64.3337 102.304 64.3337 102.135C64.3337 102.077 65.1043 101.088 66.0461 99.9373C70.3722 94.6509 73.1252 89.7451 74.2364 85.3416C74.4666 84.429 74.7142 83.8892 74.9022 83.8892C75.0669 83.8892 76.1064 84.2851 77.2126 84.7689Z"
                                    fill="url(#paint0_linear_87_1499)"
                                />
                                <defs>
                                    <linearGradient
                                        id="paint0_linear_87_1499"
                                        x1="51.5"
                                        y1="0"
                                        x2="51.5"
                                        y2="108"
                                        gradientUnits="userSpaceOnUse"
                                    >
                                        <stop stop-color="#0EEDFF" />
                                        <stop offset="1" stop-color="#AB74F9" />
                                    </linearGradient>
                                </defs>
                            </svg>