<svg
    width="105"
    height="92"
    viewBox="0 0 105 92"
    fill="none"
    xmlns="http://www.w3.org/2000/svg"
>
    <path
        d="M84.6476 37.4103C84.6476 19.8193 70.2162 5.48828 52.5 5.48828C34.7838 5.48828 20.3524 19.8193 20.3524 37.4103C20.3524 55.0022 34.7838 69.3323 52.5 69.3323C70.2162 69.3323 84.6476 55.0022 84.6476 37.4103ZM54.1189 46.252V39.0179H68.2729C68.1681 42.5479 67.5854 46.0465 66.5384 49.4214C62.6545 47.5501 58.431 46.4727 54.1189 46.252ZM65.4055 52.4527C62.977 58.1258 59.1375 62.6265 54.1189 65.4515V49.4671C58.0461 49.6923 61.8857 50.7087 65.4055 52.4527ZM54.1189 35.8027V28.5686C58.4328 28.3595 62.6581 27.2812 66.5384 25.4001C67.5854 28.774 68.1681 32.2735 68.2729 35.8027H54.1189ZM54.1189 25.3534V9.34666C59.1375 12.1716 62.9996 16.6956 65.4055 22.3455C61.8911 24.1074 58.0488 25.1318 54.1189 25.3534ZM50.8811 9.34666V25.331C46.9475 25.1327 43.098 24.1316 39.5719 22.3912C41.9769 16.7189 45.8625 12.1949 50.8811 9.34666ZM50.8811 28.5686V35.8027H36.727C36.8373 32.2906 37.4127 28.809 38.4381 25.4458C42.3337 27.3028 46.5645 28.3649 50.8811 28.5686ZM50.8811 39.0179V46.252C46.5645 46.4565 42.3337 47.5187 38.4381 49.3756C37.4019 46.0151 36.8255 42.5318 36.727 39.0179H50.8811ZM50.8811 49.4671V65.4515C45.8625 62.6041 41.9769 58.0792 39.5719 52.3845C43.1116 50.6818 46.9548 49.6914 50.8811 49.4671ZM68.2504 54.0602C69.9054 55.1448 71.4476 56.3909 72.8524 57.7814C69.3534 61.2342 65.0215 63.7407 60.2713 65.0612C63.716 62.0237 66.4408 58.2676 68.2504 54.0602ZM69.4293 51.0065C70.7005 47.1302 71.4015 43.0924 71.5108 39.0179H81.3636C81.0357 45.0059 78.8096 50.7374 75.0035 55.3924C73.3213 53.7229 71.4503 52.2508 69.4293 51.0065ZM71.5108 35.8027C71.4015 31.7281 70.7005 27.6912 69.4293 23.8149C71.4539 22.5644 73.3312 21.0931 75.0261 19.429C78.8232 24.0894 81.0483 29.8173 81.3862 35.8027H71.5108ZM68.2504 20.7603C66.3306 16.4202 63.6474 12.6767 60.2713 9.76022C65.0215 11.0807 69.3534 13.5872 72.8524 17.0401C71.4476 18.4306 69.9054 19.6766 68.2504 20.7603ZM36.727 20.807C35.0422 19.7439 33.4819 18.4952 32.078 17.0858C35.5923 13.5899 39.9586 11.0583 44.7522 9.73689C41.2875 12.7942 38.5475 16.5745 36.727 20.807ZM35.5472 23.884C34.2842 27.737 33.5912 31.7523 33.4892 35.8027H23.6364C23.9697 29.8496 26.1687 24.1477 29.9269 19.4972C31.6308 21.1622 33.5154 22.6334 35.5472 23.884ZM33.4892 39.0179C33.6021 43.0682 34.2959 47.0809 35.5472 50.9375C33.5045 52.1817 31.6109 53.653 29.9044 55.3233C26.1515 50.6701 23.9526 44.9709 23.6138 39.0179H33.4892ZM36.727 54.0145C38.6468 58.3779 41.3526 62.1448 44.7522 65.0837C39.9586 63.7631 35.5923 61.2316 32.078 57.7347C33.4874 56.3308 35.0458 55.0838 36.727 54.0145Z"
        fill="url(#paint0_linear_105_13979)"
    />
    <path
        d="M98.7555 36.2397H90.4295C89.6435 16.1216 72.9446 0 52.5 0C32.0554 0 15.3339 16.1216 14.5705 36.2397H6.24449C2.79611 36.2415 0.00180686 39.0162 0 42.4404V58.5162C0.00180686 61.9395 2.79611 64.7151 6.24449 64.7169H17.7849V36.7905C18.2709 18.1885 33.6509 3.21516 52.5 3.21516C71.65 3.21516 87.2377 18.6935 87.2377 37.7091V63.0402C87.2187 74.1049 78.1908 83.0704 67.047 83.0892H61.4503V82.5151C61.4503 79.5978 59.0688 77.233 56.1309 77.233H38.0912C35.1533 77.233 32.7718 79.5978 32.7718 82.5151V86.7179C32.7718 89.6344 35.1533 92 38.0912 92H56.1309C59.0688 92 61.4503 89.6344 61.4503 86.7179V86.3044H67.047C79.3264 86.2963 89.518 76.8778 90.406 64.7169H98.7555C102.204 64.7151 104.998 61.9395 105 58.5162V42.4404C104.998 39.0162 102.204 36.2415 98.7555 36.2397ZM6.24449 61.5017C5.44677 61.5035 4.68066 61.1895 4.11692 60.6288C3.55228 60.069 3.23608 59.3083 3.23789 58.5162V42.4404C3.23608 41.6482 3.55228 40.8875 4.11692 40.3277C4.68066 39.767 5.44677 39.453 6.24449 39.4548H14.5244V42.1874H14.547V61.5017H6.24449ZM58.1898 86.7179C58.1916 87.2661 57.973 87.7936 57.5827 88.182C57.1915 88.5695 56.6603 88.7866 56.1083 88.7848H38.0686C37.5157 88.7866 36.9845 88.5695 36.5942 88.182C36.2031 87.7936 35.9844 87.2661 35.9871 86.7179V82.5151C35.9844 81.9661 36.2031 81.4386 36.5942 81.051C36.9845 80.6626 37.5157 80.4455 38.0686 80.4482H56.1083C56.6603 80.4455 57.1915 80.6626 57.5827 81.051C57.973 81.4386 58.1916 81.9661 58.1898 82.5151V86.7179ZM101.762 58.5162C101.764 59.3083 101.448 60.069 100.883 60.6288C100.319 61.1895 99.5532 61.5035 98.7555 61.5017H90.453V39.4548H98.7555C99.5532 39.453 100.319 39.767 100.883 40.3277C101.448 40.8875 101.764 41.6482 101.762 42.4404V58.5162Z"
        fill="url(#paint1_linear_105_13979)"
    />
    <defs>
        <linearGradient
            id="paint0_linear_105_13979"
            x1="52.5"
            y1="-8.39536"
            x2="52.5"
            y2="104.167"
            gradientUnits="userSpaceOnUse"
        >
            <stop stop-color="#00EFD1" />
            <stop offset="1" stop-color="#AB74F9" />
        </linearGradient>
        <linearGradient
            id="paint1_linear_105_13979"
            x1="52.5"
            y1="-8.39525"
            x2="52.5"
            y2="104.167"
            gradientUnits="userSpaceOnUse"
        >
            <stop stop-color="#0EEDFF" />
            <stop offset="1" stop-color="#AB74F9" />
        </linearGradient>
    </defs>
</svg>