<svg
                                width="27"
                                height="27"
                                viewBox="0 0 27 27"
                                fill="none"
                                xmlns="http://www.w3.org/2000/svg"
                            >
                                <path
                                    fill-rule="evenodd"
                                    clip-rule="evenodd"
                                    d="M12.2282 0.0547141C9.65756 0.283186 7.00182 1.37111 4.95982 3.03208C4.3596 3.52033 3.40926 4.4781 2.93055 5.07734C1.72013 6.59242 0.728229 8.6418 0.316851 10.4773C0.0585118 11.6303 0 12.1908 0 13.5134C0 14.836 0.0585118 15.3965 0.316851 16.5495C0.737206 18.4251 1.75498 20.5037 3.00565 22.0408C3.49397 22.641 4.45186 23.5912 5.05118 24.0698C6.56647 25.2801 8.61612 26.2719 10.4519 26.6832C11.605 26.9415 12.1656 27 13.4884 27C14.8112 27 15.3718 26.9415 16.5249 26.6832C17.9051 26.3739 19.7099 25.6028 20.8958 24.8156C22.9527 23.4502 24.5325 21.6538 25.6111 19.4536C26.4844 17.6719 26.9128 15.9771 26.9899 13.9976C27.1129 10.8431 26.1064 7.75543 24.1127 5.1708C23.6672 4.59336 22.4096 3.33595 21.8321 2.89057C19.0423 0.739073 15.6843 -0.252432 12.2282 0.0547141ZM13.0131 3.62963V6.31263L11.8179 6.37863C10.2635 6.46454 8.82936 6.63229 7.42392 6.89265C7.18169 6.93748 6.97589 6.96642 6.9666 6.95691C6.93634 6.92608 7.30146 6.06536 7.57442 5.52404C8.65452 3.3821 10.0466 1.93201 11.6544 1.27416C12.0241 1.12289 12.6482 0.956456 12.8679 0.950595L13.0131 0.946688V3.62963ZM14.5446 1.02848C16.1535 1.40469 17.6763 2.63211 18.8185 4.47361C19.2534 5.17471 20.0766 6.88911 20.0107 6.95644C20.0016 6.96568 19.7245 6.92602 19.395 6.86826C17.797 6.58841 16.7361 6.46581 15.1589 6.37863L13.9637 6.31263V3.62963V0.946688L14.0825 0.94748C14.1479 0.947902 14.3558 0.984388 14.5446 1.02848ZM8.99429 2.05235C8.42564 2.63411 7.84966 3.34809 7.41584 4.00917C7.01719 4.6166 6.32075 6.02402 6.09632 6.6758L5.93261 7.15122L4.13585 7.46011C3.14765 7.62997 2.32616 7.75601 2.31037 7.74022C2.2734 7.70326 2.53829 7.2347 2.9643 6.58355C4.14642 4.77664 5.85197 3.25707 7.84507 2.23494C8.17127 2.06766 9.31536 1.58807 9.39933 1.58342C9.43038 1.58173 9.24808 1.79272 8.99429 2.05235ZM18.1702 1.81062C20.554 2.76849 22.6219 4.45793 24.0125 6.58355C24.4385 7.2347 24.7034 7.70326 24.6664 7.74022C24.6506 7.75601 23.8291 7.62997 22.8409 7.46011L21.0442 7.15122L20.8805 6.6758C20.656 6.02402 19.9596 4.6166 19.5609 4.00917C19.1271 3.34809 18.5511 2.63411 17.9825 2.05235C17.7287 1.79272 17.5381 1.5803 17.559 1.5803C17.5799 1.5803 17.855 1.68395 18.1702 1.81062ZM13.0131 10.1341V13.0382H9.42045H5.82784L5.85899 12.4706C5.92886 11.1979 6.16713 9.65211 6.4664 8.52992C6.55068 8.2139 6.62641 7.95026 6.63464 7.94403C6.64294 7.93786 7.1725 7.84619 7.81148 7.74038C9.60459 7.44342 11.3277 7.26369 12.6303 7.23771L13.0131 7.23005V10.1341ZM15.2991 7.28512C16.4925 7.35746 17.7367 7.50399 19.1653 7.74048C19.8043 7.84625 20.3338 7.93786 20.3421 7.94403C20.3504 7.95026 20.4261 8.2139 20.5104 8.52992C20.8097 9.65211 21.0479 11.1979 21.1178 12.4706L21.1489 13.0382H17.5563H13.9637V10.1341V7.23005H14.177C14.2942 7.23005 14.7992 7.25487 15.2991 7.28512ZM5.61993 8.18412C5.61993 8.21517 5.56216 8.47057 5.49155 8.75174C5.2339 9.77724 5.03777 11.1435 4.95755 12.4706L4.92328 13.0382H2.89422H0.865161L0.889295 12.9194C0.90255 12.8541 0.927422 12.5986 0.944585 12.3518C1.00674 11.4583 1.25145 10.3234 1.59186 9.35019C1.69695 9.04969 1.80869 8.79398 1.84016 8.78194C1.91188 8.75438 5.40157 8.14024 5.52751 8.13301C5.57837 8.13005 5.61993 8.15307 5.61993 8.18412ZM23.2753 8.44823C24.2946 8.62454 25.1437 8.77824 25.1624 8.78975C25.181 8.80126 25.2817 9.05497 25.3861 9.35362C25.7253 10.3235 25.9701 11.4595 26.0322 12.3518C26.0494 12.5986 26.0742 12.854 26.0875 12.9194L26.1116 13.0382H24.0826H22.0535L22.0192 12.4706C21.939 11.1435 21.7429 9.77724 21.4852 8.75174C21.3498 8.21226 21.3368 8.12768 21.3895 8.12768C21.4075 8.12768 22.2561 8.27193 23.2753 8.44823ZM4.95755 14.5562C5.03835 15.8935 5.23189 17.2346 5.49873 18.307C5.57309 18.6056 5.62183 18.8621 5.6071 18.8768C5.58101 18.9029 1.88215 18.279 1.81439 18.2371C1.79575 18.2256 1.69505 17.9719 1.59064 17.6732C1.25146 16.7034 1.00663 15.5673 0.944585 14.675C0.927422 14.4282 0.90255 14.1728 0.889295 14.1074L0.865161 13.9886H2.89422H4.92328L4.95755 14.5562ZM13.0131 16.8927V19.7968H12.7998C12.3116 19.7968 10.7073 19.6795 9.87101 19.5826C9.11802 19.4954 6.68339 19.1194 6.63464 19.0828C6.62641 19.0766 6.55068 18.8129 6.4664 18.4969C6.16713 17.3747 5.92886 15.829 5.85899 14.5562L5.82784 13.9886H9.42045H13.0131V16.8927ZM21.1178 14.5562C21.0479 15.829 20.8097 17.3747 20.5104 18.4969C20.4261 18.8129 20.3504 19.0766 20.3421 19.0828C20.2934 19.1194 17.8588 19.4954 17.1058 19.5826C16.2695 19.6795 14.6652 19.7968 14.177 19.7968H13.9637V16.8927V13.9886H17.5563H21.1489L21.1178 14.5562ZM26.0875 14.1074C26.0742 14.1728 26.0494 14.4282 26.0322 14.675C25.9701 15.5673 25.7253 16.7034 25.3861 17.6732C25.2817 17.9719 25.181 18.2256 25.1624 18.2371C25.0946 18.279 21.3958 18.9029 21.3697 18.8768C21.355 18.8621 21.4037 18.6056 21.478 18.307C21.7449 17.2346 21.9384 15.8935 22.0192 14.5562L22.0535 13.9886H24.0826H26.1116L26.0875 14.1074ZM4.15244 19.5709L5.93261 19.8756L6.09632 20.351C6.32075 21.0028 7.01719 22.4102 7.41584 23.0177C7.84966 23.6787 8.42564 24.3927 8.99429 24.9745C9.24808 25.2341 9.43867 25.4465 9.41776 25.4465C9.34525 25.4465 8.23178 24.985 7.8992 24.8172C6.064 23.8909 4.4328 22.5063 3.25305 20.8734C2.96646 20.4768 2.293 19.3801 2.293 19.3101C2.293 19.2503 2.21854 19.2399 4.15244 19.5709ZM24.6838 19.3101C24.6838 19.3801 24.0103 20.4768 23.7237 20.8734C22.544 22.5063 20.9128 23.8909 19.0776 24.8172C18.745 24.985 17.6315 25.4465 17.559 25.4465C17.5381 25.4465 17.7287 25.2341 17.9825 24.9745C18.5511 24.3927 19.1271 23.6787 19.5609 23.0177C19.9596 22.4102 20.656 21.0028 20.8805 20.3508L21.0443 19.8752L22.7452 19.5776C24.5369 19.2641 24.6838 19.2438 24.6838 19.3101ZM7.44922 20.1384C8.80016 20.3911 10.3168 20.5684 11.8381 20.6514L13.0131 20.7155V23.3978C13.0131 26.4827 13.09 26.1469 12.4183 25.9942C10.2354 25.4977 8.23453 23.3784 7.02849 20.2852C6.98038 20.1618 6.96195 20.0608 6.98756 20.0608C7.01312 20.0608 7.22087 20.0957 7.44922 20.1384ZM19.9265 20.338C18.7327 23.3857 16.7248 25.5016 14.5585 25.9942C13.8868 26.1469 13.9637 26.4827 13.9637 23.3978V20.7155L15.1387 20.6514C16.6323 20.5699 18.5243 20.345 19.6406 20.1162C20.0557 20.0312 20.0488 20.0258 19.9265 20.338Z"
                                    fill="url(#paint0_linear_122_217)"
                                />
                                <defs>
                                    <linearGradient
                                        id="paint0_linear_122_217"
                                        x1="13.5"
                                        y1="0"
                                        x2="13.5"
                                        y2="27"
                                        gradientUnits="userSpaceOnUse"
                                    >
                                        <stop stop-color="#AE54F9" />
                                        <stop offset="1" stop-color="#0EEDFF" />
                                    </linearGradient>
                                </defs>
                            </svg>