<svg
                                        width="40"
                                        height="40"
                                        viewBox="0 0 40 40"
                                        fill="none"
                                        xmlns="http://www.w3.org/2000/svg"
                                    >
                                        <path
                                            fill-rule="evenodd"
                                            clip-rule="evenodd"
                                            d="M18.6824 7.56673C16.4406 7.80138 14.3036 8.64538 12.4832 10.015C9.85166 11.9951 8.10236 14.918 7.59645 18.1802C7.46785 19.0095 7.46785 20.9923 7.59645 21.8217C8.2308 25.9125 10.7708 29.3681 14.5275 31.2515C15.18 31.5786 16.6699 32.0893 17.435 32.248C17.7469 32.3127 18.4851 32.4068 19.0756 32.4572C24.3243 32.9045 29.3975 29.8123 31.4656 24.9052C32.1333 23.3209 32.397 22.0633 32.4578 20.1716L32.5 18.863H26.8197H21.1394V21.1389V23.4149H24.1256C25.768 23.4149 27.1118 23.4336 27.1118 23.4566C27.1118 23.5431 26.8558 23.9999 26.5613 24.4391C25.6055 25.8645 24.2729 26.9113 22.6928 27.4781C21.3885 27.9459 20.0803 28.0712 18.758 27.8549C15.5954 27.3376 13.073 25.0388 12.2384 21.9132C12.0667 21.27 12.0418 21.0281 12.0418 20.0009C12.0418 18.9738 12.0667 18.7319 12.2384 18.0887C12.942 15.4535 14.8893 13.3426 17.406 12.4867C18.6835 12.0523 19.8363 11.9469 21.1394 12.1455C23.0863 12.4421 24.9612 13.5039 26.1581 14.9875L26.3671 15.2466L27.949 13.6605C28.8191 12.7881 29.531 12.0274 29.531 11.9699C29.531 11.8028 28.1163 10.4449 27.4142 9.93804C24.853 8.08936 21.7471 7.24589 18.6824 7.56673Z"
                                            fill="white"
                                        />
                                        <rect
                                            x="0.5"
                                            y="0.5"
                                            width="39"
                                            height="39"
                                            rx="15.5"
                                            stroke="url(#paint0_linear_49_17)"
                                            stroke-opacity="0.4"
                                        />
                                        <defs>
                                            <linearGradient
                                                id="paint0_linear_49_17"
                                                x1="52.8155"
                                                y1="-5.24272"
                                                x2="-6.60194"
                                                y2="40"
                                                gradientUnits="userSpaceOnUse"
                                            >
                                                <stop stop-color="#0EEDFF" />
                                                <stop offset="1" stop-color="#AB74F9" />
                                            </linearGradient>
                                        </defs>
                                    </svg>