 <svg
                                width="192"
                                height="42"
                                viewBox="0 0 195 42"
                                fill="none"
                                xmlns="http://www.w3.org/2000/svg"
                            >
                                <path
                                    fill-rule="evenodd"
                                    clip-rule="evenodd"
                                    d="M17.3053 0.372835C17.4693 0.285905 17.8269 0.164672 18.0999 0.103289C18.8134 -0.0571212 33.5217 -0.0204719 34.0039 0.142827C34.5287 0.320659 35.1693 0.809471 35.4933 1.27951C35.5322 1.33607 35.5686 1.38331 35.6024 1.42733L35.6025 1.42745L35.6026 1.42751C35.6294 1.46239 35.6547 1.49525 35.6785 1.52914C36.0036 1.99185 36.056 2.64615 36.0632 11.2394L37.5517 5.90596L38.1159 6.0634L38.1605 5.92761L54.1752 11.1872L54.0996 11.4177L54.4003 11.5224L46.0052 35.6245L45.7515 35.5361L45.7112 35.6675L38.1483 33.3498L38.1453 33.3489L36.059 32.6953C36.0413 38.8826 35.9682 39.4493 35.6786 39.8654C35.6547 39.8997 35.6294 39.933 35.6025 39.9683L35.6023 39.9685L35.6023 39.9685C35.5682 40.0133 35.5317 40.0612 35.4925 40.1187C35.1565 40.611 34.5165 41.0841 33.9565 41.2542C33.4113 41.42 18.405 41.4199 17.8596 41.2542C17.3095 41.087 16.6632 40.6066 16.3218 40.1112C16.2828 40.0546 16.2465 40.0073 16.2126 39.9633C16.1858 39.9286 16.1606 39.8959 16.1369 39.8621C15.8434 39.4448 15.7721 38.8712 15.7636 32.4316L15.7598 32.4385C14.4143 31.7014 13.1667 30.6895 11.959 29.7098C11.467 29.3108 10.9817 28.917 10.499 28.5495L10.4951 28.5465C8.76348 27.2012 7.16968 25.7614 5.71422 24.227L5.71224 24.2249C4.26887 22.6857 3.05759 21.1085 2.11469 19.5037L2.11389 19.5023C1.16369 17.8733 0.57672 16.2555 0.368638 14.6512C0.231583 13.5945 0.286483 12.5534 0.541745 11.5614C0.79723 10.5464 1.28346 9.58786 2.00904 8.70093C2.89483 7.57314 3.97463 6.90188 5.21419 6.74111C5.69397 6.67889 6.1915 6.71824 6.65646 6.87063C7.13738 7.02152 7.58669 7.2868 7.96431 7.70351L11.9939 12.0573L11.9951 12.0586C12.3269 12.4123 12.5863 12.7549 12.7832 13.0999C12.9796 13.4326 13.1218 13.7946 13.1686 14.1555C13.227 14.6052 13.1524 15.0605 12.9594 15.4979C12.7911 15.9094 12.5333 16.3332 12.2099 16.7529L11.2457 18.0538L11.2399 18.0616L11.2399 18.0616C11.1868 18.1303 11.1659 18.1951 11.1807 18.3096C11.1889 18.3723 11.2025 18.4275 11.2282 18.4968C11.2455 18.5283 11.263 18.5582 11.2829 18.5922L11.2831 18.5924L11.2831 18.5925L11.2891 18.6026C11.3084 18.6357 11.3323 18.6766 11.3558 18.7213C11.6568 19.1275 12.1581 19.662 12.8743 20.3146C13.6275 20.9854 14.4242 21.6634 15.2774 22.3329C15.4938 22.4963 15.6499 22.6262 15.7716 22.7352L15.7746 20.5124L15.7981 2.28141L16.0371 1.77157C16.2979 1.21532 16.8367 0.620987 17.3053 0.372835ZM36.0613 31.6481L38.4413 32.3937L38.4428 32.3941L44.9095 34.3759L39.3231 20.6718L52.8153 11.7931L38.2793 7.01917L36.5099 13.359L36.5086 13.3636L36.0643 14.8984L36.064 17.139V17.1392V17.1393V17.1398V17.1402V17.1407V17.1413V17.1419V17.1425C36.0639 18.2447 36.0637 19.4274 36.0637 20.6965C36.0637 21.9727 36.0639 23.1613 36.064 24.2688V24.2692C36.0645 27.2924 36.0648 29.71 36.0613 31.6481ZM40.5594 21.0554L45.6614 33.5713L52.8345 12.9776L40.5594 21.0554ZM35.1159 2.46195V14.5783L35.0515 14.8006L35.1159 14.8193V20.6965V38.9311L34.9167 39.3033C34.6915 39.7244 34.2619 40.1188 33.8324 40.2988C33.4034 40.4785 18.4132 40.4785 17.9842 40.2988C17.5547 40.1188 17.1251 39.7244 16.8999 39.3033L16.7008 38.9311V23.6897L16.7716 23.5802C16.747 23.5643 16.7234 23.5489 16.7008 23.5339V20.6965V2.46195L16.8999 2.08968C17.1197 1.67886 17.5479 1.27987 17.9645 1.09788C18.1443 1.01935 18.6641 0.978366 19.5105 0.976019L20.7857 0.972499L20.8257 1.45472C20.873 2.02469 21.122 2.42133 21.5646 2.63139C21.8352 2.75976 22.3725 2.7779 25.9083 2.7779C29.4441 2.7779 29.9814 2.75976 30.252 2.63139C30.6946 2.42133 30.9437 2.02469 30.991 1.45472L31.0309 0.972499H32.2864C33.136 0.972499 33.6359 1.01186 33.8324 1.09418C34.2619 1.27418 34.6915 1.66857 34.9167 2.08968L35.1159 2.46195ZM15.7697 24.0983C15.6082 23.9724 15.5004 23.8689 15.3923 23.7599L15.3535 23.7205C15.2101 23.575 15.0555 23.4181 14.6714 23.1283L14.6639 23.1227L14.6639 23.1226C13.7884 22.4358 12.9736 21.7422 12.2071 21.0594L12.2029 21.0557L12.203 21.0557C11.4469 20.3669 10.8807 19.7684 10.5242 19.2784L10.498 19.2423L10.4786 19.2022C10.4678 19.1801 10.4533 19.1543 10.4261 19.108L10.4193 19.0964C10.3951 19.0551 10.3636 19.0014 10.3312 18.9404L10.3179 18.9152L10.3074 18.8886C10.2504 18.7435 10.2104 18.6027 10.1891 18.4382C10.1432 18.0845 10.2189 17.75 10.4449 17.4549L11.4093 16.1536L11.4151 16.1459L11.4152 16.1459C11.7028 15.7732 11.9101 15.4237 12.036 15.1139L12.0391 15.1064L12.0424 15.099C12.1709 14.8099 12.2097 14.5365 12.1769 14.2841C12.1516 14.0884 12.0676 13.8541 11.9205 13.6056L11.9163 13.5984L11.9163 13.5984C11.7653 13.3333 11.5558 13.0518 11.2648 12.7417L11.2624 12.7391L11.2624 12.7391L7.22856 8.38077L7.22465 8.37654L7.22467 8.37652C6.97531 8.10079 6.68177 7.92622 6.35463 7.824L6.34742 7.82175L6.34744 7.82169C6.03257 7.71806 5.68519 7.6884 5.34281 7.73281C4.4078 7.85408 3.54833 8.35859 2.79264 9.32221L2.78608 9.33057L2.78599 9.3305C2.14562 10.1123 1.72887 10.9412 1.5112 11.8067L1.51051 11.8094L1.5105 11.8094C1.28881 12.6703 1.23848 13.5831 1.36033 14.5226C1.54829 15.9717 2.08205 17.4628 2.97727 18.9977C3.87597 20.5272 5.03921 22.0451 6.4407 23.5399C7.85938 25.0353 9.41459 26.4406 11.1068 27.7554C11.6442 28.1647 12.16 28.5833 12.6678 28.9954L12.6679 28.9954C13.6939 29.828 14.6877 30.6345 15.7627 31.2859C15.7622 29.3749 15.7655 27.0181 15.7697 24.1049L15.7697 24.0983ZM9.37814 7.97803C9.38484 7.70197 9.61406 7.48361 9.89012 7.49031C10.5425 7.50614 11.1126 7.92493 11.4881 8.34982C11.7 8.58833 11.8778 8.85444 12.0038 9.11479C12.1249 9.3651 12.2194 9.65413 12.2128 9.9285C12.2061 10.2046 11.9769 10.4229 11.7008 10.4162C11.4247 10.4095 11.2064 10.1803 11.2131 9.90424C11.2142 9.85623 11.1924 9.73383 11.1036 9.5503C11.0198 9.37701 10.8944 9.18706 10.7402 9.01362L10.7392 9.01246C10.4449 8.67936 10.1158 8.49608 9.86586 8.49001C9.5898 8.48331 9.37144 8.25409 9.37814 7.97803ZM9.93577 5.60974C9.65971 5.60304 9.43049 5.8214 9.42379 6.09746C9.41709 6.37352 9.63545 6.60274 9.91152 6.60944C11.7148 6.6532 13.1374 8.14657 13.0937 9.94988C13.087 10.2259 13.3053 10.4552 13.5814 10.4619C13.8575 10.4686 14.0867 10.2502 14.0934 9.97414C14.1505 7.6187 12.2912 5.6669 9.93577 5.60974Z"
                                    fill="url(#paint0_linear_153_3653)"
                                />
                                <path
                                    d="M70.56 27L67.932 22.23H67.194V27H64.116V14.364H69.282C70.278 14.364 71.124 14.538 71.82 14.886C72.528 15.234 73.056 15.714 73.404 16.326C73.752 16.926 73.926 17.598 73.926 18.342C73.926 19.182 73.686 19.932 73.206 20.592C72.738 21.252 72.042 21.72 71.118 21.996L74.034 27H70.56ZM67.194 20.052H69.102C69.666 20.052 70.086 19.914 70.362 19.638C70.65 19.362 70.794 18.972 70.794 18.468C70.794 17.988 70.65 17.61 70.362 17.334C70.086 17.058 69.666 16.92 69.102 16.92H67.194V20.052ZM85.3262 21.816C85.3262 22.104 85.3082 22.404 85.2722 22.716H78.3062C78.3542 23.34 78.5522 23.82 78.9002 24.156C79.2602 24.48 79.6982 24.642 80.2142 24.642C80.9822 24.642 81.5162 24.318 81.8162 23.67H85.0922C84.9242 24.33 84.6182 24.924 84.1742 25.452C83.7422 25.98 83.1962 26.394 82.5362 26.694C81.8762 26.994 81.1382 27.144 80.3222 27.144C79.3382 27.144 78.4622 26.934 77.6942 26.514C76.9262 26.094 76.3262 25.494 75.8942 24.714C75.4622 23.934 75.2462 23.022 75.2462 21.978C75.2462 20.934 75.4562 20.022 75.8762 19.242C76.3082 18.462 76.9082 17.862 77.6762 17.442C78.4442 17.022 79.3262 16.812 80.3222 16.812C81.2942 16.812 82.1582 17.016 82.9142 17.424C83.6702 17.832 84.2582 18.414 84.6782 19.17C85.1102 19.926 85.3262 20.808 85.3262 21.816ZM82.1762 21.006C82.1762 20.478 81.9962 20.058 81.6362 19.746C81.2762 19.434 80.8262 19.278 80.2862 19.278C79.7702 19.278 79.3322 19.428 78.9722 19.728C78.6242 20.028 78.4082 20.454 78.3242 21.006H82.1762ZM93.07 16.848C94.246 16.848 95.182 17.232 95.878 18C96.586 18.756 96.94 19.8 96.94 21.132V27H93.88V21.546C93.88 20.874 93.706 20.352 93.358 19.98C93.01 19.608 92.542 19.422 91.954 19.422C91.366 19.422 90.898 19.608 90.55 19.98C90.202 20.352 90.028 20.874 90.028 21.546V27H86.95V16.956H90.028V18.288C90.34 17.844 90.76 17.496 91.288 17.244C91.816 16.98 92.41 16.848 93.07 16.848ZM104.677 24.39V27H103.111C101.995 27 101.125 26.73 100.501 26.19C99.8769 25.638 99.5649 24.744 99.5649 23.508V19.512H98.3409V16.956H99.5649V14.508H102.643V16.956H104.659V19.512H102.643V23.544C102.643 23.844 102.715 24.06 102.859 24.192C103.003 24.324 103.243 24.39 103.579 24.39H104.677ZM121.51 27H118.432L113.284 19.206V27H110.206V14.364H113.284L118.432 22.194V14.364H121.51V27ZM133.659 16.956V27H130.581V25.632C130.269 26.076 129.843 26.436 129.303 26.712C128.775 26.976 128.187 27.108 127.539 27.108C126.771 27.108 126.093 26.94 125.505 26.604C124.917 26.256 124.461 25.758 124.137 25.11C123.813 24.462 123.651 23.7 123.651 22.824V16.956H126.711V22.41C126.711 23.082 126.885 23.604 127.233 23.976C127.581 24.348 128.049 24.534 128.637 24.534C129.237 24.534 129.711 24.348 130.059 23.976C130.407 23.604 130.581 23.082 130.581 22.41V16.956H133.659ZM148.686 16.848C149.934 16.848 150.924 17.226 151.656 17.982C152.4 18.738 152.772 19.788 152.772 21.132V27H149.712V21.546C149.712 20.898 149.538 20.4 149.19 20.052C148.854 19.692 148.386 19.512 147.786 19.512C147.186 19.512 146.712 19.692 146.364 20.052C146.028 20.4 145.86 20.898 145.86 21.546V27H142.8V21.546C142.8 20.898 142.626 20.4 142.278 20.052C141.942 19.692 141.474 19.512 140.874 19.512C140.274 19.512 139.8 19.692 139.452 20.052C139.116 20.4 138.948 20.898 138.948 21.546V27H135.87V16.956H138.948V18.216C139.26 17.796 139.668 17.466 140.172 17.226C140.676 16.974 141.246 16.848 141.882 16.848C142.638 16.848 143.31 17.01 143.898 17.334C144.498 17.658 144.966 18.12 145.302 18.72C145.65 18.168 146.124 17.718 146.724 17.37C147.324 17.022 147.978 16.848 148.686 16.848ZM158.003 18.378C158.291 17.91 158.705 17.532 159.245 17.244C159.785 16.956 160.403 16.812 161.099 16.812C161.927 16.812 162.677 17.022 163.349 17.442C164.021 17.862 164.549 18.462 164.933 19.242C165.329 20.022 165.527 20.928 165.527 21.96C165.527 22.992 165.329 23.904 164.933 24.696C164.549 25.476 164.021 26.082 163.349 26.514C162.677 26.934 161.927 27.144 161.099 27.144C160.391 27.144 159.773 27.006 159.245 26.73C158.717 26.442 158.303 26.064 158.003 25.596V27H154.925V13.68H158.003V18.378ZM162.395 21.96C162.395 21.192 162.179 20.592 161.747 20.16C161.327 19.716 160.805 19.494 160.181 19.494C159.569 19.494 159.047 19.716 158.615 20.16C158.195 20.604 157.985 21.21 157.985 21.978C157.985 22.746 158.195 23.352 158.615 23.796C159.047 24.24 159.569 24.462 160.181 24.462C160.793 24.462 161.315 24.24 161.747 23.796C162.179 23.34 162.395 22.728 162.395 21.96ZM176.609 21.816C176.609 22.104 176.591 22.404 176.555 22.716H169.589C169.637 23.34 169.835 23.82 170.183 24.156C170.543 24.48 170.981 24.642 171.497 24.642C172.265 24.642 172.799 24.318 173.099 23.67H176.375C176.207 24.33 175.901 24.924 175.457 25.452C175.025 25.98 174.479 26.394 173.819 26.694C173.159 26.994 172.421 27.144 171.605 27.144C170.621 27.144 169.745 26.934 168.977 26.514C168.209 26.094 167.609 25.494 167.177 24.714C166.745 23.934 166.529 23.022 166.529 21.978C166.529 20.934 166.739 20.022 167.159 19.242C167.591 18.462 168.191 17.862 168.959 17.442C169.727 17.022 170.609 16.812 171.605 16.812C172.577 16.812 173.441 17.016 174.197 17.424C174.953 17.832 175.541 18.414 175.961 19.17C176.393 19.926 176.609 20.808 176.609 21.816ZM173.459 21.006C173.459 20.478 173.279 20.058 172.919 19.746C172.559 19.434 172.109 19.278 171.569 19.278C171.053 19.278 170.615 19.428 170.255 19.728C169.907 20.028 169.691 20.454 169.607 21.006H173.459ZM181.311 18.63C181.671 18.078 182.121 17.646 182.661 17.334C183.201 17.01 183.801 16.848 184.461 16.848V20.106H183.615C182.847 20.106 182.271 20.274 181.887 20.61C181.503 20.934 181.311 21.51 181.311 22.338V27H178.233V16.956H181.311V18.63ZM190.018 27.144C189.142 27.144 188.362 26.994 187.678 26.694C186.994 26.394 186.454 25.986 186.058 25.47C185.662 24.942 185.44 24.354 185.392 23.706H188.434C188.47 24.054 188.632 24.336 188.92 24.552C189.208 24.768 189.562 24.876 189.982 24.876C190.366 24.876 190.66 24.804 190.864 24.66C191.08 24.504 191.188 24.306 191.188 24.066C191.188 23.778 191.038 23.568 190.738 23.436C190.438 23.292 189.952 23.136 189.28 22.968C188.56 22.8 187.96 22.626 187.48 22.446C187 22.254 186.586 21.96 186.238 21.564C185.89 21.156 185.716 20.61 185.716 19.926C185.716 19.35 185.872 18.828 186.184 18.36C186.508 17.88 186.976 17.502 187.588 17.226C188.212 16.95 188.95 16.812 189.802 16.812C191.062 16.812 192.052 17.124 192.772 17.748C193.504 18.372 193.924 19.2 194.032 20.232H191.188C191.14 19.884 190.984 19.608 190.72 19.404C190.468 19.2 190.132 19.098 189.712 19.098C189.352 19.098 189.076 19.17 188.884 19.314C188.692 19.446 188.596 19.632 188.596 19.872C188.596 20.16 188.746 20.376 189.046 20.52C189.358 20.664 189.838 20.808 190.486 20.952C191.23 21.144 191.836 21.336 192.304 21.528C192.772 21.708 193.18 22.008 193.528 22.428C193.888 22.836 194.074 23.388 194.086 24.084C194.086 24.672 193.918 25.2 193.582 25.668C193.258 26.124 192.784 26.484 192.16 26.748C191.548 27.012 190.834 27.144 190.018 27.144Z"
                                    fill="white"
                                />
                                <defs>
                                    <linearGradient
                                        id="paint0_linear_153_3653"
                                        x1="18.4799"
                                        y1="2.42695"
                                        x2="49.1523"
                                        y2="40.6025"
                                        gradientUnits="userSpaceOnUse"
                                    >
                                        <stop stop-color="#AE54F9" />
                                        <stop offset="1" stop-color="#0EEDFF" />
                                    </linearGradient>
                                </defs>
                            </svg>