<svg
                                width="104"
                                height="104"
                                viewBox="0 0 104 104"
                                fill="none"
                                xmlns="http://www.w3.org/2000/svg"
                            >
                                <path
                                    fill-rule="evenodd"
                                    clip-rule="evenodd"
                                    d="M14.7353 0.305204C14.4872 0.478543 14.201 0.775839 14.0994 0.965638C13.9977 1.15564 13.1118 7.31779 12.131 14.6596C10.4167 27.4913 10.3611 28.0288 10.6955 28.538C11.402 29.6134 11.142 29.6272 23.6847 27.8487C30.1084 26.9377 35.8447 26.0975 36.4319 25.981C37.6499 25.7398 38.1141 25.255 38.1141 24.2239C38.1141 23.4872 38.1593 23.5437 33.8873 18.9473C32.5148 17.4706 31.392 16.1767 31.392 16.0721C31.392 15.9672 32.1941 15.4716 33.1744 14.9705C43.1003 9.89673 54.8398 9.04203 65.4803 12.6187C78.2002 16.8941 88.094 27.0942 92.0615 40.0224C94.1588 46.8568 94.3794 54.5873 92.6807 61.722C91.6993 65.8444 89.2307 71.5019 86.8981 74.9746C79.6371 85.7842 68.2953 92.4082 55.225 93.4732C53.664 93.6005 51.3294 93.638 49.8257 93.5602C47.4247 93.4358 47.1328 93.4584 46.7129 93.8004C46.0063 94.3763 45.9038 95.5009 46.496 96.1837C46.9266 96.6805 47.1814 96.7579 49.0121 96.9498C53.0601 97.3737 59.6178 96.7311 64.086 95.473C79.2597 91.2007 91.0077 79.7104 95.4325 64.8141C98.3194 55.0948 97.8462 44.8257 94.07 35.247C89.3466 23.2657 78.7704 13.2918 66.5897 9.3314C61.4338 7.65491 57.4781 7.02151 52.1695 7.02252C46.0208 7.02374 40.994 7.97131 35.3641 10.1906C31.7713 11.6067 27.6396 13.9424 26.9973 14.9205C26.4553 15.7455 26.9028 16.4807 29.9661 19.7979C31.4785 21.4358 32.7395 22.8402 32.7682 22.919C32.8385 23.1113 14.5219 25.6992 14.3444 25.5222C14.2676 25.4458 14.7979 20.9325 15.5224 15.4925L16.84 5.60208L19.7761 8.78903C23.3725 12.6925 23.3525 12.6842 25.6484 11.2584C32.0076 7.30966 38.1644 5.02679 45.4473 3.91747C48.321 3.47975 55.421 3.42997 58.1787 3.82806C66.4064 5.01623 73.1949 7.63479 79.8728 12.1961C91.0253 19.8136 98.6404 32.4157 100.364 46.1045C100.719 48.9306 100.764 54.8942 100.448 57.4083C99.6648 63.6369 97.9947 69.0602 95.2258 74.365C92.7602 79.0886 90.0569 82.7466 86.2794 86.4702C76.0895 96.5151 62.3407 101.521 48.1003 100.37C44.9448 100.115 44.8004 100.12 44.2893 100.501C43.6096 101.007 43.4293 101.53 43.6511 102.355C43.9041 103.295 44.5574 103.536 47.5862 103.803C60.8327 104.971 74.2275 100.907 84.7617 92.5234C87.3485 90.4645 91.3599 86.3519 93.3556 83.7126C98.8352 76.4654 101.973 69.2299 103.543 60.2222C103.942 57.9344 104 56.8875 104 52.0118C104 47.1362 103.942 46.0893 103.543 43.8015C101.962 34.7288 98.725 27.3277 93.1364 20.0068C91.309 17.6132 87.2067 13.4464 84.7617 11.5003C69.1176 -0.950432 47.7168 -3.49076 29.9661 4.99591C28.4536 5.71913 26.4905 6.73498 25.6036 7.25357L23.9913 8.19647L21.741 5.76973C16.2564 -0.14511 15.8422 -0.46801 14.7353 0.305204ZM51.0096 19.5821L50.438 20.0725L50.3787 35.7881C50.3462 44.4317 50.3755 51.8239 50.4439 52.2151C50.5494 52.8186 51.9006 54.2608 59.3642 61.7363C64.3125 66.6924 68.4454 70.6696 68.8123 70.8285C69.9958 71.3408 71.0951 70.604 71.1072 69.2902C71.1133 68.6288 70.571 68.0425 62.4564 59.9395L53.7991 51.2943V35.7288V20.1633L53.2621 19.6274C52.5848 18.952 51.7633 18.9353 51.0096 19.5821ZM6.20433 28.0688C5.42619 28.4445 3.28122 33.0808 3.28122 34.3872C3.28122 35.7912 5.13388 36.5309 6.07029 35.501C6.29905 35.2494 7.00304 33.8304 7.63472 32.3472C8.75487 29.7172 8.77585 29.6331 8.48639 28.9422C8.0794 27.9702 7.14726 27.6134 6.20433 28.0688ZM12.2543 31.132C11.7293 31.6772 10.4562 34.4748 9.59778 36.9688C8.94818 38.8564 8.96387 39.363 9.69536 40.0925C10.1608 40.5569 11.4755 40.5329 11.9118 40.0519C12.0998 39.8444 12.6539 38.6329 13.1426 37.3594C13.6315 36.0859 14.2701 34.5408 14.5618 33.9261C15.2362 32.5041 15.2356 31.8857 14.5589 31.2104C13.8708 30.5242 12.8719 30.4901 12.2543 31.132ZM1.86203 39.7812C1.24522 40.3966 1.05843 41.0724 0.531864 44.5947C0.00203699 48.1389 0.126091 48.9509 1.25724 49.3443C1.74124 49.5126 2.04842 49.4983 2.56337 49.2837C3.32909 48.9645 3.58982 48.3589 3.79495 46.4236C3.86604 45.753 4.10193 44.2313 4.31928 43.0421C4.75011 40.6837 4.67413 40.1039 3.85993 39.5349C3.17326 39.0552 2.50776 39.1373 1.86203 39.7812ZM7.99119 44.365C7.61272 44.767 7.48907 45.2801 7.24463 47.464C7.08371 48.9035 6.95089 50.7485 6.94987 51.5638C6.94804 52.8684 7.00793 53.1063 7.44792 53.5451C7.93986 54.036 8.77626 54.189 9.48493 53.9178C10.0333 53.7078 10.4108 52.7089 10.4124 51.4632C10.4134 50.8149 10.5034 49.5071 10.6126 48.5569C10.9654 45.4851 10.9394 44.9527 10.4083 44.389C9.76502 43.7058 8.62267 43.6944 7.99119 44.365ZM0.606418 53.6329L0 54.2378L0.137295 56.0206C0.212868 57.0011 0.442846 58.855 0.648584 60.1403C0.949043 62.0181 1.10936 62.5475 1.46461 62.8354C2.1466 63.3878 2.8123 63.4786 3.39386 63.0984C4.31907 62.4936 4.40422 62.0019 4.0396 59.3727C3.85789 58.0626 3.65195 56.4006 3.58229 55.6796C3.51242 54.9586 3.35536 54.1813 3.23314 53.9523C2.64974 52.8592 1.51981 52.7219 0.606418 53.6329ZM8.26273 58.2006C7.64999 58.8117 7.63675 59.3522 8.18573 61.3465C8.98363 64.2451 10.0256 66.8342 10.5643 67.2569C11.4502 67.9521 12.6478 67.6332 13.0825 66.5861C13.3113 66.0354 13.2503 65.7086 12.4926 63.4117C12.0279 62.0037 11.5034 60.3221 11.3268 59.6751C11.1502 59.0279 10.8261 58.3193 10.6065 58.1002C10.029 57.5241 8.89196 57.5729 8.26273 58.2006ZM3.28631 67.0443C2.55726 67.7716 2.57315 68.3453 3.38083 70.4566C4.57003 73.5658 5.7568 75.8506 6.35079 76.1744C7.34342 76.7153 8.78115 75.8848 8.78115 74.7702C8.78115 74.4763 8.33647 73.2361 7.79299 72.0144C7.24972 70.7925 6.6321 69.3026 6.42066 68.7035C5.90244 67.2347 5.32556 66.643 4.41135 66.643C3.96341 66.643 3.53564 66.7956 3.28631 67.0443ZM13.5793 70.758C12.6124 71.6068 12.6938 72.2136 14.0639 74.365C14.7402 75.4267 15.8245 76.9813 16.4739 77.8195C17.5735 79.2392 17.7126 79.3479 18.5028 79.4056C19.4557 79.4751 20.0804 79.0309 20.3092 78.1213C20.4536 77.547 20.4373 77.5182 17.5403 73.2739C15.4434 70.2016 14.7294 69.7482 13.5793 70.758ZM9.40712 79.5743C9.1749 79.8687 8.98485 80.3568 8.98485 80.659C8.98485 81.3408 11.1035 84.3253 13.0173 86.3395C14.6046 88.0099 15.1521 88.1585 16.1301 87.1829C17.0977 86.2176 16.9449 85.6293 15.2026 83.611C14.6237 82.9404 13.7089 81.7974 13.1697 81.0709C11.853 79.2969 11.5274 79.0388 10.6067 79.0388C10.0095 79.0388 9.73141 79.163 9.40712 79.5743ZM22.2664 81.6862C21.7479 82.168 21.5227 82.9008 21.7109 83.4928C21.8681 83.987 24.3531 86.2721 26.4695 87.8689C28.2093 89.1814 29.0349 89.3338 29.8734 88.4972C30.7968 87.5763 30.4688 86.585 28.8243 85.328C28.1737 84.8307 26.8197 83.7151 25.8152 82.849C23.8143 81.1235 23.1174 80.8951 22.2664 81.6862ZM18.7774 89.7348C18.3178 90.3176 18.2367 91.0378 18.5627 91.645C18.7939 92.0762 21.0965 93.8608 23.4894 95.4637C25.5867 96.8685 26.7439 96.8815 27.3147 95.5066C27.7113 94.5517 27.3029 93.8402 25.7957 92.8608C25.0929 92.4039 23.6652 91.3932 22.6232 90.6147C21.0643 89.4499 20.5936 89.1993 19.9641 89.1993C19.3807 89.1993 19.0994 89.3261 18.7774 89.7348ZM33.8486 89.5554C32.9835 89.9939 32.6712 90.7941 33.0289 91.6557C33.2267 92.1321 33.6561 92.4411 35.0272 93.0938C37.4378 94.2416 40.3322 95.2934 41.0833 95.2946C42.2718 95.2964 43.0288 93.8413 42.4248 92.7153C42.2841 92.4531 41.618 92.0676 40.7143 91.7256C39.9004 91.4176 38.2127 90.723 36.9638 90.1825C35.7149 89.6417 34.6608 89.1995 34.6212 89.1997C34.5817 89.1997 34.234 89.3599 33.8486 89.5554ZM31.261 96.5181C30.6756 96.7472 30.1698 97.5023 30.1698 98.1475C30.1698 99.2682 31.0842 99.8004 35.6241 101.322C37.392 101.915 38.4852 102.181 38.7814 102.091C39.9138 101.747 40.3982 100.629 39.8627 99.596C39.5954 99.0806 39.2497 98.8912 37.558 98.3338C36.4635 97.9731 34.9262 97.4291 34.1419 97.1251C32.3151 96.4171 31.7981 96.3082 31.261 96.5181Z"
                                    fill="url(#paint0_linear_87_1497)"
                                />
                                <defs>
                                    <linearGradient
                                        id="paint0_linear_87_1497"
                                        x1="94.721"
                                        y1="21.8451"
                                        x2="15.2226"
                                        y2="85.1287"
                                        gradientUnits="userSpaceOnUse"
                                    >
                                        <stop stop-color="#0EEDFF" />
                                        <stop offset="1" stop-color="#AB74F9" />
                                    </linearGradient>
                                </defs>
                            </svg>