<svg
                                width="71"
                                height="92"
                                viewBox="0 0 71 92"
                                fill="none"
                                xmlns="http://www.w3.org/2000/svg"
                            >
                                <path
                                    d="M62.5476 0H8.45238C3.78624 0.00524089 0.00577801 3.43428 0 7.66667V84.3333C0.00577801 88.5657 3.78624 91.9948 8.45238 92H62.5476C67.2138 91.9948 70.9942 88.5657 71 84.3333V7.66667C70.9942 3.43428 67.2138 0.00524089 62.5476 0ZM3.38095 12.2667H67.619V76.6667H3.38095V12.2667ZM8.45238 3.06667H62.5476C65.3483 3.06667 67.619 5.12633 67.619 7.66667V9.2H3.38095V7.66667C3.38095 5.12633 5.6517 3.06667 8.45238 3.06667ZM62.5476 88.9333H8.45238C5.6517 88.9333 3.38095 86.8737 3.38095 84.3333V79.7333H67.619V84.3333C67.619 86.8737 65.3483 88.9333 62.5476 88.9333Z"
                                    fill="url(#paint0_linear_0_1)"
                                />
                                <path
                                    d="M40.375 83H30.625C29.7276 83 29 83.6716 29 84.5C29 85.3284 29.7276 86 30.625 86H40.375C41.2724 86 42 85.3284 42 84.5C42 83.6716 41.2724 83 40.375 83Z"
                                    fill="url(#paint1_linear_0_1)"
                                />
                                <path
                                    d="M52.5 36.3529V28.7059C52.4925 22.7958 47.1692 18.0067 40.6 18H30.4C23.8308 18.0067 18.5075 22.7958 18.5 28.7059V36.3529C13.8076 36.3582 10.0058 39.7784 10 44V62.3529C10.0058 66.5745 13.8076 69.9948 18.5 70H52.5C57.1924 69.9948 60.9942 66.5745 61 62.3529V44C60.9942 39.7784 57.1924 36.3582 52.5 36.3529ZM21.9 28.7059C21.9058 24.4843 25.7076 21.0641 30.4 21.0588H40.6C45.2924 21.0641 49.0942 24.4843 49.1 28.7059V36.3529H21.9V28.7059ZM57.6 62.3529C57.6 64.8868 55.3165 66.9412 52.5 66.9412H18.5C15.6835 66.9412 13.4 64.8868 13.4 62.3529V44C13.4 41.4662 15.6835 39.4118 18.5 39.4118H52.5C55.3165 39.4118 57.6 41.4662 57.6 44V62.3529Z"
                                    fill="url(#paint2_linear_0_1)"
                                />
                                <path
                                    d="M37.6664 52.2685V47.4982C37.6664 46.6708 36.9203 46 36 46C35.0797 46 34.3336 46.6708 34.3336 47.4982V52.2685C32.0383 52.9978 30.6607 55.1083 31.0724 57.2655C31.4842 59.4236 33.5655 61 36 61C38.4345 61 40.5158 59.4236 40.9276 57.2655C41.3393 55.1083 39.9617 52.9978 37.6664 52.2685ZM36 57.9854C35.0797 57.9854 34.3336 57.3146 34.3336 56.4872C34.3336 55.6598 35.0797 54.989 36 54.989C36.9203 54.989 37.6664 55.6598 37.6664 56.4872C37.6664 57.3146 36.9203 57.9854 36 57.9854Z"
                                    fill="url(#paint3_linear_0_1)"
                                />
                                <defs>
                                    <linearGradient
                                        id="paint0_linear_0_1"
                                        x1="35.5"
                                        y1="-9.2"
                                        x2="35.5"
                                        y2="96.6997"
                                        gradientUnits="userSpaceOnUse"
                                    >
                                        <stop stop-color="#0EEDFF" />
                                        <stop offset="1" stop-color="#AB74F9" />
                                    </linearGradient>
                                    <linearGradient
                                        id="paint1_linear_0_1"
                                        x1="35.5"
                                        y1="-7"
                                        x2="35.5"
                                        y2="96.5975"
                                        gradientUnits="userSpaceOnUse"
                                    >
                                        <stop stop-color="#0EEDFF" />
                                        <stop offset="1" stop-color="#AB74F9" />
                                    </linearGradient>
                                    <linearGradient
                                        id="paint2_linear_0_1"
                                        x1="35.5"
                                        y1="-9.52941"
                                        x2="35.5"
                                        y2="96.0994"
                                        gradientUnits="userSpaceOnUse"
                                    >
                                        <stop stop-color="#0EEDFF" />
                                        <stop offset="1" stop-color="#AB74F9" />
                                    </linearGradient>
                                    <linearGradient
                                        id="paint3_linear_0_1"
                                        x1="36"
                                        y1="-7.93416"
                                        x2="36"
                                        y2="95.537"
                                        gradientUnits="userSpaceOnUse"
                                    >
                                        <stop stop-color="#0EEDFF" />
                                        <stop offset="1" stop-color="#AB74F9" />
                                    </linearGradient>
                                </defs>
                            </svg>