<svg
                                        width="40"
                                        height="40"
                                        viewBox="0 0 40 40"
                                        fill="none"
                                        xmlns="http://www.w3.org/2000/svg"
                                    >
                                        <path
                                            fill-rule="evenodd"
                                            clip-rule="evenodd"
                                            d="M23.6337 10.1045C23.6337 10.1619 23.4609 10.2413 23.2496 10.281C23.0384 10.3206 22.8385 10.3967 22.8055 10.45C22.7726 10.5034 22.6501 10.547 22.5332 10.547C22.4164 10.547 22.3209 10.5963 22.3209 10.6564C22.3209 10.7166 22.2493 10.7658 22.1618 10.7658C21.9445 10.7658 20.5704 12.1278 20.5704 12.3432C20.5704 12.4384 20.5212 12.5163 20.461 12.5163C20.4008 12.5163 20.3516 12.6163 20.3516 12.7385C20.3516 12.8608 20.2777 12.9892 20.1875 13.0237C20.0862 13.0627 20.0234 13.2289 20.0234 13.458C20.0234 13.6621 19.9741 13.8292 19.914 13.8292C19.8479 13.8292 19.8046 14.2876 19.8046 14.9857V16.1422L18.8473 16.094C17.8152 16.0419 16.7412 15.828 16.7412 15.6745C16.7412 15.6223 16.5689 15.5797 16.3583 15.5797C16.1477 15.5797 15.9754 15.5304 15.9754 15.4703C15.9754 15.4101 15.8909 15.3609 15.7875 15.3609C15.5129 15.3609 14.6625 15.0189 14.6625 14.9084C14.6625 14.8564 14.564 14.8138 14.4437 14.8138C14.3234 14.8138 14.2249 14.7646 14.2249 14.7044C14.2249 14.6442 14.1018 14.595 13.9514 14.595C13.8009 14.595 13.6779 14.5458 13.6779 14.4856C13.6779 14.4254 13.6158 14.3762 13.54 14.3762C13.4642 14.3762 13.2693 14.2531 13.1071 14.1027C12.945 13.9523 12.7485 13.8291 12.6707 13.8291C12.548 13.829 12.3517 13.6908 11.7405 13.1749C11.6679 13.1136 11.5782 13.0633 11.5413 13.0633C11.4302 13.0633 11.1615 12.7592 11.1615 12.6335C11.1615 12.5691 11.1108 12.5163 11.0488 12.5163C10.8949 12.5163 9.62988 11.2449 9.62988 11.0903C9.62988 10.8678 9.35997 11.048 9.20265 11.3757C9.11808 11.5517 9.00725 11.7122 8.95649 11.7322C8.90561 11.7523 8.86404 12.1052 8.86404 12.5163C8.86404 13.0074 8.81711 13.2858 8.72728 13.3278C8.61788 13.3788 8.61788 13.4044 8.72728 13.4553C8.81732 13.4975 8.86404 13.7775 8.86404 14.2759C8.86404 14.6922 8.90244 15.0326 8.94938 15.0326C8.99631 15.0326 9.13022 15.2788 9.24696 15.5797C9.36369 15.8805 9.49761 16.1267 9.54454 16.1267C9.59148 16.1267 9.62988 16.1978 9.62988 16.2848C9.62988 16.3716 9.88195 16.6909 10.1901 16.9943C10.636 17.4331 10.7141 17.5596 10.5728 17.6138C10.3698 17.6917 9.08285 17.3343 9.08285 17.2001C9.08285 17.1513 8.98439 17.1113 8.86404 17.1113C8.68691 17.1113 8.64523 17.1843 8.64523 17.4943C8.64523 17.7049 8.69446 17.8772 8.75464 17.8772C8.81481 17.8772 8.86404 18.0987 8.86404 18.3695C8.86404 18.6403 8.90791 18.8618 8.96163 18.8618C9.01524 18.8618 9.09007 18.9849 9.12782 19.1353C9.16556 19.2858 9.24477 19.4088 9.30374 19.4088C9.36282 19.4088 9.41107 19.5073 9.41107 19.6277C9.41107 19.748 9.4603 19.8465 9.52047 19.8465C9.58064 19.8465 9.62988 19.9023 9.62988 19.9705C9.62988 20.0979 10.657 21.1593 10.7803 21.1593C10.818 21.1593 10.9176 21.2209 11.0015 21.2961C11.3909 21.6453 11.4955 21.7064 11.704 21.7064C11.8268 21.7064 11.9274 21.7556 11.9274 21.8158C11.9274 21.8759 12.0258 21.9252 12.1462 21.9252C12.407 21.9252 12.4364 22.0932 12.1919 22.187C12.0967 22.2235 11.7029 22.2534 11.3167 22.2534C10.6961 22.2534 10.6145 22.2779 10.6145 22.4644C10.6145 22.5804 10.6819 22.7427 10.7642 22.825C10.8466 22.9074 10.95 23.0886 10.9942 23.2276C11.096 23.5485 12.5308 24.9885 12.7487 24.9885C12.8385 24.9885 12.912 25.0377 12.912 25.0979C12.912 25.1581 13.0227 25.2091 13.1582 25.2111C13.2936 25.2133 13.5274 25.2854 13.6779 25.3714C13.8283 25.4574 14.0621 25.5295 14.1975 25.5317C14.333 25.5338 14.4437 25.5848 14.4437 25.6449C14.4437 25.7051 14.5668 25.7543 14.7172 25.7543C14.8676 25.7543 14.9907 25.8036 14.9907 25.8637C14.9907 25.9239 14.938 25.9732 14.8736 25.9732C14.809 25.9732 14.6877 26.0347 14.6038 26.1099C14.2144 26.4591 14.1098 26.5202 13.9013 26.5202C13.7784 26.5202 13.6775 26.557 13.6772 26.6022C13.6762 26.7123 13.0436 27.0672 12.8485 27.0672C12.7631 27.0672 12.6932 27.1164 12.6932 27.1766C12.6932 27.2368 12.5209 27.286 12.3103 27.286C12.0997 27.286 11.9274 27.3352 11.9274 27.3954C11.9274 27.4556 11.7857 27.5048 11.6125 27.5048C11.4393 27.5048 11.121 27.5787 10.9049 27.6689C10.6296 27.7839 10.1184 27.833 9.19576 27.833C8.39108 27.833 7.87939 27.8756 7.87939 27.9424C7.87939 28.0026 7.9737 28.0518 8.08912 28.0518C8.20444 28.0518 8.31516 28.0887 8.33529 28.1339C8.38386 28.2432 9.54192 28.8177 9.71368 28.8177C9.78797 28.8177 9.84869 28.8669 9.84869 28.9271C9.84869 28.9873 9.97177 29.0365 10.1222 29.0365C10.2726 29.0365 10.3957 29.0857 10.3957 29.1459C10.3957 29.2061 10.5312 29.2556 10.6966 29.256C10.862 29.2564 11.1385 29.3302 11.3108 29.4201C11.4832 29.51 11.7416 29.5835 11.8852 29.5835C12.0287 29.5835 12.1462 29.6286 12.1462 29.6836C12.1462 29.9015 17.2276 30.1255 17.4363 29.9169C17.4993 29.8539 17.861 29.8023 18.2401 29.8023C18.6266 29.8023 18.9293 29.7543 18.9293 29.6929C18.9293 29.6328 19.0648 29.5818 19.2302 29.5797C19.3956 29.5775 19.6541 29.5054 19.8046 29.4194C19.955 29.3334 20.1888 29.2613 20.3242 29.2591C20.4597 29.2571 20.5704 29.2061 20.5704 29.1459C20.5704 29.0857 20.7427 29.0365 20.9533 29.0365C21.1639 29.0365 21.3366 28.9996 21.3369 28.9544C21.3379 28.8444 21.9704 28.4895 22.1656 28.4895C22.251 28.4895 22.3209 28.4402 22.3209 28.3801C22.3209 28.3199 22.4193 28.2707 22.5397 28.2707C22.66 28.2707 22.7585 28.2214 22.7585 28.1613C22.7585 28.1011 22.8323 28.0518 22.9226 28.0518C23.0129 28.0518 23.0867 28.0138 23.0867 27.9673C23.0867 27.9208 23.259 27.79 23.4696 27.6766C23.6802 27.5631 23.8525 27.4289 23.8525 27.3782C23.8525 27.3275 23.9141 27.2858 23.9893 27.2856C24.0646 27.2852 24.3701 27.0637 24.6685 26.7933C24.9668 26.5227 25.2499 26.3014 25.2976 26.3014C25.3453 26.3014 25.3842 26.2486 25.3842 26.1842C25.3842 26.0327 25.6625 25.7543 25.8141 25.7543C25.8785 25.7543 25.9312 25.7124 25.9312 25.6611C25.9312 25.6099 26.0789 25.4134 26.2595 25.2245C26.44 25.0357 26.5877 24.8367 26.5877 24.7824C26.5877 24.7281 26.6615 24.6554 26.7518 24.6207C26.842 24.5861 26.9159 24.4824 26.9159 24.3902C26.9159 24.2981 26.9574 24.2227 27.0081 24.2227C27.0588 24.2227 27.193 24.0504 27.3065 23.8398C27.4199 23.6291 27.5507 23.4568 27.5972 23.4568C27.6437 23.4568 27.6817 23.383 27.6817 23.2927C27.6817 23.2025 27.731 23.1286 27.7911 23.1286C27.8513 23.1286 27.9005 23.0302 27.9005 22.9098C27.9005 22.7895 27.9498 22.691 28.0099 22.691C28.0701 22.691 28.1193 22.6154 28.1193 22.5231C28.1193 22.3661 28.413 21.8286 28.5655 21.7064C28.6311 21.6537 28.7211 21.3334 28.8495 20.6944C28.8828 20.5289 28.9506 20.3935 29.0003 20.3935C29.0499 20.3935 29.1238 20.1719 29.1644 19.9012C29.205 19.6304 29.2819 19.4088 29.3353 19.4088C29.3886 19.4088 29.4322 19.1873 29.4322 18.9165C29.4322 18.6457 29.4759 18.4242 29.5293 18.4242C29.6253 18.4242 29.6987 17.7875 29.8288 15.8258C29.8658 15.2692 29.9381 14.8138 29.9896 14.8138C30.1201 14.8138 31.9485 12.9896 31.9485 12.8594C31.9485 12.8011 32.0101 12.7286 32.0853 12.6982C32.1606 12.6678 32.1113 12.6391 31.9759 12.6344C31.8404 12.6297 31.7297 12.675 31.7297 12.7351C31.7297 12.7953 31.5574 12.8445 31.3468 12.8445C31.1362 12.8445 30.9639 12.8938 30.9639 12.9539C30.9639 13.0141 30.6931 13.0633 30.3622 13.0633C29.7732 13.0633 29.565 12.9127 29.9499 12.765C30.2263 12.6589 30.9639 11.8779 30.9639 11.6914C30.9639 11.6036 31.0131 11.5317 31.0733 11.5317C31.1335 11.5317 31.1827 11.462 31.1827 11.3766C31.1827 11.2914 31.2243 11.2053 31.2751 11.1852C31.4165 11.1295 31.5338 10.547 31.4036 10.547C31.3423 10.547 31.2921 10.5963 31.2921 10.6564C31.2921 10.7166 31.1743 10.7658 31.0303 10.7658C30.8863 10.7658 30.7401 10.8397 30.7055 10.9299C30.6709 11.0202 30.5426 11.0941 30.4202 11.0941C30.298 11.0941 30.198 11.1433 30.198 11.2035C30.198 11.2636 30.0257 11.3129 29.8151 11.3129C29.6045 11.3129 29.4322 11.3621 29.4322 11.4223C29.4322 11.4824 29.1885 11.5317 28.8904 11.5317C28.4151 11.5317 28.3031 11.4847 27.9768 11.1488C27.7723 10.9381 27.5484 10.7658 27.4792 10.7658C27.4101 10.7658 27.3535 10.7166 27.3535 10.6564C27.3535 10.5963 27.258 10.547 27.1412 10.547C27.0243 10.547 26.901 10.5021 26.8671 10.4471C26.8331 10.3922 26.6087 10.314 26.3683 10.2734C26.128 10.2328 25.9312 10.1547 25.9312 10.0998C25.9312 10.0449 25.4143 10 24.7825 10C24.1259 10 23.6337 10.0447 23.6337 10.1045Z"
                                            fill="white"
                                        />
                                        <rect
                                            x="0.5"
                                            y="0.5"
                                            width="39"
                                            height="39"
                                            rx="15.5"
                                            stroke="url(#paint0_linear_49_9)"
                                            stroke-opacity="0.4"
                                        />
                                        <defs>
                                            <linearGradient
                                                id="paint0_linear_49_9"
                                                x1="52.8155"
                                                y1="-5.24272"
                                                x2="-6.60194"
                                                y2="40"
                                                gradientUnits="userSpaceOnUse"
                                            >
                                                <stop stop-color="#0EEDFF" />
                                                <stop offset="1" stop-color="#AB74F9" />
                                            </linearGradient>
                                        </defs>
                                    </svg>