<svg
                                width="111"
                                height="100"
                                viewBox="0 0 111 100"
                                fill="none"
                                xmlns="http://www.w3.org/2000/svg"
                            >
                                <path
                                    fill-rule="evenodd"
                                    clip-rule="evenodd"
                                    d="M7.06902 0.0851818C4.55176 0.508084 1.9571 2.45378 0.894164 4.71533C-0.0623933 6.75059 0.000863097 4.48962 0.000863097 36.6731C0.000863097 68.8565 -0.0623933 66.5955 0.894164 68.6308C1.27399 69.4388 1.66881 69.9763 2.485 70.7965C3.56207 71.8787 4.34585 72.3776 5.92355 72.9848L6.71204 73.2883L28.1626 73.3269C51.9831 73.3697 50.7141 73.4169 52.7443 72.4137C53.4521 72.064 54.1117 71.5818 54.756 70.9429C55.8058 69.9017 56.3302 69.092 56.8918 67.6448L57.2601 66.6961V39.3763C57.2828 24.7159 57.3025 13.1613 57.2532 12.8875C57.1776 12.4663 56.2407 11.4737 51.1663 6.43861C47.8677 3.16559 44.9668 0.374808 44.7197 0.236945C44.2979 0.0014898 43.1482 -0.0126977 25.8483 0.00564575C15.716 0.0163939 7.26536 0.0522209 7.06902 0.0851818ZM48.6822 8.74415L54.0473 14.0629L54.0464 39.3763C54.046 54.7421 53.9922 65.0176 53.9095 65.524C53.6183 67.3079 52.5697 68.7571 51.0487 69.4772L50.2633 69.8489H28.6305H6.99763L6.28367 69.4907C5.42621 69.0604 4.34471 68.0199 3.95817 67.2535C3.80367 66.9469 3.60505 66.3544 3.51681 65.9368C3.28906 64.8578 3.28877 8.48978 3.51667 7.40938C3.70572 6.51256 3.95261 5.99049 4.54548 5.23353C5.03682 4.60627 6.20899 3.80245 6.93965 3.59165C7.24423 3.5038 14.1339 3.44662 25.3716 3.43845L43.3171 3.42555L48.6822 8.74415ZM15.7656 13.839C15.0236 14.3012 14.9968 14.4375 14.9534 17.9713C14.9068 21.7518 14.9741 22.051 15.9815 22.5446C16.489 22.7932 16.5935 22.7998 17.1109 22.6162C17.4245 22.5049 17.8155 22.2319 17.9795 22.0095C18.2627 21.6257 18.2781 21.4297 18.2781 18.1979C18.2781 15.6393 18.2309 14.7022 18.0885 14.4349C17.6784 13.6654 16.5209 13.3684 15.7656 13.839ZM27.0375 13.9236C26.3779 14.4832 26.3458 14.6816 26.3458 18.1906C26.3458 21.8819 26.3997 22.1313 27.2892 22.5549C27.8688 22.8309 28.1131 22.8279 28.7223 22.5379C29.583 22.128 29.63 21.8947 29.63 18.0312V14.5658L29.1201 14.0831C28.482 13.4791 27.6376 13.4144 27.0375 13.9236ZM38.2674 14.0748C37.6509 14.6936 37.5926 15.1288 37.6509 18.6896C37.6951 21.3976 37.7154 21.579 38.0214 22.0095C38.3915 22.5301 39.1519 22.8364 39.7486 22.7048C39.9729 22.6554 40.3422 22.4205 40.5691 22.1829L40.9819 21.7508L41.0249 18.3935C41.0726 14.6741 40.9908 14.2276 40.1844 13.8091C39.4822 13.4447 38.8012 13.5391 38.2674 14.0748ZM9.12521 30.7114L8.63972 31.1987V46.9702C8.63972 58.5835 8.68313 62.8374 8.80451 63.1047C8.89518 63.3043 9.13607 63.5815 9.33997 63.7205C9.68852 63.9582 10.8004 63.9757 27.9879 64.0147C38.0404 64.0375 46.4849 64.0164 46.7537 63.9678C47.031 63.9177 47.4168 63.6918 47.6461 63.4455L48.0501 63.0114V47.3437C48.0501 37.3528 47.9988 31.5408 47.9087 31.3029C47.831 31.0977 47.5967 30.7711 47.3881 30.577L47.0088 30.2242H28.3098H9.6107L9.12521 30.7114ZM44.6231 47.0629V60.6055H28.2735H11.9239V47.0629V33.5203H28.2735H44.6231V47.0629Z"
                                    fill="url(#paint0_linear_0_1)"
                                />
                                <path
                                    fill-rule="evenodd"
                                    clip-rule="evenodd"
                                    d="M60.7585 26.7405C58.2412 27.1634 55.6466 29.1091 54.5836 31.3706C53.6271 33.4059 53.6903 31.1449 53.6903 63.3283C53.6903 95.5118 53.6271 93.2508 54.5836 95.2861C54.9634 96.0941 55.3583 96.6316 56.1745 97.4518C57.2515 98.534 58.0353 99.0329 59.613 99.6401L60.4015 99.9436L81.852 99.9821C105.673 100.025 104.404 100.072 106.434 99.069C107.142 98.7193 107.801 98.2371 108.445 97.5982C109.495 96.5569 110.02 95.7472 110.581 94.3001L110.95 93.3514L110.991 66.6961C111.014 52.0356 110.992 39.8166 110.943 39.5428C110.867 39.1216 109.93 38.129 104.856 33.0939C101.557 29.8209 98.6562 27.0301 98.4092 26.8922C97.9874 26.6568 96.8376 26.6426 79.5378 26.6609C69.4055 26.6717 60.9548 26.7075 60.7585 26.7405ZM102.372 35.3994L107.737 40.7182L107.736 66.0316C107.735 81.3974 107.682 91.6729 107.599 92.1793C107.308 93.9632 106.259 95.4123 104.738 96.1325L103.953 96.5042H82.3199H60.6871L59.9731 96.1459C59.1157 95.7157 58.0342 94.6752 57.6476 93.9087C57.4931 93.6022 57.2945 93.0096 57.2063 92.592C56.9785 91.5131 56.9782 35.1451 57.2061 34.0647C57.3952 33.1678 57.6421 32.6458 58.2349 31.8888C58.7263 31.2615 59.8984 30.4577 60.6291 30.2469C60.9337 30.1591 67.8234 30.1019 79.061 30.0937L97.0066 30.0808L102.372 35.3994ZM69.455 40.4943C68.7131 40.9565 68.6862 41.0928 68.6428 44.6266C68.5963 48.4071 68.6635 48.7063 69.6709 49.1999C70.1784 49.4485 70.2829 49.4551 70.8004 49.2715C71.114 49.1602 71.5049 48.8872 71.669 48.6648C71.9522 48.281 71.9676 48.0849 71.9676 44.8532C71.9676 42.2946 71.9203 41.3575 71.778 41.0902C71.3679 40.3206 70.2104 40.0237 69.455 40.4943ZM80.727 40.5789C80.0674 41.1385 80.0353 41.3368 80.0353 44.8459C80.0353 48.5372 80.0891 48.7866 80.9787 49.2102C81.5583 49.4862 81.8026 49.4832 82.4117 49.1931C83.2725 48.7833 83.3195 48.55 83.3195 44.6865V41.221L82.8096 40.7384C82.1714 40.1343 81.3271 40.0697 80.727 40.5789ZM91.9569 40.7301C91.3403 41.3489 91.2821 41.7841 91.3403 45.3449C91.3846 48.0528 91.4049 48.2343 91.7109 48.6648C92.081 49.1854 92.8414 49.4916 93.4381 49.3601C93.6624 49.3106 94.0317 49.0758 94.2586 48.8382L94.6714 48.4061L94.7143 45.0488C94.762 41.3294 94.6802 40.8828 93.8739 40.4644C93.1716 40.0999 92.4907 40.1944 91.9569 40.7301ZM62.8147 57.3667L62.3292 57.854V73.6255C62.3292 85.2387 62.3726 89.4927 62.494 89.76C62.5846 89.9596 62.8255 90.2368 63.0294 90.3758C63.378 90.6135 64.4899 90.631 81.6774 90.67C91.7299 90.6928 100.174 90.6717 100.443 90.6231C100.72 90.573 101.106 90.3471 101.336 90.1008L101.74 89.6667V73.9989C101.74 64.0081 101.688 58.196 101.598 57.9582C101.52 57.7529 101.286 57.4263 101.078 57.2323L100.698 56.8795H81.9992H63.3002L62.8147 57.3667ZM98.3125 73.7182V87.2608H81.963H65.6134V73.7182V60.1756H81.963H98.3125V73.7182Z"
                                    fill="url(#paint1_linear_0_1)"
                                />
                                <defs>
                                    <linearGradient
                                        id="paint0_linear_0_1"
                                        x1="28.6553"
                                        y1="0"
                                        x2="28.6553"
                                        y2="73.3447"
                                        gradientUnits="userSpaceOnUse"
                                    >
                                        <stop stop-color="#0EEDFF" />
                                        <stop offset="1" stop-color="#AB74F9" />
                                    </linearGradient>
                                    <linearGradient
                                        id="paint1_linear_0_1"
                                        x1="82.3447"
                                        y1="26.6553"
                                        x2="82.3447"
                                        y2="100"
                                        gradientUnits="userSpaceOnUse"
                                    >
                                        <stop stop-color="#0EEDFF" />
                                        <stop offset="1" stop-color="#AB74F9" />
                                    </linearGradient>
                                </defs>
                            </svg>