 <svg
                                        width="40"
                                        height="40"
                                        viewBox="0 0 40 40"
                                        fill="none"
                                        xmlns="http://www.w3.org/2000/svg"
                                    >
                                        <path
                                            fill-rule="evenodd"
                                            clip-rule="evenodd"
                                            d="M17.9757 12.8991C17.5002 12.9336 16.8974 13.0256 16.6562 13.1004C16.242 13.2289 15.7259 13.6871 15.8213 13.8416C15.8389 13.87 15.935 13.9084 16.0348 13.9269C16.483 14.0101 16.8611 14.2644 17.0306 14.5966C17.3202 15.1644 17.4505 16.9403 17.2947 18.1976C17.1917 19.0286 17.1482 19.2213 16.9955 19.5226C16.5859 20.3309 15.6451 19.6765 14.6083 17.8622C14.2394 17.2166 13.201 15.1444 12.9693 14.5915C12.6893 13.9232 12.6007 13.8001 12.2823 13.6381L12.0135 13.5014L9.98542 13.5159C8.15397 13.5291 7.94197 13.5389 7.79893 13.617C7.57217 13.741 7.47531 13.9102 7.50532 14.1302C7.53743 14.3659 8.30664 16.0756 8.87348 17.1713C9.97707 19.3044 10.9118 20.8534 11.9109 22.2049C13.3805 24.1927 14.0307 24.8376 15.5322 25.797C16.2333 26.2449 16.7393 26.4955 17.3648 26.7045C18.2243 26.9917 18.5984 27.047 19.8816 27.0764C21.1586 27.1056 21.5255 27.0688 21.7961 26.8842C22.019 26.7321 22.0879 26.5224 22.1295 25.8702C22.1706 25.2265 22.2963 24.6746 22.4691 24.3798C22.6215 24.1196 22.9528 23.8192 23.095 23.8122C23.591 23.7878 23.8687 23.9939 24.9049 25.1554C25.8764 26.2444 26.2355 26.5649 26.7723 26.8219C27.0142 26.9377 27.3111 27.0552 27.432 27.083C27.7252 27.1502 31.6833 27.0746 31.9388 26.9969C32.1918 26.9198 32.4644 26.6525 32.4706 26.4753C32.4876 25.9901 32.417 25.7715 32.0776 25.259C31.6315 24.5853 31.2482 24.1551 29.9435 22.8635C28.5581 21.492 28.4613 21.3643 28.4594 20.9055C28.4577 20.5203 28.6377 20.2243 29.8541 18.613C31.5699 16.3399 32.2569 15.242 32.4479 14.468C32.56 14.014 32.4962 13.795 32.2071 13.6404L32.0014 13.5305L29.5334 13.5469C27.7888 13.5585 27.0302 13.58 26.9451 13.6202C26.7795 13.6985 26.6039 13.9838 26.3839 14.5323C25.7977 15.9934 24.5908 18.0983 23.7955 19.0466C23.4789 19.424 22.987 19.8103 22.8229 19.8103C22.5939 19.8103 22.405 19.6624 22.2618 19.3708L22.1296 19.1017L22.143 16.5644C22.1574 13.8358 22.1512 13.7552 21.8987 13.395C21.65 13.0401 21.0436 12.9184 19.4173 12.8971C18.7588 12.8884 18.1101 12.8893 17.9757 12.8991Z"
                                            fill="white"
                                        />
                                        <rect
                                            x="0.5"
                                            y="0.5"
                                            width="39"
                                            height="39"
                                            rx="15.5"
                                            stroke="url(#paint0_linear_49_15)"
                                            stroke-opacity="0.4"
                                        />
                                        <defs>
                                            <linearGradient
                                                id="paint0_linear_49_15"
                                                x1="52.8155"
                                                y1="-5.24272"
                                                x2="-6.60194"
                                                y2="40"
                                                gradientUnits="userSpaceOnUse"
                                            >
                                                <stop stop-color="#0EEDFF" />
                                                <stop offset="1" stop-color="#AB74F9" />
                                            </linearGradient>
                                        </defs>
                                    </svg>