<svg width="26" height="26" viewBox="0 0 26 26" fill="none" xmlns="http://www.w3.org/2000/svg">
<path d="M15.2916 13.0035L25.5045 2.79032C25.6595 2.64061 25.7831 2.46152 25.8682 2.26352C25.9532 2.06551 25.998 1.85255 25.9999 1.63705C26.0018 1.42156 25.9607 1.20785 25.8791 1.00839C25.7975 0.80894 25.677 0.627734 25.5246 0.475351C25.3722 0.322968 25.191 0.202459 24.9915 0.120855C24.7921 0.0392518 24.5784 -0.00181131 24.3629 6.12778e-05C24.1474 0.00193387 23.9344 0.0467051 23.7364 0.131762C23.5384 0.21682 23.3593 0.34046 23.2096 0.495468L12.9963 10.7083L2.78338 0.495468C2.47791 0.196703 2.06693 0.0304581 1.63965 0.0328112C1.21236 0.0351644 0.803245 0.205926 0.501078 0.508037C0.198911 0.810148 0.0280773 1.21923 0.0256486 1.64651C0.0232199 2.07379 0.189393 2.48479 0.488106 2.79032L10.7014 13.0035L0.488106 23.2168C0.334644 23.3669 0.21248 23.5459 0.12869 23.7435C0.044899 23.9412 0.00114573 24.1535 -3.64222e-05 24.3681C-0.00121857 24.5828 0.040194 24.7955 0.121803 24.9941C0.203412 25.1926 0.323595 25.373 0.475395 25.5247C0.627195 25.6765 0.807596 25.7967 1.00615 25.8782C1.20471 25.9598 1.41747 26.0012 1.63213 26C1.84678 25.9988 2.05906 25.955 2.25668 25.8711C2.45429 25.7873 2.63332 25.6651 2.78338 25.5116L12.9963 15.2988L23.2096 25.5116C23.5265 25.8285 23.942 25.9872 24.357 25.9872C24.7721 25.9872 25.188 25.8285 25.5045 25.5116C25.8087 25.2073 25.9796 24.7946 25.9796 24.3642C25.9796 23.9339 25.8087 23.5211 25.5045 23.2168L15.2916 13.0035Z" fill="white"/>
</svg>
