 <svg
                                    width="261"
                                    height="368"
                                    viewBox="0 0 261 368"
                                    fill="none"
                                    xmlns="http://www.w3.org/2000/svg"
                                >
                                    <path
                                        d="M193.013 171.465L219 182.175C217.654 182.538 216.328 182.951 214.991 183.334L211.033 184.592C208.39 185.427 205.767 186.341 203.154 187.255C200.542 188.188 197.929 189.121 195.347 190.133C192.803 191.116 190.251 192.118 187.748 193.209C186.352 184.386 184.258 174.963 181.515 172.772L193.013 171.465ZM219 182.175V200.372C214.194 202.572 203.424 206.051 189.832 210.04C189.832 210.04 189.124 201.924 187.748 193.228C190.39 192.501 193.013 191.686 195.606 190.841C198.248 190.006 200.871 189.092 203.483 188.178C206.096 187.245 208.709 186.311 211.292 185.299L215.161 183.786C216.437 183.246 217.734 182.745 219 182.175ZM32.513 191.794C33.5 191.499 34.4675 191.175 35.4247 190.792L34.0984 195.98C32.8083 194.727 31.4395 193.555 30 192.472C30.8375 192.266 31.6852 192.049 32.513 191.794Z"
                                        fill="url(#paint0_linear_258_545)"
                                    />
                                    <path
                                        d="M120.915 211.198C107.041 208.981 69.0902 196.726 62.258 191.568C57.2311 187.767 51.4761 181.54 50.7281 166.691C49.6313 173.452 48.5044 180.213 47.3473 186.975L47.3074 187.212C48.156 186.737 49.0698 186.387 50.02 186.173C51.0878 185.903 52.1943 185.815 53.2917 185.915C52.3562 186.493 51.3269 186.905 50.2494 187.133C49.2787 187.375 48.2764 187.469 47.2772 187.41L44.5543 203.101C47.038 204.774 49.5013 206.457 51.9349 208.189L55.7652 210.902L59.5653 213.663C62.0987 215.505 64.6419 217.326 67.1354 219.227C69.6289 221.118 72.152 222.959 74.6256 224.889L74.6358 224.899C74.6907 224.949 74.729 225.015 74.7454 225.087C76.6603 224.543 78.5957 224.038 80.5203 223.513L86.6741 221.949C90.7835 220.92 94.9026 219.969 99.012 218.979C103.151 218.059 107.271 217.099 111.41 216.227C115.549 215.346 119.688 214.485 123.857 213.733C119.788 214.881 115.678 215.93 111.579 216.96C107.48 217.999 103.351 218.94 99.2414 219.94C95.112 220.85 90.9929 221.811 86.8538 222.692L80.6401 223.989C78.675 224.365 76.7202 224.761 74.7556 225.117C74.7556 225.127 74.7755 225.137 74.7755 225.147C75.1344 229.136 75.4734 233.126 75.713 237.125C75.0843 233.225 74.5559 229.314 74.0474 225.394C71.5237 223.622 69.0605 221.781 66.567 219.979C64.0233 218.158 61.5299 216.257 59.0266 214.386L55.2665 211.565L51.556 208.694C49.192 206.882 46.8582 205.021 44.5445 203.14L43.7463 207.754C43.7262 207.865 43.6625 207.964 43.569 208.029C43.4756 208.094 43.36 208.119 43.2476 208.1C43.2233 208.098 43.1996 208.091 43.178 208.08L32.3664 204.348C32.2574 204.307 32.167 204.229 32.112 204.127C32.0569 204.025 32.0409 203.906 32.0669 203.794L34.1814 195.538C32.3343 194.535 30.5612 193.404 28.8755 192.152C27.5489 193.102 26.2422 194.063 24.9059 195.003C23.4497 196.003 22.0131 197.032 20.5369 198.022C21.8937 196.884 23.27 195.775 24.6463 194.657C25.9233 193.617 27.2196 192.607 28.5161 191.588C28.5259 191.515 28.5497 191.444 28.5862 191.38C27.8182 188.45 27.1398 185.5 26.4317 182.55C25.6836 179.501 24.9954 176.432 24.3273 173.363C23.629 170.294 22.9608 167.225 22.3423 164.137C21.6941 161.058 21.0955 157.979 20.5369 154.881C21.395 157.91 22.2127 160.949 22.9705 163.998C23.7687 167.037 24.5065 170.096 25.2249 173.155C25.9627 176.214 26.6811 179.273 27.3395 182.342C27.9877 185.252 28.6461 188.163 29.2441 191.083C30.3117 190.835 31.3787 190.608 32.456 190.42C33.4933 190.242 34.5306 190.103 35.5879 190.014L36.7548 185.47L41.5021 167.146L41.5124 167.117V167.107C42.1083 165.505 42.5784 163.86 42.9184 162.187C43.308 160.558 43.2978 158.861 42.8886 157.237C42.6383 156.465 42.1837 155.775 41.5723 155.237C41.2509 154.97 40.911 154.725 40.5549 154.505L39.9963 154.138L39.7071 153.901C39.6672 153.891 39.6374 153.861 39.5274 153.822C37.8538 153.443 36.153 153.195 34.4406 153.079C27.4987 152.456 20.5273 152.089 13.5655 151.713C17.0461 151.763 20.537 151.862 24.0279 151.99C27.5187 152.119 30.9999 152.258 34.4907 152.525C35.3586 152.594 36.2362 152.673 37.104 152.772C38.0007 152.841 38.8888 152.994 39.7568 153.228C39.9011 153.273 40.0363 153.344 40.1561 153.436L40.3753 153.614L40.9139 153.95C41.302 154.18 41.6721 154.438 42.0208 154.723C42.7361 155.329 43.2736 156.116 43.5768 156.999C44.0541 158.737 44.1054 160.564 43.7263 162.325C43.4032 164.044 42.9361 165.733 42.3301 167.374L37.6821 185.698L33.0745 203.616L42.9885 207.1L46.7886 186.876C48.0753 180.124 49.3884 173.376 50.728 166.632C50.5067 160.134 50.9681 153.631 52.1048 147.229L33.8425 145.328C32.0025 145.161 30.2601 144.431 28.8555 143.239C27.3608 143.022 25.8791 142.725 24.417 142.348C24.0381 142.259 23.6592 142.16 23.2798 142.041C23.0903 141.982 22.9009 141.923 22.7017 141.853C22.6794 141.843 22.6558 141.837 22.6316 141.833H22.6019C22.5343 141.841 22.4675 141.854 22.4022 141.873C21.6982 142.092 21.0168 142.377 20.3675 142.724C18.9912 143.388 17.6349 144.12 16.2586 144.813C14.8921 145.536 13.4954 146.219 12.0791 146.872C14.5113 144.925 17.1422 143.237 19.9287 141.833C20.6562 141.467 21.4179 141.172 22.2031 140.952C22.3311 140.927 22.4612 140.914 22.5917 140.913C22.7489 140.922 22.9037 140.955 23.0505 141.012C23.2102 141.091 23.3899 141.15 23.5594 141.22L24.6464 141.616C26.0329 142.101 27.4194 142.615 28.7957 143.18C27.3493 141.814 26.312 139.606 26.9208 136.003L27.848 111.561L24.1078 110.799C24.1078 110.799 21.3552 111.413 26.7907 95.8309L35.478 71.0329C35.478 71.0329 1.35721 75.2104 0.120734 76.438C-1.11626 77.6655 7.29192 160.385 18.9217 199.903C18.9217 199.903 71.8429 237.462 75.0547 238.689C76.6204 239.273 105.954 232.294 138 223.909C138 223.909 134.778 213.416 120.915 211.198ZM9.06698 95.0092C8.25903 90.1387 7.4813 85.2682 6.80291 80.3779C7.88017 85.1989 8.85759 90.0397 9.81502 94.8805C10.773 99.7213 11.6506 104.582 12.5681 109.433C13.4057 114.293 14.2936 119.154 15.0913 124.024L16.2781 131.33C16.6375 133.775 17.0261 136.21 17.3554 138.656C16.807 136.25 16.3181 133.835 15.7896 131.419L14.3335 124.153C13.376 119.312 12.5081 114.452 11.5906 109.601C10.7525 104.74 9.86518 99.8896 9.06698 95.0092ZM101.276 37.652C99.461 37.652 97.1468 38.6321 94.8427 39.1271C92.5387 39.622 87.2629 38.6321 86.7642 37.167C86.2655 35.692 83.1535 23.5355 82.6446 24.1097C82.1459 24.6838 81.1588 25.7035 81.1588 25.7035C81.1588 25.7035 80.9893 40.513 81.318 42.1068C81.6575 43.7105 87.7514 51.729 96.8175 50.9073C105.884 50.0857 107.211 39.4537 107.211 39.4537C107.211 39.4537 103.081 37.652 101.276 37.652ZM102.772 42.0474C102.106 42.4544 101.328 42.6416 100.548 42.582C99.7905 42.5245 99.0567 42.2941 98.4037 41.9088C97.7686 41.5436 97.226 41.0391 96.8175 40.4338C98.0016 41.0422 99.2849 41.4377 100.608 41.6019C101.227 41.648 101.849 41.5637 102.433 41.3544C103.066 41.1109 103.671 40.8023 104.239 40.4338C103.921 41.1035 103.411 41.6649 102.772 42.0474Z"
                                        fill="url(#paint1_linear_258_545)"
                                    />
                                    <path
                                        d="M81.6067 26.512C81.6067 26.512 89.8157 18.7159 89.159 9.09504C89.159 9.09504 91.2934 7.10452 94.7411 10.4221C94.7411 10.4221 97.6964 11.2514 101.144 7.60215C104.592 3.95287 106.398 9.26089 106.398 9.26089C106.398 9.26089 108.204 14.9007 108.696 13.4078C109.189 11.9149 110.01 4.78224 102.622 2.45997C96.8766 0.730877 90.8711 0.056705 84.8903 0.469461C82.9202 0.801209 78.8157 4.11873 78.8157 8.76326C78.8157 13.4078 76.8455 19.2134 77.0097 21.0381C77.1739 22.8628 81.6067 26.512 81.6067 26.512ZM88.9949 24.5215C90.5871 23.9068 92.2966 23.6648 93.9947 23.8137C94.849 23.8878 95.6903 24.0732 96.4976 24.3652C97.3002 24.6635 98.0407 25.1102 98.6814 25.6826C97.9242 25.3515 97.1415 25.0834 96.3412 24.8808C95.5495 24.6974 94.746 24.5708 93.9367 24.502C92.2911 24.3884 90.6396 24.3949 88.9949 24.5215ZM102.95 24.8929C103.608 24.164 104.419 23.5925 105.323 23.2198C106.221 22.791 107.231 22.6658 108.204 22.8628C107.316 23.1488 106.443 23.4805 105.588 23.8567C104.732 24.212 103.889 24.5984 102.95 24.8929ZM95.2337 28.0464C95.4997 28.0371 95.7517 27.9238 95.9367 27.7304C96.1216 27.537 96.225 27.2786 96.225 27.0097C96.225 26.7407 96.1216 26.4823 95.9367 26.2889C95.7517 26.0955 95.4997 25.9822 95.2337 25.9729C94.9677 25.9822 94.7156 26.0955 94.5307 26.2889C94.3457 26.4823 94.2423 26.7407 94.2423 27.0097C94.2423 27.2786 94.3457 27.537 94.5307 27.7304C94.7156 27.9238 94.9677 28.0371 95.2337 28.0464ZM105.741 27.3829C106.007 27.3736 106.259 27.2603 106.444 27.0669C106.629 26.8735 106.732 26.6151 106.732 26.3462C106.732 26.0772 106.629 25.8188 106.444 25.6254C106.259 25.432 106.007 25.3187 105.741 25.3094C105.475 25.3187 105.223 25.432 105.038 25.6254C104.853 25.8188 104.75 26.0772 104.75 26.3462C104.75 26.6151 104.853 26.8735 105.038 27.0669C105.223 27.2603 105.475 27.3736 105.741 27.3829Z"
                                        fill="url(#paint2_linear_258_545)"
                                    />
                                    <path
                                        d="M76.1471 20.6862C75.7793 20.8338 75.4505 21.0594 75.1851 21.3463C74.9197 21.6332 74.7244 21.9741 74.6138 22.3437C74.4015 23.0739 74.4029 23.8467 74.6177 24.5763C75.1074 26.0687 75.6848 27.533 76.3471 28.9619C76.9389 30.4558 77.4057 31.9932 77.7431 33.5593C77.8794 34.2944 78.2557 34.9681 78.817 35.4816C79.1172 35.7337 79.4692 35.9215 79.85 36.0326C80.2307 36.1437 80.6315 36.1756 81.026 36.1262C80.6176 36.2414 80.1876 36.2665 79.7679 36.1996C79.3481 36.1327 78.9493 35.9756 78.6008 35.7398C77.9144 35.2106 77.4268 34.4782 77.2131 33.6553C76.8021 32.1411 76.294 30.6531 75.6916 29.1999C75.4114 28.4614 75.1251 27.7241 74.8197 26.9933C74.4838 26.2502 74.239 25.4716 74.0905 24.6735C73.9206 23.8561 73.9909 23.0092 74.2935 22.2284C74.4546 21.8484 74.7066 21.5105 75.0287 21.2425C75.3509 20.9744 75.7341 20.7838 76.1471 20.6862ZM103.57 31.738C103.972 32.7663 103.959 33.9027 103.535 34.9225C103.302 35.4684 102.868 35.9117 102.316 36.167C101.775 36.3764 101.171 36.3814 100.626 36.1811C101.132 36.1186 101.619 35.9555 102.056 35.7023C102.43 35.4319 102.72 35.0677 102.894 34.6492C103.245 33.71 103.472 32.7319 103.57 31.738ZM108.617 13.2099C108.474 15.4416 108.47 17.6796 108.603 19.9119C108.673 21.0188 108.805 22.1213 108.999 23.2145C109.203 24.2869 109.527 25.3856 109.721 26.5059C110.117 28.7559 110.091 31.0561 109.646 33.2974C109.162 35.5056 108.422 37.654 107.439 39.7018C108.163 37.5807 108.723 35.4105 109.115 33.2092C109.467 31.0227 109.439 28.7946 109.031 26.6172C108.862 25.5222 108.567 24.4539 108.371 23.3183C108.18 22.1994 108.078 21.068 108.067 19.934C108.023 17.6807 108.207 15.4285 108.617 13.2099ZM81.026 42.3384C80.8865 43.6387 80.3849 44.8783 79.5744 45.9251C79.1613 46.457 78.655 46.9147 78.0782 47.2775C77.4943 47.6265 76.8237 47.8167 76.1371 47.8282C76.7198 47.5732 77.2645 47.2442 77.757 46.8498C78.2205 46.4468 78.6418 46.0007 79.0148 45.518C79.3948 45.0273 79.7449 44.5156 80.063 43.9855C80.3827 43.4487 80.7121 42.9068 81.026 42.3384Z"
                                        fill="url(#paint3_linear_258_545)"
                                    />
                                    <path
                                        d="M80.9432 44.0078C75.9003 45.0216 70.9656 46.5048 66.2047 48.4377C63.7367 49.3246 61.1561 49.8675 58.537 50.051C55.9919 50.198 53.4572 50.4863 50.9447 50.9145C50.378 51.0368 49.8341 51.2463 49.3329 51.5354C48.757 51.8887 48.1498 52.1893 47.5188 52.4337C46.3711 52.8555 45.3137 53.4873 44.4019 54.296C42.6614 56.0884 41.2306 58.152 40.167 60.4042C39.5638 61.515 39.0825 62.6924 38.5526 63.8456C38.0735 65.0221 37.592 66.2004 37.1425 67.3913C36.7185 68.5921 36.2688 69.785 35.8649 70.9942L34.713 74.6424L34.7103 74.6513L34.7054 74.6652C32.3054 80.6088 30.1244 86.635 28.1626 92.7438C27.1909 95.7952 26.2728 98.8645 25.4888 101.958C25.1021 103.505 24.7374 105.057 24.4644 106.611C24.3256 107.378 24.2301 108.152 24.1786 108.93C24.1562 109.298 24.1621 109.668 24.1963 110.035C24.2043 110.292 24.2825 110.543 24.4225 110.76L24.1372 110.615C29.8389 111.724 35.5448 112.831 41.2583 113.875L49.8218 115.456L54.1072 116.172C55.4981 116.411 56.9003 116.581 58.3085 116.682L58.7249 116.686C58.7259 116.663 58.7149 116.688 58.7401 116.673C58.7684 116.644 58.8002 116.62 58.8347 116.599C59.025 116.38 59.1837 116.136 59.3062 115.874C59.5982 115.258 59.8397 114.62 60.0282 113.965C60.4135 112.603 60.7218 111.22 60.9517 109.824C61.4352 107.015 61.6928 104.16 61.8928 101.304C62.0744 98.4458 62.1334 95.5803 62.0697 92.7078C62.0276 89.8383 61.8553 86.9678 61.5303 84.1091C61.5286 84.0915 61.5338 84.074 61.5448 84.0602C61.5558 84.0463 61.5718 84.0372 61.5895 84.0347C61.6071 84.0322 61.625 84.0365 61.6395 84.0468C61.654 84.057 61.664 84.0724 61.6673 84.0898C62.1535 86.931 62.489 89.8006 62.6939 92.6816C62.8726 95.564 62.9255 98.4524 62.8525 101.347C62.7808 104.245 62.5405 107.137 62.133 110.008C61.9294 111.458 61.644 112.895 61.2781 114.314C61.0851 115.048 60.8316 115.766 60.5201 116.459C60.3441 116.854 60.109 117.221 59.8226 117.547C59.7204 117.64 59.6092 117.731 59.4974 117.817C59.3475 117.907 59.1863 117.977 59.018 118.025C58.7825 118.048 58.5713 118.047 58.3458 118.054C56.8531 117.967 55.3663 117.799 53.8923 117.55L49.574 116.851C46.7056 116.348 43.8392 115.846 40.9843 115.288C35.2767 114.16 29.579 112.993 23.8914 111.786L23.8438 111.776C23.7523 111.756 23.6692 111.709 23.6059 111.641C23.2397 111.228 23.0328 110.701 23.0218 110.151C22.9906 109.72 22.9929 109.288 23.0287 108.857C23.1016 108.037 23.2209 107.222 23.3861 106.416C23.7017 104.82 24.1103 103.258 24.5629 101.712C25.4656 98.6189 26.4961 95.5755 27.558 92.5451C28.6381 89.5209 29.725 86.5016 30.8436 83.4937L34.231 74.481L34.2234 74.5034C35.5162 69.5348 37.1958 64.6727 39.247 59.9608C40.277 57.5373 41.7507 55.3229 43.5937 53.4295C44.5975 52.518 45.7635 51.7989 47.0324 51.3087C47.6004 51.0822 48.1507 50.8146 48.6788 50.5079C49.295 50.1564 49.9639 49.9044 50.6603 49.7614C53.2346 49.3524 55.8306 49.0911 58.4353 48.9786C59.7095 48.8678 60.9783 48.7333 62.2245 48.5072C63.4729 48.3169 64.7015 48.0155 65.8952 47.6067C70.7421 45.7938 75.7842 44.5409 80.9214 43.8726C80.9396 43.87 80.958 43.8747 80.9726 43.8856C80.9873 43.8965 80.997 43.9127 80.9996 43.9307C81.0015 43.9481 80.9968 43.9657 80.9863 43.9799C80.9759 43.9942 80.9605 44.0041 80.9432 44.0078Z"
                                        fill="url(#paint4_linear_258_545)"
                                    />
                                    <path
                                        d="M97.0629 58.6096C96.95 59.2012 96.9214 59.8054 96.9779 60.4047C97.0145 61.0112 97.0545 61.6169 97.1131 62.2224L97.4903 65.8512C97.7613 68.2691 98.0841 70.6818 98.3844 73.0969L98.8624 76.7163C99.1638 77.9892 98.9661 79.3271 98.3087 80.4628C98.0924 80.7327 97.8241 80.9579 97.5192 81.1256C97.2143 81.2932 96.8787 81.4 96.5318 81.4398C96.1848 81.4796 95.8333 81.4517 95.4973 81.3575C95.1614 81.2634 94.8477 81.1049 94.5741 80.8912C94.2999 80.6801 94.0726 80.416 93.9063 80.1151C93.7399 79.8142 93.638 79.4829 93.6067 79.1418L93.4074 77.3278C93.131 74.9105 92.837 72.4942 92.4623 70.0913C92.2834 68.8913 92.0401 67.7014 91.7335 66.5266C91.6584 66.2405 91.555 65.9623 91.4247 65.696C91.3987 65.6368 91.3592 65.5843 91.3092 65.5427C91.2592 65.501 91.2001 65.4713 91.1365 65.4559L90.712 65.2751C90.145 65.0344 89.5712 64.8082 88.9947 64.5887C86.6914 63.7055 84.3715 62.8609 82.0301 62.0869C80.869 61.7252 79.6631 61.2087 78.5474 61.5704C78.0289 61.8156 77.5984 62.21 77.3128 62.7014C77.0272 63.1928 76.9001 63.758 76.9482 64.3222C76.9471 64.386 76.9204 64.4469 76.8738 64.4913C76.8271 64.5357 76.7645 64.5601 76.6996 64.5592C76.6571 64.5582 76.6156 64.5464 76.579 64.5251C76.5424 64.5038 76.512 64.4736 76.4907 64.4374C75.842 63.3274 75.1123 62.265 74.3074 61.2588C73.529 60.2494 72.6183 59.3459 71.5989 58.5719C71.1004 58.2028 70.5434 57.9171 69.9504 57.7264C69.2994 57.524 68.6733 57.2508 68.0838 56.9118C66.8817 56.2356 65.8657 55.2805 65.1242 54.1296C65.1141 54.1137 65.1062 54.0966 65.1007 54.0787L65.0944 54.0577C64.909 53.3808 64.9988 52.6595 65.3447 52.0467C65.6637 51.481 66.0817 50.9752 66.5795 50.5525C67.5351 49.7482 68.5881 49.0634 69.7147 48.5137C71.9231 47.4115 74.2353 46.5234 76.6186 45.8621C76.6791 45.8449 76.7435 45.8461 76.8033 45.8657C76.8631 45.8852 76.9155 45.9221 76.9536 45.9716C76.9917 46.021 77.0136 46.0806 77.0166 46.1426C77.0195 46.2045 77.0033 46.2659 76.9701 46.3186L76.9611 46.333C76.5794 46.9665 76.3323 47.6696 76.2346 48.3998C76.1785 48.7715 76.1478 49.1464 76.1427 49.5221C76.1758 49.8974 76.1729 50.2778 76.2407 50.6508C76.498 52.1651 77.0741 53.6097 77.9319 54.8919C78.3512 55.5447 78.805 56.1754 79.2916 56.7812C79.8234 57.3516 80.3224 57.9539 80.8774 58.5055C81.4507 59.0385 81.9953 59.6056 82.5945 60.1135L84.4167 61.6143C84.4203 61.617 84.4234 61.6203 84.4257 61.6241C84.4281 61.6279 84.4296 61.6321 84.4303 61.6365C84.431 61.6409 84.4308 61.6454 84.4297 61.6497C84.4286 61.654 84.4267 61.6581 84.424 61.6617C84.4183 61.6686 84.4101 61.6732 84.4011 61.6745C84.3921 61.6757 84.3829 61.6736 84.3754 61.6686L82.4832 60.2428C81.8589 59.7585 81.2863 59.2123 80.6837 58.6986C80.0943 58.1708 79.5787 57.5668 79.0249 57.0005C78.5134 56.3938 78.035 55.7608 77.5916 55.1043C76.6693 53.7897 76.0364 52.2999 75.7335 50.7305C75.653 50.3375 75.6442 49.9315 75.6015 49.5314C75.5969 49.1267 75.6202 48.7223 75.6713 48.3208C75.7618 47.4963 76.0267 46.6996 76.4488 45.9818L76.7911 46.4526C74.4698 47.1589 72.2123 48.0544 70.0422 49.1298C68.9718 49.6564 67.9715 50.3108 67.0638 51.0783C66.6124 51.383 66.2547 51.8038 66.0296 52.2948C65.8045 52.7859 65.7206 53.3282 65.7871 53.8629L65.7573 53.7913C66.4285 54.8375 67.3448 55.71 68.4293 56.3358C68.9728 56.6556 69.5508 56.9149 70.1527 57.1087C70.8097 57.3271 71.426 57.6499 71.9769 58.0645C73.0384 58.8787 73.9764 59.838 74.7623 60.9133C75.5615 61.9592 76.2823 63.061 76.919 64.2099L76.4618 64.3253C76.4788 63.6775 76.6422 63.0416 76.94 62.4637C77.087 62.1644 77.294 61.8975 77.5487 61.6791C77.8033 61.4607 78.1003 61.2952 78.4216 61.1927C79.7576 60.8128 80.9967 61.4088 82.1399 61.7724C84.4764 62.5852 86.7849 63.4662 89.0772 64.3861L90.796 65.0784L91.2252 65.2553C91.3106 65.2813 91.3898 65.3239 91.4581 65.3807C91.5264 65.4374 91.5824 65.507 91.6229 65.5855C91.7656 65.8656 91.8794 66.159 91.9627 66.4615C92.3065 67.6433 92.5209 68.8447 92.7505 70.0431C93.1989 72.4418 93.5658 74.8524 93.9115 77.2655L94.1638 79.0763C94.1903 79.343 94.2721 79.6016 94.4041 79.8361C94.536 80.0706 94.7154 80.276 94.9311 80.4397C95.359 80.7698 95.9023 80.9199 96.4424 80.857C96.9824 80.7942 97.4752 80.5236 97.813 80.1043C98.1124 79.6297 98.2951 79.093 98.3466 78.5367C98.4083 77.9542 98.3871 77.366 98.2837 76.7893L97.8465 73.1607C97.5554 70.7414 97.3229 68.3153 97.1141 65.887C97.0077 64.673 96.9211 63.4568 96.8728 62.2378C96.8428 61.6289 96.8313 61.0183 96.823 60.4084C96.7929 59.7927 96.8534 59.1759 97.0026 58.5773C97.0053 58.569 97.0113 58.5621 97.0191 58.5582C97.027 58.5542 97.0361 58.5534 97.0445 58.556C97.0529 58.5586 97.06 58.5643 97.0642 58.572C97.0683 58.5796 97.0692 58.5886 97.0667 58.5969L97.0629 58.6096Z"
                                        fill="url(#paint5_linear_258_545)"
                                    />
                                    <path
                                        d="M99.6625 50.7216C100.146 51.3952 100.573 52.1066 100.938 52.8489C101.121 53.2221 101.253 53.6197 101.413 54.0068C101.544 54.4081 101.641 54.8196 101.702 55.2369C101.855 56.0923 101.783 56.9718 101.494 57.7922C101.17 58.6326 100.553 59.3322 99.7529 59.7662C99.7218 59.7827 99.6876 59.793 99.6524 59.7965C99.6173 59.8 99.5817 59.7966 99.5479 59.7866C99.514 59.7765 99.4825 59.76 99.4551 59.738C99.4277 59.716 99.405 59.6888 99.3883 59.6582C99.3719 59.6285 99.3616 59.596 99.3578 59.5625L99.3568 59.5532C99.2457 58.3742 98.9908 57.2127 98.5975 56.0938C98.4006 55.5413 98.09 55.0348 97.6853 54.6059C97.4877 54.4117 97.2332 54.2833 96.9577 54.2388C96.8228 54.2554 96.6927 54.2984 96.575 54.3653C96.4573 54.4322 96.3543 54.5216 96.2722 54.6283C95.589 55.5986 95.0947 56.6854 94.8146 57.8335C94.4668 58.9708 94.1752 60.1339 93.9211 61.2901L93.926 61.1796L94.237 63.2892C94.2504 63.3799 94.2275 63.4721 94.173 63.5464C94.1186 63.6208 94.037 63.6714 93.9454 63.6875C93.8538 63.7037 93.7594 63.6842 93.6822 63.6331C93.6049 63.582 93.5508 63.5033 93.5314 63.4137L93.5299 63.4059C93.3402 62.4131 93.2304 61.4072 93.2016 60.3974C93.147 59.3961 93.1723 58.397 93.2188 57.4014C93.3047 55.4122 93.5145 53.4302 93.8471 51.4663C93.8486 51.4575 93.8536 51.4495 93.8611 51.4443C93.8685 51.439 93.8777 51.4369 93.8868 51.4383C93.895 51.4399 93.9025 51.4442 93.9077 51.4507C93.913 51.4571 93.9158 51.4652 93.9155 51.4735C93.8495 53.4579 93.8168 55.4376 93.8173 57.4125C93.7904 59.371 93.9295 61.3282 94.2329 63.264L93.5255 63.3807L93.2761 61.2632L93.2749 61.2523C93.271 61.2189 93.273 61.185 93.281 61.1523C93.5669 59.9746 93.9235 58.8147 94.3489 57.6786C94.7389 56.5161 95.328 55.428 96.0908 54.4613C96.1975 54.3324 96.3299 54.2265 96.4798 54.1499C96.6297 54.0734 96.7939 54.0278 96.9623 54.0161C97.2907 54.0685 97.5937 54.2222 97.8276 54.4552C98.2711 54.8924 98.6179 55.4155 98.8458 55.9914C99.3385 57.1102 99.6955 58.2823 99.9095 59.4834L99.5137 59.2706C100.158 58.8705 100.653 58.2762 100.926 57.5763C101.204 56.8515 101.29 56.0686 101.175 55.3019C101.155 54.9099 101.03 54.5263 100.97 54.1331C100.846 53.7535 100.75 53.362 100.601 52.9869C100.436 52.6181 100.309 52.2311 100.135 51.8629L99.6038 50.7568C99.6017 50.7529 99.6003 50.7486 99.5999 50.7441C99.5994 50.7397 99.5999 50.7352 99.6012 50.7309C99.6025 50.7267 99.6047 50.7227 99.6075 50.7193C99.6104 50.7158 99.6139 50.713 99.6179 50.7109C99.6255 50.7073 99.6341 50.7064 99.6422 50.7083C99.6504 50.7103 99.6575 50.715 99.6625 50.7216ZM94.6854 66.8674C94.9526 66.8583 95.2058 66.7474 95.3915 66.558C95.5773 66.3686 95.6811 66.1156 95.6811 65.8524C95.6811 65.5891 95.5773 65.3361 95.3915 65.1467C95.2058 64.9574 94.9526 64.8464 94.6854 64.8373C94.4182 64.8464 94.165 64.9574 93.9792 65.1467C93.7935 65.3361 93.6897 65.5891 93.6897 65.8524C93.6897 66.1156 93.7935 66.3686 93.9792 66.558C94.165 66.7474 94.4182 66.8583 94.6854 66.8674ZM95.4276 72.4705C95.6948 72.4614 95.9479 72.3505 96.1337 72.1611C96.3195 71.9717 96.4233 71.7188 96.4233 71.4555C96.4233 71.1922 96.3195 70.9392 96.1337 70.7498C95.9479 70.5605 95.6948 70.4495 95.4276 70.4404C95.1604 70.4495 94.9072 70.5605 94.7214 70.7498C94.5357 70.9392 94.4319 71.1922 94.4319 71.4555C94.4319 71.7188 94.5357 71.9717 94.7214 72.1611C94.9072 72.3505 95.1604 72.4614 95.4276 72.4705ZM96.046 77.83C96.3133 77.8209 96.5665 77.71 96.7523 77.5207C96.938 77.3313 97.0419 77.0783 97.0419 76.815C97.0419 76.5517 96.938 76.2986 96.7523 76.1093C96.5665 75.9199 96.3133 75.809 96.046 75.7999C95.7788 75.809 95.5256 75.9199 95.3398 76.1093C95.1541 76.2986 95.0502 76.5517 95.0502 76.815C95.0502 77.0783 95.1541 77.3313 95.3398 77.5207C95.5256 77.71 95.7788 77.8209 96.046 77.83ZM102.619 48.8173C106.74 48.9183 110.855 49.1875 114.96 49.6031C117.014 49.799 119.06 50.0825 121.099 50.4243C123.174 50.7091 125.204 51.2531 127.14 52.0433C127.393 52.1672 127.631 52.3203 127.848 52.4994C128.048 52.6774 128.237 52.8669 128.414 53.0668C128.755 53.4296 129.126 53.7768 129.495 54.1345C130.257 54.8462 130.945 55.6314 131.548 56.4782C132.702 58.2011 133.558 60.0998 134.084 62.0976C135.119 66.0391 135.761 70.0708 136 74.1352C135.501 70.1175 134.691 66.1433 133.577 62.247C133.014 60.3249 132.157 58.4986 131.035 56.831C130.446 56.0224 129.777 55.2741 129.036 54.5974C128.668 54.247 128.288 53.8989 127.926 53.5213C127.625 53.1538 127.249 52.854 126.821 52.6419C124.953 51.8667 122.994 51.3249 120.989 51.0292C118.973 50.6609 116.936 50.3934 114.899 50.1177C110.82 49.5961 106.722 49.1968 102.619 48.8173ZM46.0726 57.4025C47.9718 57.0066 49.9504 57.2318 51.7078 58.0438C53.47 58.8768 54.975 60.1569 56.0683 61.7524C56.6145 62.5371 57.0903 63.367 57.4904 64.2329C57.8693 65.1006 58.2007 65.9876 58.4833 66.8902C58.6901 67.8104 58.9456 68.7177 59.1089 69.6405C59.2165 70.5742 59.3466 71.5011 59.4319 72.4299C59.1922 71.522 58.9971 70.6122 58.7795 69.7092C58.5513 68.8097 58.2422 67.9324 57.9796 67.0474C57.6281 66.1939 57.3175 65.323 56.9239 64.4936C56.5205 63.6711 56.0465 62.8841 55.5069 62.1412C54.4947 60.6165 53.1087 59.3675 51.477 58.5093C49.816 57.6503 47.9437 57.2668 46.0726 57.4025ZM70.482 100.202C70.9558 101.444 71.4549 102.673 72.0354 103.866C72.5844 105.072 73.1871 106.252 73.8258 107.411C75.0896 109.733 76.5341 111.955 78.1463 114.057C79.7355 116.172 81.5431 118.119 83.5401 119.866L85.0652 121.147C85.5875 121.557 86.1516 121.912 86.6921 122.301L87.506 122.884C87.7878 123.062 88.0826 123.219 88.3707 123.388L90.1085 124.401C87.6151 123.354 85.2874 121.96 83.1966 120.262C81.1129 118.545 79.2348 116.6 77.5987 114.465C75.9851 112.319 74.5661 110.039 73.3581 107.649C72.1477 105.268 71.1841 102.773 70.482 100.202ZM27.5452 111.676C27.5153 115.723 27.4246 119.768 27.3576 123.814C27.3021 127.861 27.163 131.904 27.0692 135.949L27.0666 135.983L27.0607 136.02C26.8097 137.637 27.0193 139.29 27.666 140.796C28.3525 142.252 29.5844 143.389 31.1036 143.969C31.494 144.094 31.8762 144.239 32.2709 144.352L33.4951 144.585C34.3426 144.708 35.2173 144.798 36.0818 144.892C37.8164 145.073 39.5545 145.235 41.2961 145.377C48.2591 145.953 55.2445 146.248 62.2263 146.402C69.2051 146.56 76.1874 146.333 83.1404 145.722C90.049 145.065 97.0666 144.022 103.343 141.062C103.405 141.033 103.475 141.028 103.54 141.046C103.605 141.065 103.661 141.107 103.698 141.163C104.192 141.922 104.877 142.543 105.687 142.964C106.513 143.393 107.425 143.637 108.358 143.678C109.304 143.713 110.251 143.615 111.168 143.386C111.624 143.255 112.08 143.117 112.533 142.97L113.858 142.428L112.563 143.042C112.117 143.215 111.665 143.379 111.211 143.537C110.284 143.823 109.319 143.967 108.348 143.965C107.351 143.978 106.365 143.753 105.476 143.31C104.586 142.867 103.818 142.218 103.238 141.42L103.592 141.521C100.455 143.13 97.1169 144.325 93.6629 145.075C90.2308 145.852 86.7562 146.433 83.2563 146.817C76.264 147.521 69.2357 147.817 62.2079 147.703C55.1855 147.659 48.176 147.22 41.1864 146.606C39.4387 146.45 37.6924 146.273 35.9475 146.076C35.0728 145.974 34.2061 145.878 33.3233 145.743L31.9717 145.473C31.5281 145.344 31.0911 145.177 30.6521 145.029C28.8811 144.313 27.4647 142.943 26.706 141.212C26.0154 139.509 25.8265 137.648 26.1611 135.843L26.1526 135.915C26.3701 131.874 26.5425 127.832 26.7986 123.793C27.0427 119.754 27.2636 115.714 27.5452 111.676Z"
                                        fill="url(#paint6_linear_258_545)"
                                    />
                                    <path
                                        d="M53.2598 117.065C53.3751 119.186 53.4402 121.307 53.5194 123.428L53.363 123.206C61.3834 125.881 69.8033 127.376 78.319 127.636C82.5522 127.756 86.7869 127.447 90.9485 126.715L94.0473 126.092C95.0708 125.85 96.0633 125.508 97.0743 125.222L98.5889 124.781C99.0825 124.607 99.5618 124.399 100.05 124.209L102.97 123.045L102.723 123.393C102.837 122.749 103.109 122.138 103.517 121.607C103.896 121.092 104.368 120.643 104.913 120.279C105.977 119.577 107.2 119.112 108.488 118.92C109.113 118.818 109.744 118.747 110.378 118.707C111.01 118.707 111.64 118.656 112.268 118.699C112.895 118.747 113.524 118.747 114.144 118.836L116 119.092L114.131 118.995C113.51 118.966 112.887 118.993 112.267 118.988C111.647 118.985 111.032 119.075 110.418 119.113C109.81 119.191 109.208 119.298 108.612 119.434C107.443 119.693 106.344 120.174 105.384 120.847C104.472 121.484 103.852 122.418 103.648 123.462L103.644 123.49C103.634 123.558 103.606 123.622 103.564 123.678C103.521 123.734 103.465 123.779 103.4 123.81C99.5636 125.706 95.4592 127.09 91.2078 127.921C86.9551 128.721 82.6152 129.05 78.2794 128.898C73.9587 128.751 69.6621 128.231 65.4449 127.345C63.3445 126.887 61.2609 126.371 59.2096 125.758C57.1468 125.173 55.1253 124.469 53.1568 123.649L53.1447 123.644C53.1003 123.625 53.0628 123.595 53.0371 123.556C53.0114 123.518 52.9985 123.473 53.0001 123.427C53.0796 121.307 53.1445 119.186 53.2598 117.065Z"
                                        fill="url(#paint7_linear_258_545)"
                                    />
                                    <path
                                        d="M33 128.213C34.0837 126.724 35.4658 125.476 37.0587 124.548C38.6528 123.607 40.3786 122.907 42.1793 122.473C43.0851 122.29 44.0012 122.162 44.9226 122.091C45.84 122.001 46.7632 121.986 47.683 122.046C48.6028 122.067 49.5091 122.252 50.4174 122.349C51.3135 122.541 52.2029 122.759 53.0815 122.992C52.1691 122.911 51.2748 122.762 50.3733 122.684C49.4682 122.656 48.5705 122.532 47.6695 122.577C45.8752 122.568 44.0854 122.758 42.3332 123.144C40.5872 123.54 38.9019 124.166 37.3217 125.006C35.7189 125.838 34.2599 126.921 33 128.213ZM102.862 122.992C103.138 123.592 103.464 124.168 103.837 124.713C104.19 125.246 104.644 125.706 105.173 126.066C105.304 126.144 105.441 126.21 105.583 126.265C105.776 126.337 105.95 126.451 106.093 126.599C106.221 126.764 106.306 126.959 106.339 127.165C106.372 127.371 106.354 127.583 106.285 127.78C106.059 128.454 105.691 129.072 105.207 129.594L105.203 129.598L105.183 129.617C104.667 130.102 104.278 130.706 104.05 131.377C103.945 131.693 103.913 132.028 103.954 132.359C103.996 132.689 104.112 133.006 104.292 133.286C104.627 133.83 105.363 134.36 105.645 135.194C105.733 135.41 105.772 135.641 105.76 135.873C105.748 136.106 105.685 136.332 105.577 136.538C105.339 136.918 104.983 137.209 104.562 137.366L104.655 137.302C104.111 137.876 103.695 138.558 103.434 139.303C103.307 139.675 103.269 140.071 103.321 140.46C103.408 140.854 103.592 141.219 103.858 141.522C103.533 141.253 103.291 140.898 103.159 140.498C103.054 140.082 103.047 139.646 103.139 139.227C103.227 138.81 103.378 138.409 103.587 138.037C103.787 137.66 104.023 137.304 104.292 136.973C104.308 136.953 104.328 136.937 104.351 136.926L104.385 136.91C104.677 136.774 104.919 136.549 105.075 136.268C105.137 136.132 105.169 135.984 105.169 135.835C105.169 135.685 105.138 135.537 105.077 135.401C104.852 134.756 104.244 134.357 103.739 133.64C103.495 133.282 103.336 132.874 103.273 132.446C103.224 132.017 103.27 131.583 103.409 131.174C103.687 130.397 104.156 129.702 104.773 129.152L104.749 129.175C105.177 128.725 105.515 128.199 105.746 127.624C105.8 127.512 105.826 127.388 105.82 127.264C105.814 127.14 105.778 127.019 105.714 126.913C105.63 126.818 105.526 126.742 105.41 126.689C105.247 126.613 105.09 126.523 104.941 126.421C104.387 126.003 103.936 125.464 103.624 124.845C103.302 124.257 103.046 123.636 102.862 122.992ZM115.225 123.688C115.204 124.108 115.183 124.522 115.163 124.936C114.326 124.929 113.483 124.894 112.646 124.805C111.661 124.725 110.685 124.561 109.728 124.315C110.685 124.069 111.661 123.905 112.646 123.826C113.503 123.736 114.368 123.702 115.225 123.688ZM115.004 128.327C114.976 128.748 114.962 129.162 114.941 129.568C114.174 129.555 113.413 129.52 112.646 129.437C111.661 129.358 110.685 129.194 109.728 128.948C110.685 128.702 111.661 128.538 112.646 128.458C113.434 128.376 114.215 128.341 115.004 128.327ZM114.796 132.795C114.782 133.215 114.762 133.629 114.748 134.036C114.05 134.015 113.344 133.98 112.646 133.905C111.661 133.825 110.685 133.661 109.728 133.415C110.685 133.169 111.661 133.005 112.646 132.926C113.365 132.85 114.084 132.815 114.796 132.795ZM112.646 138.261C113.296 138.192 113.946 138.158 114.589 138.137C114.568 138.558 114.554 138.965 114.54 139.358C113.911 139.344 113.275 139.309 112.646 139.24C111.661 139.161 110.685 138.997 109.728 138.751C110.685 138.505 111.661 138.341 112.646 138.261ZM91.3331 148.522C91.3331 148.522 78.8758 136.247 74.225 144.207C69.5741 152.168 72.7713 158.007 76.2269 161.948C80.4366 166.748 80.6482 168.186 81.8973 169.608C83.1464 171.03 97.2466 188.217 114.821 187.251C125.073 186.688 124.898 181.241 122.973 176.8C121.573 173.654 119.324 170.958 116.478 169.012C110.864 165.1 98.3181 156.041 91.3331 148.522Z"
                                        fill="url(#paint8_linear_258_545)"
                                    />
                                    <path
                                        d="M87 144.76C89.6904 144.887 92.3737 145.07 95.0572 145.246L103.103 145.796C105.782 146.011 108.464 146.167 111.145 146.311C112.485 146.394 113.827 146.443 115.168 146.465C115.837 146.464 116.511 146.513 117.178 146.464L118.183 146.416L119.176 146.258C116.529 146.799 113.825 146.998 111.128 146.849C108.432 146.816 105.743 146.654 103.056 146.494C100.371 146.282 97.688 146.069 95.0117 145.78C92.3353 145.492 89.6618 145.175 87 144.76ZM113.775 167.509C113.699 167.509 113.625 167.483 113.565 167.437C113.504 167.39 113.46 167.325 113.44 167.251C113.42 167.177 113.425 167.098 113.453 167.027C113.482 166.956 113.533 166.896 113.598 166.857C114.141 166.534 126.964 158.948 131.763 160.525C131.85 160.554 131.922 160.617 131.963 160.7C132.004 160.783 132.011 160.878 131.983 160.966C131.954 161.054 131.892 161.127 131.81 161.169C131.728 161.211 131.633 161.218 131.546 161.19C127.048 159.705 114.082 167.382 113.951 167.46C113.898 167.492 113.837 167.508 113.775 167.509Z"
                                        fill="url(#paint9_linear_258_545)"
                                    />
                                    <path
                                        d="M189.614 117.584L189.621 117.584L189.646 117.588L219.592 128.577L219.618 128.588C222.595 129.966 225.428 131.632 228.074 133.562C230.747 135.493 233.102 137.824 235.054 140.47C236.059 141.804 236.848 143.285 237.394 144.859C237.92 146.41 238.332 147.997 238.627 149.607C239.294 152.879 239.064 156.269 237.959 159.423C237.339 160.993 236.429 162.435 235.275 163.673C234.112 164.893 232.754 165.915 231.255 166.697C229.767 167.475 228.18 168.052 226.537 168.413C225.72 168.583 224.893 168.705 224.061 168.777L221.631 169.039C215.151 169.725 208.673 170.423 202.186 171.048C189.215 172.305 176.24 173.536 163.237 174.484C159.986 174.723 156.734 174.948 153.478 175.133C150.215 175.294 146.977 175.52 143.66 175.375C141.957 175.236 140.338 174.584 139.021 173.506C137.727 172.472 136.589 171.26 135.642 169.907C133.772 167.227 132.266 164.315 131.164 161.245C131.149 161.204 131.144 161.161 131.151 161.118C131.157 161.076 131.175 161.035 131.201 161.001C131.227 160.967 131.262 160.939 131.302 160.922C131.342 160.904 131.385 160.897 131.429 160.901L131.438 160.902C132.83 161.079 134.24 161.075 135.631 160.889C136.285 160.764 136.978 160.505 137.167 159.955C137.285 159.319 137.158 158.662 136.812 158.113C136.128 156.891 135.328 155.736 134.423 154.664C133.538 153.562 132.621 152.48 131.712 151.389C130.802 150.299 129.898 149.202 129.024 148.081C128.194 146.954 127.192 145.963 126.053 145.143C125.52 144.722 124.893 144.432 124.224 144.297C123.556 144.161 122.864 144.184 122.206 144.364C120.927 144.875 119.883 145.836 119.275 147.062L119.267 147.075C119.245 147.116 119.211 147.149 119.17 147.171C119.129 147.193 119.082 147.202 119.035 147.197C118.989 147.193 118.945 147.175 118.908 147.146C118.872 147.116 118.845 147.077 118.831 147.033C118.382 145.662 118.147 144.231 118.135 142.79C118.131 142.055 118.248 141.324 118.482 140.626C118.724 139.901 119.183 139.267 119.799 138.807L119.764 138.837C120.328 138.349 120.974 137.963 121.674 137.7C122.34 137.425 123.019 137.185 123.71 136.98C125.083 136.564 126.472 136.227 127.866 135.921C130.656 135.315 133.466 134.83 136.281 134.388C141.912 133.513 147.567 132.821 153.227 132.191C164.549 130.935 175.892 129.935 187.256 129.108L186.762 129.573C187.478 125.091 188.407 120.766 189.284 116.376L192.015 103.264L197.503 77.0448L197.757 77.7304C197.143 77.3927 196.478 77.1553 195.788 77.0273C195.037 76.8573 194.266 76.7168 193.487 76.6042C191.929 76.3705 190.348 76.2112 188.765 76.0714C185.597 75.7956 182.41 75.6329 179.223 75.4899C172.846 75.2097 166.457 75.0796 160.067 75.005C147.286 74.8583 134.496 74.9693 121.715 75.1447L122.177 74.9437C121.751 75.4725 121.422 76.0712 121.204 76.7126C120.943 77.3943 120.723 78.107 120.525 78.8286C120.133 80.2742 119.826 81.7567 119.548 83.2448C119.001 86.2247 118.584 89.2385 118.217 92.2579C117.49 98.2995 116.962 104.371 116.507 110.447C116.056 116.526 115.679 122.61 115.374 128.699C115.034 134.78 114.809 140.879 114.579 146.966L114.578 146.972C114.575 147.05 114.541 147.124 114.484 147.178C114.426 147.231 114.35 147.26 114.271 147.258L88.0668 146.584C88.0487 146.584 88.0315 146.576 88.019 146.563C88.0065 146.55 87.9997 146.533 88 146.515C88.0003 146.497 88.0078 146.48 88.0207 146.467C88.0337 146.455 88.0511 146.448 88.0692 146.448L114.281 146.659L113.974 146.951C114.13 140.849 114.307 134.758 114.585 128.657C114.834 122.568 115.153 116.476 115.543 110.382C115.941 104.292 116.41 98.2043 117.082 92.1285C117.422 89.0909 117.811 86.056 118.337 83.0309C118.604 81.5186 118.901 80.0086 119.293 78.5055C119.491 77.7541 119.713 77.0045 119.991 76.258C120.259 75.4491 120.678 74.6969 121.225 74.0401C121.28 73.9791 121.346 73.9298 121.421 73.8954C121.496 73.8609 121.577 73.8419 121.659 73.8396L121.688 73.8389C128.088 73.6752 134.484 73.6171 140.883 73.5704C147.282 73.5302 153.682 73.5372 160.082 73.5913C166.483 73.6558 172.884 73.7757 179.287 74.0467C182.489 74.1888 185.69 74.3763 188.893 74.6651C190.494 74.8133 192.096 74.9809 193.699 75.2283C194.501 75.3477 195.304 75.4964 196.111 75.6828C196.995 75.8492 197.84 76.1753 198.604 76.6447C198.708 76.7135 198.788 76.8113 198.835 76.9257C198.882 77.0401 198.893 77.1658 198.868 77.2867L198.858 77.3307L193.26 103.519L190.448 116.611C189.534 120.965 188.553 125.367 187.819 129.694L187.814 129.722C187.794 129.838 187.735 129.945 187.646 130.024C187.558 130.104 187.444 130.151 187.325 130.159C175.974 130.883 164.625 131.779 153.308 132.932C147.651 133.524 142 134.179 136.379 135.017C133.569 135.439 130.766 135.905 127.991 136.489C126.605 136.784 125.226 137.11 123.874 137.51C123.2 137.705 122.536 137.935 121.886 138.198C121.252 138.432 120.663 138.772 120.146 139.205L120.136 139.214L120.111 139.235C119.579 139.629 119.181 140.175 118.971 140.799C118.753 141.443 118.641 142.117 118.641 142.796C118.646 144.182 118.864 145.56 119.287 146.881L118.843 146.852C119.513 145.517 120.662 144.478 122.065 143.938C122.788 143.741 123.548 143.716 124.283 143.865C125.018 144.014 125.707 144.333 126.293 144.795C127.46 145.65 128.493 146.671 129.358 147.824C130.233 148.935 131.139 150.024 132.053 151.109C132.966 152.194 133.889 153.272 134.786 154.378C135.718 155.471 136.541 156.65 137.246 157.9C137.661 158.563 137.8 159.359 137.633 160.122C137.48 160.511 137.188 160.83 136.811 161.018C136.471 161.19 136.106 161.312 135.73 161.38C134.291 161.583 132.83 161.596 131.388 161.42L131.662 161.077C132.753 164.092 134.258 166.944 136.135 169.553C137.062 170.845 138.17 172 139.427 172.981C140.648 173.963 142.145 174.548 143.715 174.657C146.91 174.759 150.187 174.499 153.425 174.298C156.671 174.076 159.916 173.814 163.16 173.537C176.134 172.398 189.102 171.167 202.065 169.844L221.508 167.89C223.117 167.696 224.784 167.622 226.294 167.306C227.837 166.974 229.329 166.439 230.73 165.715C233.556 164.313 235.769 161.938 236.955 159.036C238.003 156.063 238.229 152.866 237.609 149.777C237.334 148.21 236.948 146.664 236.456 145.15C235.956 143.663 235.227 142.262 234.294 140.997C232.423 138.404 230.158 136.114 227.579 134.207C224.997 132.28 222.228 130.61 219.314 129.221L219.34 129.232L189.597 117.716L189.621 117.72L189.614 117.72C189.596 117.72 189.578 117.713 189.566 117.7C189.553 117.687 189.545 117.67 189.545 117.652C189.545 117.634 189.553 117.617 189.566 117.604C189.578 117.591 189.596 117.584 189.614 117.584L189.614 117.584Z"
                                        fill="url(#paint10_linear_258_545)"
                                    />
                                    <path
                                        d="M121.299 73.7968C116.256 79.441 113.859 146.361 113.859 146.361H118.654C118.654 146.361 116.649 140.485 119.549 138.412C124.82 133.041 187.022 129.012 187.022 129.012C187.16 127.833 188.09 123.143 189.358 117.015C192.568 101.411 197.935 76.4963 197.935 76.4963C192.479 72.3244 121.299 73.7968 121.299 73.7968ZM156.517 104.472C150.489 104.472 145.604 103.041 145.604 101.282C145.604 99.523 150.489 98.0916 156.517 98.0916C162.545 98.0916 167.429 99.523 167.429 101.282C167.429 103.041 162.545 104.472 156.517 104.472V104.472ZM51.7912 146.925C50.9926 151.625 50.5743 156.381 50.5402 161.147C50.4651 165.897 50.9246 170.642 51.9104 175.292C52.9644 179.88 54.7922 184.413 58.0058 187.849C59.6459 189.533 61.548 190.947 63.64 192.036L65.2021 192.896C65.7262 193.177 66.2766 193.416 66.8126 193.678C67.8879 194.197 68.9667 194.709 70.0785 195.159C74.4804 197.047 79.005 198.677 83.5715 200.176C88.1345 201.688 92.7416 203.075 97.3638 204.414C106.603 207.124 115.931 209.486 125.285 211.848C127.681 212.478 129.924 213.576 131.884 215.077C133.843 216.579 135.48 218.453 136.697 220.589C137.298 221.653 137.795 222.771 138.183 223.927C138.537 225.086 138.804 226.27 138.983 227.467L140.169 234.529C141.801 243.935 143.381 253.35 145.078 262.745L155.272 319.113L154.794 318.705C161.91 318.807 169.045 318.714 176.147 318.337C179.698 318.15 183.245 317.886 186.755 317.429C188.5 317.207 190.234 316.897 191.947 316.499C192.787 316.303 193.612 316.054 194.42 315.754C195.165 315.498 195.852 315.098 196.44 314.576L196.265 315.05C195.758 302.98 195.151 290.907 194.519 278.839C193.879 266.77 193.088 254.711 192.289 242.654C191.453 230.599 190.495 218.551 189.177 206.541C188.516 200.537 187.742 194.545 186.77 188.586C186.275 185.609 185.727 182.638 184.99 179.713C184.635 178.249 184.19 176.807 183.659 175.396C183.394 174.693 183.069 174.015 182.686 173.368C182.526 173.037 182.301 172.74 182.024 172.495C181.748 172.25 181.425 172.062 181.075 171.941L181.069 171.939C181.051 171.936 181.036 171.925 181.026 171.91C181.015 171.896 181.012 171.877 181.015 171.86C181.019 171.842 181.029 171.826 181.044 171.816C181.059 171.806 181.078 171.802 181.096 171.806C181.471 171.922 181.819 172.111 182.12 172.362C182.421 172.614 182.668 172.921 182.846 173.268C183.25 173.917 183.597 174.599 183.883 175.307C184.45 176.717 184.931 178.159 185.323 179.626C186.131 182.55 186.748 185.518 187.312 188.492C188.427 194.446 189.227 200.447 189.976 206.45C191.443 218.461 192.549 230.508 193.532 242.563C194.536 254.616 195.257 266.689 195.948 278.762C196.638 290.836 197.196 302.916 197.62 315.002L197.621 315.023C197.624 315.107 197.61 315.19 197.579 315.267C197.549 315.345 197.504 315.416 197.445 315.476C196.717 316.153 195.852 316.669 194.907 316.991C194.043 317.308 193.159 317.57 192.261 317.775C190.499 318.175 188.718 318.485 186.924 318.703C183.356 319.148 179.782 319.395 176.209 319.565C169.059 319.866 161.916 319.874 154.768 319.691C154.653 319.688 154.542 319.646 154.455 319.572C154.368 319.497 154.309 319.395 154.29 319.283L144.629 262.822C143.017 253.413 141.287 244.023 139.611 234.625L138.316 227.582C138.126 226.421 137.849 225.276 137.488 224.155C137.099 223.052 136.605 221.987 136.014 220.976C134.826 218.959 133.243 217.198 131.358 215.795C129.472 214.393 127.323 213.377 125.035 212.808C115.654 210.63 106.293 208.237 97.0195 205.58C92.3773 204.263 87.7741 202.807 83.1963 201.274C78.6188 199.742 74.0792 198.078 69.6416 196.145C68.5232 195.685 67.4311 195.159 66.3423 194.625C65.7991 194.355 65.2451 194.111 64.711 193.821L63.1176 192.932C60.941 191.781 58.9724 190.281 57.2918 188.492C53.9668 184.826 52.1759 180.133 51.1683 175.453C50.2223 170.742 49.8486 165.936 50.0552 161.138C50.2052 156.357 50.7405 151.595 51.6562 146.898C51.6597 146.88 51.6702 146.865 51.6853 146.855C51.7005 146.845 51.7191 146.841 51.737 146.844C51.7548 146.848 51.7703 146.859 51.7804 146.874C51.7904 146.889 51.7943 146.907 51.7912 146.925ZM165.941 327.91C165.941 327.91 159.989 327.296 159.989 330.118C159.989 332.941 160.485 353.554 162.965 354.168C165.445 354.781 238.113 379.567 257.458 359.444C257.458 359.444 270.85 352.082 245.553 343.493C220.256 334.904 204.383 326.315 204.383 326.315C204.383 326.315 180.326 327.051 179.83 329.505C179.334 331.959 183.054 340.793 183.054 340.793C183.054 340.793 167.181 344.474 165.941 327.91Z"
                                        fill="url(#paint11_linear_258_545)"
                                    />
                                    <path
                                        d="M165.85 328.731C165.821 328.731 165.792 328.727 165.764 328.72C165.674 328.697 165.598 328.638 165.551 328.557C165.504 328.476 165.49 328.38 165.513 328.289C165.844 326.817 165.886 325.294 165.637 323.805C165.388 322.317 164.853 320.894 164.063 319.616C164.037 319.578 164.018 319.535 164.008 319.49C163.998 319.444 163.997 319.397 164.005 319.352C164.013 319.306 164.03 319.262 164.055 319.223C164.079 319.184 164.111 319.15 164.149 319.124C164.186 319.097 164.228 319.078 164.273 319.068C164.317 319.058 164.363 319.057 164.408 319.065C164.453 319.073 164.496 319.09 164.535 319.115C164.573 319.14 164.607 319.173 164.633 319.211C165.49 320.568 166.07 322.087 166.337 323.677C166.604 325.267 166.553 326.896 166.187 328.465C166.168 328.541 166.124 328.609 166.063 328.657C166.002 328.705 165.927 328.731 165.85 328.731ZM201.652 327.075L201.64 327.074C194.072 326.817 186.672 318.786 186.361 318.445C186.33 318.411 186.306 318.371 186.29 318.328C186.274 318.284 186.267 318.238 186.269 318.192C186.27 318.145 186.281 318.1 186.3 318.057C186.319 318.015 186.346 317.977 186.38 317.945C186.413 317.914 186.452 317.889 186.495 317.873C186.538 317.857 186.583 317.849 186.629 317.851C186.675 317.853 186.72 317.864 186.761 317.883C186.803 317.902 186.84 317.93 186.871 317.964C186.946 318.046 194.387 326.12 201.664 326.368C201.755 326.371 201.842 326.411 201.904 326.478C201.967 326.545 202.001 326.635 202 326.727C201.998 326.82 201.961 326.909 201.896 326.974C201.831 327.039 201.744 327.075 201.652 327.075V327.075Z"
                                        fill="url(#paint12_linear_258_545)"
                                    />
                                    <path
                                        d="M29.2093 143.85C29.1592 143.84 29.1095 143.84 29.0599 143.83L29 143.77C29.0714 143.792 29.1412 143.819 29.2093 143.85ZM50.9181 167.211V167.271C50.9482 167.093 50.9779 166.924 51.0081 166.746C50.9779 166.905 50.9482 167.053 50.9181 167.211ZM188 193.176V193.195C187.96 193.205 187.93 193.215 187.89 193.225C187.93 193.205 187.96 193.195 188 193.176Z"
                                        fill="white"
                                    />
                                    <path
                                        d="M19.2068 200.245L20.3857 220.771L21.4612 241.301C21.828 248.143 22.3137 254.982 22.4335 261.834C22.4866 265.26 22.5393 268.686 22.5029 272.116L22.4455 277.26C22.3851 278.977 22.3634 280.691 22.2685 282.409C22.2671 282.435 22.256 282.459 22.2376 282.477C22.2191 282.495 22.1945 282.505 22.1686 282.506C22.1427 282.507 22.1174 282.498 22.0976 282.482C22.0779 282.465 22.0651 282.442 22.0617 282.416C21.8393 280.711 21.6902 279.002 21.5022 277.295L21.062 272.169C20.7704 268.751 20.5683 265.33 20.3661 261.909C19.9755 255.067 19.9508 248.212 19.8074 241.361L19.352 220.809L19 200.253C18.9996 200.226 19.0098 200.2 19.0284 200.181C19.0471 200.161 19.0726 200.15 19.0997 200.149C19.1267 200.148 19.1531 200.157 19.1731 200.175C19.1931 200.193 19.2052 200.218 19.2068 200.245V200.245ZM75.5586 239.077L76.1379 259.98L76.6138 280.884C76.7807 287.852 77.0664 294.819 76.986 301.789C76.9391 305.273 76.8919 308.758 76.7555 312.244L76.5478 317.473C76.4373 319.216 76.3657 320.959 76.2207 322.702C76.2186 322.728 76.2068 322.751 76.1878 322.769C76.1688 322.786 76.1439 322.796 76.118 322.796C76.092 322.797 76.067 322.787 76.0477 322.77C76.0284 322.753 76.0162 322.729 76.0137 322.704C75.8414 320.963 75.7419 319.221 75.6038 317.48L75.3134 312.255C75.1218 308.772 75.0196 305.288 74.9175 301.805C74.7268 294.837 74.9023 287.866 74.9588 280.897L75.1037 259.988L75.3518 239.079C75.3521 239.052 75.3631 239.026 75.3823 239.008C75.4015 238.989 75.4273 238.978 75.4544 238.978C75.4815 238.978 75.5075 238.988 75.527 239.006C75.5465 239.025 75.5578 239.05 75.5586 239.077L75.5586 239.077Z"
                                        fill="url(#paint13_linear_258_545)"
                                    />
                                    <path
                                        d="M22 282.244C26.9706 282.244 31 281.579 31 280.76C31 279.94 26.9706 279.276 22 279.276C17.0294 279.276 13 279.94 13 280.76C13 281.579 17.0294 282.244 22 282.244Z"
                                        fill="url(#paint14_linear_258_545)"
                                    />
                                    <path
                                        d="M75.5 322.796C80.1944 322.796 84 322.132 84 321.313C84 320.493 80.1944 319.829 75.5 319.829C70.8056 319.829 67 320.493 67 321.313C67 322.132 70.8056 322.796 75.5 322.796Z"
                                        fill="url(#paint15_linear_258_545)"
                                    />
                                    <path
                                        d="M133.263 225.241L134.037 234.859L134.707 244.48C134.916 247.688 135.306 250.889 135.273 254.105C135.297 257.337 135.105 260.566 134.699 263.772C134.696 263.797 134.684 263.819 134.665 263.835C134.647 263.852 134.623 263.861 134.598 263.862C134.574 263.863 134.549 263.855 134.53 263.84C134.51 263.825 134.497 263.804 134.492 263.78C133.848 260.612 133.416 257.405 133.2 254.181C132.928 250.976 133.077 247.755 133.048 244.541L133 234.897L133.056 225.249C133.056 225.222 133.066 225.197 133.085 225.178C133.104 225.159 133.129 225.147 133.156 225.147C133.182 225.146 133.209 225.155 133.229 225.172C133.249 225.19 133.261 225.215 133.263 225.241ZM210.56 203.216L211.139 223.935L211.614 244.655C211.781 251.562 212.067 258.467 211.986 265.376C211.938 268.83 211.891 272.284 211.754 275.739L211.545 280.922C211.434 282.65 211.362 284.377 211.216 286.105C211.214 286.131 211.202 286.155 211.183 286.172C211.164 286.19 211.139 286.2 211.113 286.2C211.087 286.2 211.062 286.191 211.043 286.174C211.023 286.156 211.011 286.133 211.009 286.107C210.836 284.381 210.736 282.655 210.598 280.929L210.307 275.751C210.115 272.298 210.013 268.845 209.911 265.392C209.72 258.485 209.897 251.576 209.954 244.668L210.102 223.943L210.352 203.218C210.353 203.191 210.364 203.165 210.383 203.146C210.402 203.127 210.428 203.116 210.455 203.116C210.483 203.116 210.509 203.126 210.528 203.145C210.548 203.164 210.559 203.189 210.56 203.216V203.216Z"
                                        fill="url(#paint16_linear_258_545)"
                                    />
                                    <path
                                        d="M135 263.451C139.971 263.451 144 262.787 144 261.967C144 261.148 139.971 260.483 135 260.483C130.029 260.483 126 261.148 126 261.967C126 262.787 130.029 263.451 135 263.451Z"
                                        fill="url(#paint17_linear_258_545)"
                                    />
                                    <path
                                        d="M210.5 286.2C215.194 286.2 219 285.536 219 284.716C219 283.897 215.194 283.233 210.5 283.233C205.806 283.233 202 283.897 202 284.716C202 285.536 205.806 286.2 210.5 286.2Z"
                                        fill="url(#paint18_linear_258_545)"
                                    />
                                    <defs>
                                        <linearGradient
                                            id="paint0_linear_258_545"
                                            x1="124.5"
                                            y1="171.465"
                                            x2="124.5"
                                            y2="210.04"
                                            gradientUnits="userSpaceOnUse"
                                        >
                                            <stop stop-color="#0EEDFF" />
                                            <stop offset="1" stop-color="#AE74F9" />
                                        </linearGradient>
                                        <linearGradient
                                            id="paint1_linear_258_545"
                                            x1="69"
                                            y1="24.09"
                                            x2="69"
                                            y2="238.723"
                                            gradientUnits="userSpaceOnUse"
                                        >
                                            <stop stop-color="#0EEDFF" />
                                            <stop offset="1" stop-color="#AE74F9" />
                                        </linearGradient>
                                        <linearGradient
                                            id="paint2_linear_258_545"
                                            x1="93"
                                            y1="0.351685"
                                            x2="93"
                                            y2="28.0464"
                                            gradientUnits="userSpaceOnUse"
                                        >
                                            <stop stop-color="#0EEDFF" />
                                            <stop offset="1" stop-color="#AE74F9" />
                                        </linearGradient>
                                        <linearGradient
                                            id="paint3_linear_258_545"
                                            x1="92"
                                            y1="13.2099"
                                            x2="92"
                                            y2="47.8282"
                                            gradientUnits="userSpaceOnUse"
                                        >
                                            <stop stop-color="#0EEDFF" />
                                            <stop offset="1" stop-color="#AE74F9" />
                                        </linearGradient>
                                        <linearGradient
                                            id="paint4_linear_258_545"
                                            x1="52"
                                            y1="43.8719"
                                            x2="52"
                                            y2="118.054"
                                            gradientUnits="userSpaceOnUse"
                                        >
                                            <stop stop-color="#0EEDFF" />
                                            <stop offset="1" stop-color="#AE74F9" />
                                        </linearGradient>
                                        <linearGradient
                                            id="paint5_linear_258_545"
                                            x1="82"
                                            y1="45.85"
                                            x2="82"
                                            y2="81.4574"
                                            gradientUnits="userSpaceOnUse"
                                        >
                                            <stop stop-color="#0EEDFF" />
                                            <stop offset="1" stop-color="#AE74F9" />
                                        </linearGradient>
                                        <linearGradient
                                            id="paint6_linear_258_545"
                                            x1="81"
                                            y1="48.8173"
                                            x2="81"
                                            y2="147.727"
                                            gradientUnits="userSpaceOnUse"
                                        >
                                            <stop stop-color="#0EEDFF" />
                                            <stop offset="1" stop-color="#AE74F9" />
                                        </linearGradient>
                                        <linearGradient
                                            id="paint7_linear_258_545"
                                            x1="84.5"
                                            y1="117.065"
                                            x2="84.5"
                                            y2="128.934"
                                            gradientUnits="userSpaceOnUse"
                                        >
                                            <stop stop-color="#0EEDFF" />
                                            <stop offset="1" stop-color="#AE74F9" />
                                        </linearGradient>
                                        <linearGradient
                                            id="paint8_linear_258_545"
                                            x1="78.5"
                                            y1="122.01"
                                            x2="78.5"
                                            y2="187.29"
                                            gradientUnits="userSpaceOnUse"
                                        >
                                            <stop stop-color="#0EEDFF" />
                                            <stop offset="1" stop-color="#AE74F9" />
                                        </linearGradient>
                                        <linearGradient
                                            id="paint9_linear_258_545"
                                            x1="109.5"
                                            y1="144.76"
                                            x2="109.5"
                                            y2="167.509"
                                            gradientUnits="userSpaceOnUse"
                                        >
                                            <stop stop-color="#0EEDFF" />
                                            <stop offset="1" stop-color="#AE74F9" />
                                        </linearGradient>
                                        <linearGradient
                                            id="paint10_linear_258_545"
                                            x1="163.5"
                                            y1="73.5447"
                                            x2="163.5"
                                            y2="175.421"
                                            gradientUnits="userSpaceOnUse"
                                        >
                                            <stop stop-color="#0EEDFF" />
                                            <stop offset="1" stop-color="#AE74F9" />
                                        </linearGradient>
                                        <linearGradient
                                            id="paint11_linear_258_545"
                                            x1="155.5"
                                            y1="73.5447"
                                            x2="155.5"
                                            y2="367.306"
                                            gradientUnits="userSpaceOnUse"
                                        >
                                            <stop stop-color="#0EEDFF" />
                                            <stop offset="1" stop-color="#AE74F9" />
                                        </linearGradient>
                                        <linearGradient
                                            id="paint12_linear_258_545"
                                            x1="183"
                                            y1="317.851"
                                            x2="183"
                                            y2="328.731"
                                            gradientUnits="userSpaceOnUse"
                                        >
                                            <stop stop-color="#0EEDFF" />
                                            <stop offset="1" stop-color="#AE74F9" />
                                        </linearGradient>
                                        <linearGradient
                                            id="paint13_linear_258_545"
                                            x1="48"
                                            y1="200.149"
                                            x2="48"
                                            y2="322.796"
                                            gradientUnits="userSpaceOnUse"
                                        >
                                            <stop stop-color="#0EEDFF" />
                                            <stop offset="1" stop-color="#AE74F9" />
                                        </linearGradient>
                                        <linearGradient
                                            id="paint14_linear_258_545"
                                            x1="22"
                                            y1="279.276"
                                            x2="22"
                                            y2="282.244"
                                            gradientUnits="userSpaceOnUse"
                                        >
                                            <stop stop-color="#0EEDFF" />
                                            <stop offset="1" stop-color="#AE74F9" />
                                        </linearGradient>
                                        <linearGradient
                                            id="paint15_linear_258_545"
                                            x1="75.5"
                                            y1="319.829"
                                            x2="75.5"
                                            y2="322.796"
                                            gradientUnits="userSpaceOnUse"
                                        >
                                            <stop stop-color="#0EEDFF" />
                                            <stop offset="1" stop-color="#AE74F9" />
                                        </linearGradient>
                                        <linearGradient
                                            id="paint16_linear_258_545"
                                            x1="172.5"
                                            y1="203.116"
                                            x2="172.5"
                                            y2="286.2"
                                            gradientUnits="userSpaceOnUse"
                                        >
                                            <stop stop-color="#0EEDFF" />
                                            <stop offset="1" stop-color="#AE74F9" />
                                        </linearGradient>
                                        <linearGradient
                                            id="paint17_linear_258_545"
                                            x1="135"
                                            y1="260.483"
                                            x2="135"
                                            y2="263.451"
                                            gradientUnits="userSpaceOnUse"
                                        >
                                            <stop stop-color="#0EEDFF" />
                                            <stop offset="1" stop-color="#AE74F9" />
                                        </linearGradient>
                                        <linearGradient
                                            id="paint18_linear_258_545"
                                            x1="210.5"
                                            y1="283.233"
                                            x2="210.5"
                                            y2="286.2"
                                            gradientUnits="userSpaceOnUse"
                                        >
                                            <stop stop-color="#0EEDFF" />
                                            <stop offset="1" stop-color="#AE74F9" />
                                        </linearGradient>
                                    </defs>
                                </svg>