<svg width="381" height="356" viewBox="0 0 381 356" fill="none" xmlns="http://www.w3.org/2000/svg">
<g clip-path="url(#clip0_278_4369)">
<path opacity="0.18" d="M86.1778 44.5021C66.0279 52.2531 44.4788 57.5744 26.7211 69.5669C8.96345 81.5593 -4.46568 102.833 1.38692 122.912C5.92784 138.462 21.0684 150.622 21.7555 166.76C22.3051 179.641 13.4357 190.889 8.72609 202.96C-0.786725 227.347 7.4394 255.753 24.2727 276.15C41.1059 296.548 65.372 310.118 90.2315 320.509C149.145 345.055 213.713 354.395 277.54 347.601C296.565 345.549 315.76 341.95 332.624 333.251C349.489 324.552 363.911 310.136 368.627 292.318C375.041 268.111 363.043 241.985 369.601 217.814C372.168 208.335 377.49 199.678 379.757 190.127C385.21 167.108 371.925 143.597 355.023 126.464C338.121 109.33 317.259 95.9155 301.806 77.5578C291.1 64.8455 283.255 50.0574 272.249 37.585C250.625 13.0602 215.703 -1.42195 182.199 0.113847C148.914 1.63165 117.577 32.4257 86.1778 44.5021Z" fill="url(#paint0_linear_278_4369)"/>
<path d="M285.36 22.5211H95.6468C83.5662 22.5211 73.7729 31.9273 73.7729 43.5304V302.517C73.7729 314.12 83.5662 323.526 95.6468 323.526H285.36C297.44 323.526 307.234 314.12 307.234 302.517V43.5304C307.234 31.9273 297.44 22.5211 285.36 22.5211Z" fill="url(#paint1_linear_278_4369)"/>
<path d="M285.36 22.5211H95.6468C83.5662 22.5211 73.7729 31.9273 73.7729 43.5304V302.517C73.7729 314.12 83.5662 323.526 95.6468 323.526H285.36C297.44 323.526 307.234 314.12 307.234 302.517V43.5304C307.234 31.9273 297.44 22.5211 285.36 22.5211Z" fill="url(#paint2_linear_278_4369)"/>
<path d="M291.668 57.1366V295.222C291.667 300.166 289.621 304.908 285.98 308.404C282.34 311.901 277.403 313.866 272.255 313.867H110.044C107.495 313.867 104.971 313.385 102.616 312.448C100.261 311.511 98.1212 310.137 96.3191 308.406C94.5169 306.674 93.0876 304.619 92.1127 302.357C91.1377 300.095 90.6364 297.67 90.6372 295.222V57.1366C90.6364 54.6883 91.1377 52.2639 92.1127 50.0017C93.0876 47.7396 94.5169 45.684 96.3191 43.9526C98.1212 42.2211 100.261 40.8476 102.616 39.9105C104.971 38.9734 107.495 38.491 110.044 38.491H272.255C277.403 38.4926 282.34 40.4576 285.98 43.954C289.621 47.4503 291.667 52.192 291.668 57.1366Z" fill="url(#paint3_linear_278_4369)"/>
<path opacity="0.69" d="M291.668 57.1366V295.222C291.667 300.166 289.621 304.908 285.98 308.404C282.34 311.901 277.403 313.866 272.255 313.867H110.044C107.495 313.867 104.971 313.385 102.616 312.448C100.261 311.511 98.1212 310.137 96.3191 308.406C94.5169 306.674 93.0876 304.619 92.1127 302.357C91.1377 300.095 90.6364 297.67 90.6372 295.222V57.1366C90.6364 54.6883 91.1377 52.2639 92.1127 50.0017C93.0876 47.7396 94.5169 45.684 96.3191 43.9526C98.1212 42.2211 100.261 40.8476 102.616 39.9105C104.971 38.9734 107.495 38.491 110.044 38.491H272.255C277.403 38.4926 282.34 40.4576 285.98 43.954C289.621 47.4503 291.667 52.192 291.668 57.1366Z" fill="url(#paint4_linear_278_4369)"/>
<g filter="url(#filter0_d_278_4369)">
<path d="M174.634 92.3245V130.69L171.841 128.13C167.114 123.793 160.815 121.37 154.261 121.368H54.994C51.0173 121.368 47.2036 119.858 44.3916 117.172C41.5797 114.486 40 110.842 40 107.043V92.3245C40 88.5254 41.5797 84.8819 44.3916 82.1956C47.2036 79.5092 51.0173 78 54.994 78H159.658C162.101 77.9985 164.506 78.5683 166.664 79.6597C168.823 80.7511 170.669 82.3309 172.041 84.261C173.739 86.6364 174.643 89.448 174.634 92.3245ZM337 162.634V177.37C337 181.17 335.42 184.813 332.608 187.499C329.796 190.186 325.983 191.695 322.006 191.695H222.764C216.209 191.697 209.907 194.12 205.178 198.457L202.366 201V162.634C202.362 160.752 202.747 158.887 203.499 157.148C204.251 155.408 205.356 153.827 206.749 152.496C208.142 151.165 209.796 150.11 211.618 149.392C213.439 148.673 215.39 148.306 217.36 148.31H322.025C325.998 148.314 329.807 149.826 332.615 152.511C335.423 155.197 337 158.838 337 162.634Z" fill="white"/>
</g>
<g filter="url(#filter1_d_278_4369)">
<path d="M195.656 227.734L73.6514 227C69.0265 226.978 64.5814 228.704 61.2928 231.8C58.0043 234.896 56.1413 239.108 56.1131 243.511L56.0004 260.624C55.9855 262.806 56.4223 264.97 57.2859 266.991C58.1495 269.013 59.423 270.853 61.0335 272.406C62.6441 273.959 64.5603 275.195 66.6726 276.043C68.7849 276.891 71.052 277.335 73.3445 277.349L189.016 278.035C196.66 278.084 203.988 280.945 209.467 286.019L212.705 289L212.887 261.572L212.931 255.013L213 244.447C213.014 242.265 212.576 240.103 211.712 238.082C210.848 236.062 209.574 234.223 207.964 232.671C206.353 231.119 204.437 229.884 202.326 229.037C200.214 228.19 197.947 227.747 195.656 227.734Z" fill="white"/>
</g>
<path d="M213.429 30.4581H173.816C172.788 30.4581 171.955 31.2585 171.955 32.2458C171.955 33.2332 172.788 34.0336 173.816 34.0336H213.429C214.457 34.0336 215.291 33.2332 215.291 32.2458C215.291 31.2585 214.457 30.4581 213.429 30.4581Z" fill="url(#paint5_linear_278_4369)"/>
<g opacity="0.32" filter="url(#filter2_f_278_4369)">
<path d="M156.776 100H55.2238C51.7865 100 49 101.342 49 102.997V103.003C49 104.658 51.7865 106 55.2238 106H156.776C160.213 106 163 104.658 163 103.003V102.997C163 101.342 160.213 100 156.776 100Z" fill="url(#paint6_linear_278_4369)" fill-opacity="0.6"/>
</g>
<g opacity="0.32" filter="url(#filter3_f_278_4369)">
<path d="M156.776 109H55.2238C51.7865 109 49 110.342 49 111.997V112.003C49 113.658 51.7865 115 55.2238 115H156.776C160.213 115 163 113.658 163 112.003V111.997C163 110.342 160.213 109 156.776 109Z" fill="url(#paint7_linear_278_4369)" fill-opacity="0.6"/>
</g>
<g opacity="0.32" filter="url(#filter4_f_278_4369)">
<path d="M315.213 172H220.787C217.591 172 215 173.342 215 174.997V175.003C215 176.658 217.591 178 220.787 178H315.213C318.409 178 321 176.658 321 175.003V174.997C321 173.342 318.409 172 315.213 172Z" fill="url(#paint8_linear_278_4369)" fill-opacity="0.6"/>
</g>
<g opacity="0.32" filter="url(#filter5_f_278_4369)">
<path d="M315.213 180H220.787C217.591 180 215 181.342 215 182.997V183.003C215 184.658 217.591 186 220.787 186H315.213C318.409 186 321 184.658 321 183.003V182.997C321 181.342 318.409 180 315.213 180Z" fill="url(#paint9_linear_278_4369)" fill-opacity="0.6"/>
</g>
<g opacity="0.32" filter="url(#filter6_f_278_4369)">
<path d="M185.394 255H77.606C73.9576 255 71 256.342 71 257.997V258.003C71 259.658 73.9576 261 77.606 261H185.394C189.042 261 192 259.658 192 258.003V257.997C192 256.342 189.042 255 185.394 255Z" fill="url(#paint10_linear_278_4369)" fill-opacity="0.6"/>
</g>
<g opacity="0.32" filter="url(#filter7_f_278_4369)">
<path d="M185.394 264H77.606C73.9576 264 71 265.342 71 266.997V267.003C71 268.658 73.9576 270 77.606 270H185.394C189.042 270 192 268.658 192 267.003V266.997C192 265.342 189.042 264 185.394 264Z" fill="url(#paint11_linear_278_4369)" fill-opacity="0.6"/>
</g>
<path d="M121.017 182.118C123.522 181.114 124.706 178.349 123.661 175.943C122.616 173.536 119.738 172.399 117.232 173.403C114.727 174.406 113.543 177.171 114.588 179.578C115.633 181.984 118.511 183.121 121.017 182.118Z" fill="url(#paint12_linear_278_4369)"/>
<path d="M136.124 182.119C138.63 181.115 139.814 178.35 138.769 175.944C137.724 173.537 134.845 172.4 132.34 173.404C129.834 174.407 128.65 177.172 129.695 179.579C130.74 181.985 133.618 183.123 136.124 182.119Z" fill="url(#paint13_linear_278_4369)"/>
<path d="M151.231 182.118C153.736 181.114 154.92 178.349 153.875 175.943C152.83 173.536 149.952 172.399 147.446 173.403C144.94 174.407 143.756 177.171 144.801 179.578C145.846 181.984 148.725 183.122 151.231 182.118Z" fill="url(#paint14_linear_278_4369)"/>
<path d="M239.994 262.58C242.709 262.58 244.91 260.466 244.91 257.859C244.91 255.251 242.709 253.137 239.994 253.137C237.279 253.137 235.079 255.251 235.079 257.859C235.079 260.466 237.279 262.58 239.994 262.58Z" fill="url(#paint15_linear_278_4369)"/>
<path d="M255.097 262.58C257.812 262.58 260.013 260.466 260.013 257.859C260.013 255.251 257.812 253.137 255.097 253.137C252.382 253.137 250.182 255.251 250.182 257.859C250.182 260.466 252.382 262.58 255.097 262.58Z" fill="url(#paint16_linear_278_4369)"/>
<path d="M270.2 262.58C272.915 262.58 275.116 260.466 275.116 257.859C275.116 255.251 272.915 253.137 270.2 253.137C267.485 253.137 265.285 255.251 265.285 257.859C265.285 260.466 267.485 262.58 270.2 262.58Z" fill="url(#paint17_linear_278_4369)"/>
<path d="M219.969 101.861C222.684 101.861 224.885 99.747 224.885 97.1395C224.885 94.5319 222.684 92.4181 219.969 92.4181C217.254 92.4181 215.053 94.5319 215.053 97.1395C215.053 99.747 217.254 101.861 219.969 101.861Z" fill="url(#paint18_linear_278_4369)"/>
<path d="M235.079 101.861C237.794 101.861 239.994 99.747 239.994 97.1395C239.994 94.5319 237.794 92.4181 235.079 92.4181C232.364 92.4181 230.163 94.5319 230.163 97.1395C230.163 99.747 232.364 101.861 235.079 101.861Z" fill="url(#paint19_linear_278_4369)"/>
<path d="M250.182 101.861C252.897 101.861 255.097 99.747 255.097 97.1395C255.097 94.5319 252.897 92.4181 250.182 92.4181C247.467 92.4181 245.266 94.5319 245.266 97.1395C245.266 99.747 247.467 101.861 250.182 101.861Z" fill="url(#paint20_linear_278_4369)"/>
<path opacity="0.19" d="M74.8222 324.336L75.7778 328.5C69.5692 332.825 61.6179 333.857 54.1476 335.519C46.6772 337.18 38.7572 340.066 34.9033 346.431C40.4561 353.342 50.7997 354.176 59.8877 354.404C133.175 356.24 206.498 356.492 279.857 355.16C303.13 354.734 326.534 354.14 349.376 349.839C351.013 349.533 352.843 349.077 353.661 347.679C355.06 345.279 352.412 342.598 349.994 341.194C341.976 336.583 332.787 334.189 323.442 334.277C319.932 334.319 315.322 333.959 314.517 330.677C314.242 329.507 314.616 328.278 314.573 327.078C314.473 324.108 311.793 321.678 308.851 320.779C305.909 319.879 302.724 320.179 299.645 320.449C241.612 325.811 183.247 327.066 125.022 324.204C115.79 323.748 106.546 323.196 97.3769 322.068C88.7697 321.025 82.5424 319.405 74.8222 324.336Z" fill="url(#paint21_linear_278_4369)"/>
<path d="M95.552 91.816H94.16V93.24H92.864V91.816H91.472V90.592H92.864V89.16H94.16V90.592H95.552V91.816ZM100.111 89.184L98.1034 94H96.7034L98.7354 89.336H96.2474V88.168H100.111V89.184ZM102.641 95.672C102.123 95.176 101.721 94.536 101.433 93.752C101.145 92.968 101.001 92.1227 101.001 91.216C101.001 90.2987 101.15 89.4427 101.449 88.648C101.747 87.848 102.171 87.1973 102.721 86.696H104.065V86.824C103.505 87.3787 103.073 88.0453 102.769 88.824C102.465 89.5973 102.313 90.3947 102.313 91.216C102.313 92.032 102.459 92.8187 102.753 93.576C103.046 94.3333 103.459 94.9893 103.993 95.544V95.672H102.641ZM105.949 92.288C106.029 92.7093 106.275 92.92 106.685 92.92C106.968 92.92 107.168 92.7947 107.285 92.544C107.403 92.2933 107.461 91.8853 107.461 91.32C107.344 91.4853 107.184 91.6133 106.981 91.704C106.779 91.7947 106.552 91.84 106.301 91.84C105.96 91.84 105.656 91.7707 105.389 91.632C105.123 91.488 104.912 91.2773 104.757 91C104.608 90.7173 104.533 90.376 104.533 89.976C104.533 89.5813 104.613 89.2373 104.773 88.944C104.939 88.6507 105.171 88.424 105.469 88.264C105.773 88.104 106.131 88.024 106.541 88.024C107.331 88.024 107.883 88.2693 108.197 88.76C108.512 89.2507 108.669 89.9733 108.669 90.928C108.669 91.6213 108.605 92.1947 108.477 92.648C108.355 93.096 108.144 93.4373 107.845 93.672C107.552 93.9067 107.149 94.024 106.637 94.024C106.232 94.024 105.885 93.944 105.597 93.784C105.315 93.624 105.096 93.4133 104.941 93.152C104.792 92.8907 104.707 92.6027 104.685 92.288H105.949ZM106.613 90.76C106.837 90.76 107.016 90.6933 107.149 90.56C107.283 90.4213 107.349 90.2347 107.349 90C107.349 89.744 107.28 89.5467 107.141 89.408C107.003 89.2693 106.816 89.2 106.581 89.2C106.347 89.2 106.16 89.272 106.021 89.416C105.888 89.5547 105.821 89.7467 105.821 89.992C105.821 90.2213 105.888 90.408 106.021 90.552C106.16 90.6907 106.357 90.76 106.613 90.76ZM109.351 92.904C109.532 92.76 109.615 92.6933 109.599 92.704C110.122 92.272 110.532 91.9173 110.831 91.64C111.135 91.3627 111.391 91.072 111.599 90.768C111.807 90.464 111.911 90.168 111.911 89.88C111.911 89.6613 111.86 89.4907 111.759 89.368C111.658 89.2453 111.506 89.184 111.303 89.184C111.1 89.184 110.94 89.2613 110.823 89.416C110.711 89.5653 110.655 89.7787 110.655 90.056H109.335C109.346 89.6027 109.442 89.224 109.623 88.92C109.81 88.616 110.052 88.392 110.351 88.248C110.655 88.104 110.991 88.032 111.359 88.032C111.994 88.032 112.471 88.1947 112.791 88.52C113.116 88.8453 113.279 89.2693 113.279 89.792C113.279 90.3627 113.084 90.8933 112.695 91.384C112.306 91.8693 111.81 92.344 111.207 92.808H113.367V93.92H109.351V92.904ZM117.697 89.184L115.689 94H114.289L116.321 89.336H113.833V88.168H117.697V89.184ZM118.019 95.672V95.544C118.552 94.9893 118.965 94.3333 119.259 93.576C119.552 92.8187 119.699 92.032 119.699 91.216C119.699 90.3947 119.547 89.5973 119.243 88.824C118.939 88.0453 118.507 87.3787 117.947 86.824V86.696H119.291C119.84 87.1973 120.264 87.848 120.563 88.648C120.861 89.4427 121.011 90.2987 121.011 91.216C121.011 92.1227 120.867 92.968 120.579 93.752C120.291 94.536 119.888 95.176 119.371 95.672H118.019ZM124.959 88.44L125.407 89.256L124.423 89.6L125.407 89.936L124.927 90.784L124.127 90.08L124.327 91.12H123.391L123.583 90.08L122.791 90.792L122.295 89.928L123.279 89.584L122.303 89.264L122.759 88.44L123.591 89.136L123.383 88.08H124.335L124.127 89.136L124.959 88.44ZM129.233 88.44L129.681 89.256L128.697 89.6L129.681 89.936L129.201 90.784L128.401 90.08L128.601 91.12H127.665L127.857 90.08L127.065 90.792L126.569 89.928L127.553 89.584L126.577 89.264L127.033 88.44L127.865 89.136L127.657 88.08H128.609L128.401 89.136L129.233 88.44ZM133.506 88.44L133.954 89.256L132.97 89.6L133.954 89.936L133.474 90.784L132.674 90.08L132.874 91.12H131.938L132.13 90.08L131.338 90.792L130.842 89.928L131.826 89.584L130.85 89.264L131.306 88.44L132.138 89.136L131.93 88.08H132.882L132.674 89.136L133.506 88.44ZM140.155 90.624V91.76H136.635V90.624H140.155ZM141.171 92.904C141.353 92.76 141.435 92.6933 141.419 92.704C141.942 92.272 142.353 91.9173 142.651 91.64C142.955 91.3627 143.211 91.072 143.419 90.768C143.627 90.464 143.731 90.168 143.731 89.88C143.731 89.6613 143.681 89.4907 143.579 89.368C143.478 89.2453 143.326 89.184 143.123 89.184C142.921 89.184 142.761 89.2613 142.643 89.416C142.531 89.5653 142.475 89.7787 142.475 90.056H141.155C141.166 89.6027 141.262 89.224 141.443 88.92C141.63 88.616 141.873 88.392 142.171 88.248C142.475 88.104 142.811 88.032 143.179 88.032C143.814 88.032 144.291 88.1947 144.611 88.52C144.937 88.8453 145.099 89.2693 145.099 89.792C145.099 90.3627 144.905 90.8933 144.515 91.384C144.126 91.8693 143.63 92.344 143.027 92.808H145.187V93.92H141.171V92.904ZM145.646 89.432V88.16H147.862V94H146.438V89.432H145.646ZM152.374 90.624V91.76H148.854V90.624H152.374ZM154.398 90.864C153.897 90.5973 153.646 90.1787 153.646 89.608C153.646 89.32 153.721 89.0587 153.87 88.824C154.019 88.584 154.246 88.3947 154.55 88.256C154.854 88.112 155.227 88.04 155.67 88.04C156.113 88.04 156.483 88.112 156.782 88.256C157.086 88.3947 157.313 88.584 157.462 88.824C157.611 89.0587 157.686 89.32 157.686 89.608C157.686 89.896 157.617 90.1467 157.478 90.36C157.345 90.5733 157.163 90.7413 156.934 90.864C157.222 91.0027 157.443 91.1947 157.598 91.44C157.753 91.68 157.83 91.9627 157.83 92.288C157.83 92.6667 157.734 92.9947 157.542 93.272C157.35 93.544 157.089 93.752 156.758 93.896C156.433 94.04 156.07 94.112 155.67 94.112C155.27 94.112 154.905 94.04 154.574 93.896C154.249 93.752 153.99 93.544 153.798 93.272C153.606 92.9947 153.51 92.6667 153.51 92.288C153.51 91.9573 153.587 91.672 153.742 91.432C153.897 91.1867 154.115 90.9973 154.398 90.864ZM156.358 89.816C156.358 89.5973 156.294 89.4293 156.166 89.312C156.043 89.1893 155.878 89.128 155.67 89.128C155.462 89.128 155.294 89.1893 155.166 89.312C155.043 89.4347 154.982 89.6053 154.982 89.824C154.982 90.032 155.046 90.1973 155.174 90.32C155.302 90.4373 155.467 90.496 155.67 90.496C155.873 90.496 156.038 90.4347 156.166 90.312C156.294 90.1893 156.358 90.024 156.358 89.816ZM155.67 91.456C155.419 91.456 155.217 91.5253 155.062 91.664C154.907 91.7973 154.83 91.984 154.83 92.224C154.83 92.448 154.905 92.632 155.054 92.776C155.209 92.92 155.414 92.992 155.67 92.992C155.926 92.992 156.126 92.92 156.27 92.776C156.419 92.632 156.494 92.448 156.494 92.224C156.494 91.9893 156.417 91.8027 156.262 91.664C156.113 91.5253 155.915 91.456 155.67 91.456ZM162.354 89.184L160.346 94H158.946L160.978 89.336H158.49V88.168H162.354V89.184Z" fill="#748CFC"/>
<path d="M219.536 160.384V161.48H218.048V166H216.68V161.48H215.192V160.384H219.536ZM224.431 163.696C224.431 163.824 224.423 163.957 224.407 164.096H221.311C221.332 164.373 221.42 164.587 221.575 164.736C221.735 164.88 221.929 164.952 222.159 164.952C222.5 164.952 222.737 164.808 222.871 164.52H224.327C224.252 164.813 224.116 165.077 223.919 165.312C223.727 165.547 223.484 165.731 223.191 165.864C222.897 165.997 222.569 166.064 222.207 166.064C221.769 166.064 221.38 165.971 221.039 165.784C220.697 165.597 220.431 165.331 220.239 164.984C220.047 164.637 219.951 164.232 219.951 163.768C219.951 163.304 220.044 162.899 220.231 162.552C220.423 162.205 220.689 161.939 221.031 161.752C221.372 161.565 221.764 161.472 222.207 161.472C222.639 161.472 223.023 161.563 223.359 161.744C223.695 161.925 223.956 162.184 224.143 162.52C224.335 162.856 224.431 163.248 224.431 163.696ZM223.031 163.336C223.031 163.101 222.951 162.915 222.791 162.776C222.631 162.637 222.431 162.568 222.191 162.568C221.961 162.568 221.767 162.635 221.607 162.768C221.452 162.901 221.356 163.091 221.319 163.336H223.031ZM226.52 160.08V166H225.152V160.08H226.52ZM231.72 163.696C231.72 163.824 231.712 163.957 231.696 164.096H228.6C228.621 164.373 228.709 164.587 228.864 164.736C229.024 164.88 229.218 164.952 229.448 164.952C229.789 164.952 230.026 164.808 230.16 164.52H231.616C231.541 164.813 231.405 165.077 231.208 165.312C231.016 165.547 230.773 165.731 230.48 165.864C230.186 165.997 229.858 166.064 229.496 166.064C229.058 166.064 228.669 165.971 228.328 165.784C227.986 165.597 227.72 165.331 227.528 164.984C227.336 164.637 227.24 164.232 227.24 163.768C227.24 163.304 227.333 162.899 227.52 162.552C227.712 162.205 227.978 161.939 228.32 161.752C228.661 161.565 229.053 161.472 229.496 161.472C229.928 161.472 230.312 161.563 230.648 161.744C230.984 161.925 231.245 162.184 231.432 162.52C231.624 162.856 231.72 163.248 231.72 163.696ZM230.32 163.336C230.32 163.101 230.24 162.915 230.08 162.776C229.92 162.637 229.72 162.568 229.48 162.568C229.25 162.568 229.056 162.635 228.896 162.768C228.741 162.901 228.645 163.091 228.608 163.336H230.32ZM234.137 161.472C234.452 161.472 234.727 161.536 234.961 161.664C235.201 161.792 235.385 161.96 235.513 162.168V161.536H236.881V165.992C236.881 166.403 236.799 166.773 236.633 167.104C236.473 167.44 236.225 167.707 235.889 167.904C235.559 168.101 235.145 168.2 234.649 168.2C233.988 168.2 233.452 168.043 233.041 167.728C232.631 167.419 232.396 166.997 232.337 166.464H233.689C233.732 166.635 233.833 166.768 233.993 166.864C234.153 166.965 234.351 167.016 234.585 167.016C234.868 167.016 235.092 166.933 235.257 166.768C235.428 166.608 235.513 166.349 235.513 165.992V165.36C235.38 165.568 235.196 165.739 234.961 165.872C234.727 166 234.452 166.064 234.137 166.064C233.769 166.064 233.436 165.971 233.137 165.784C232.839 165.592 232.601 165.323 232.425 164.976C232.255 164.624 232.169 164.219 232.169 163.76C232.169 163.301 232.255 162.899 232.425 162.552C232.601 162.205 232.839 161.939 233.137 161.752C233.436 161.565 233.769 161.472 234.137 161.472ZM235.513 163.768C235.513 163.427 235.417 163.157 235.225 162.96C235.039 162.763 234.809 162.664 234.537 162.664C234.265 162.664 234.033 162.763 233.841 162.96C233.655 163.152 233.561 163.419 233.561 163.76C233.561 164.101 233.655 164.373 233.841 164.576C234.033 164.773 234.265 164.872 234.537 164.872C234.809 164.872 235.039 164.773 235.225 164.576C235.417 164.379 235.513 164.109 235.513 163.768ZM239.239 162.28C239.399 162.035 239.599 161.843 239.839 161.704C240.079 161.56 240.346 161.488 240.639 161.488V162.936H240.263C239.922 162.936 239.666 163.011 239.495 163.16C239.324 163.304 239.239 163.56 239.239 163.928V166H237.871V161.536H239.239V162.28ZM241.021 163.76C241.021 163.301 241.106 162.899 241.277 162.552C241.453 162.205 241.69 161.939 241.989 161.752C242.288 161.565 242.621 161.472 242.989 161.472C243.304 161.472 243.578 161.536 243.813 161.664C244.053 161.792 244.237 161.96 244.365 162.168V161.536H245.733V166H244.365V165.368C244.232 165.576 244.045 165.744 243.805 165.872C243.57 166 243.296 166.064 242.981 166.064C242.618 166.064 242.288 165.971 241.989 165.784C241.69 165.592 241.453 165.323 241.277 164.976C241.106 164.624 241.021 164.219 241.021 163.76ZM244.365 163.768C244.365 163.427 244.269 163.157 244.077 162.96C243.89 162.763 243.661 162.664 243.389 162.664C243.117 162.664 242.885 162.763 242.693 162.96C242.506 163.152 242.413 163.419 242.413 163.76C242.413 164.101 242.506 164.373 242.693 164.576C242.885 164.773 243.117 164.872 243.389 164.872C243.661 164.872 243.89 164.773 244.077 164.576C244.269 164.379 244.365 164.109 244.365 163.768ZM252.419 161.488C252.973 161.488 253.413 161.656 253.739 161.992C254.069 162.328 254.235 162.795 254.235 163.392V166H252.875V163.576C252.875 163.288 252.797 163.067 252.643 162.912C252.493 162.752 252.285 162.672 252.019 162.672C251.752 162.672 251.541 162.752 251.387 162.912C251.237 163.067 251.163 163.288 251.163 163.576V166H249.803V163.576C249.803 163.288 249.725 163.067 249.571 162.912C249.421 162.752 249.213 162.672 248.947 162.672C248.68 162.672 248.469 162.752 248.315 162.912C248.165 163.067 248.091 163.288 248.091 163.576V166H246.723V161.536H248.091V162.096C248.229 161.909 248.411 161.763 248.635 161.656C248.859 161.544 249.112 161.488 249.395 161.488C249.731 161.488 250.029 161.56 250.291 161.704C250.557 161.848 250.765 162.053 250.915 162.32C251.069 162.075 251.28 161.875 251.547 161.72C251.813 161.565 252.104 161.488 252.419 161.488Z" fill="#748CFC"/>
<path d="M153.152 238.384V239.48H150.864V240.664H152.576V241.728H150.864V244H149.496V238.384H153.152ZM153.599 241.76C153.599 241.301 153.684 240.899 153.855 240.552C154.031 240.205 154.268 239.939 154.567 239.752C154.866 239.565 155.199 239.472 155.567 239.472C155.882 239.472 156.156 239.536 156.391 239.664C156.631 239.792 156.815 239.96 156.943 240.168V239.536H158.311V244H156.943V243.368C156.81 243.576 156.623 243.744 156.383 243.872C156.148 244 155.874 244.064 155.559 244.064C155.196 244.064 154.866 243.971 154.567 243.784C154.268 243.592 154.031 243.323 153.855 242.976C153.684 242.624 153.599 242.219 153.599 241.76ZM156.943 241.768C156.943 241.427 156.847 241.157 156.655 240.96C156.468 240.763 156.239 240.664 155.967 240.664C155.695 240.664 155.463 240.763 155.271 240.96C155.084 241.152 154.991 241.419 154.991 241.76C154.991 242.101 155.084 242.373 155.271 242.576C155.463 242.773 155.695 242.872 155.967 242.872C156.239 242.872 156.468 242.773 156.655 242.576C156.847 242.379 156.943 242.109 156.943 241.768ZM159.029 241.768C159.029 241.304 159.122 240.899 159.309 240.552C159.501 240.205 159.765 239.939 160.101 239.752C160.442 239.565 160.831 239.472 161.269 239.472C161.829 239.472 162.295 239.619 162.669 239.912C163.047 240.205 163.295 240.619 163.413 241.152H161.957C161.834 240.811 161.597 240.64 161.245 240.64C160.994 240.64 160.794 240.739 160.645 240.936C160.495 241.128 160.421 241.405 160.421 241.768C160.421 242.131 160.495 242.411 160.645 242.608C160.794 242.8 160.994 242.896 161.245 242.896C161.597 242.896 161.834 242.725 161.957 242.384H163.413C163.295 242.907 163.047 243.317 162.669 243.616C162.29 243.915 161.823 244.064 161.269 244.064C160.831 244.064 160.442 243.971 160.101 243.784C159.765 243.597 159.501 243.331 159.309 242.984C159.122 242.637 159.029 242.232 159.029 241.768ZM168.352 241.696C168.352 241.824 168.344 241.957 168.328 242.096H165.232C165.254 242.373 165.342 242.587 165.496 242.736C165.656 242.88 165.851 242.952 166.08 242.952C166.422 242.952 166.659 242.808 166.792 242.52H168.248C168.174 242.813 168.038 243.077 167.84 243.312C167.648 243.547 167.406 243.731 167.112 243.864C166.819 243.997 166.491 244.064 166.128 244.064C165.691 244.064 165.302 243.971 164.96 243.784C164.619 243.597 164.352 243.331 164.16 242.984C163.968 242.637 163.872 242.232 163.872 241.768C163.872 241.304 163.966 240.899 164.152 240.552C164.344 240.205 164.611 239.939 164.952 239.752C165.294 239.565 165.686 239.472 166.128 239.472C166.56 239.472 166.944 239.563 167.28 239.744C167.616 239.925 167.878 240.184 168.064 240.52C168.256 240.856 168.352 241.248 168.352 241.696ZM166.952 241.336C166.952 241.101 166.872 240.915 166.712 240.776C166.552 240.637 166.352 240.568 166.112 240.568C165.883 240.568 165.688 240.635 165.528 240.768C165.374 240.901 165.278 241.091 165.24 241.336H166.952ZM170.442 240.168C170.57 239.96 170.754 239.792 170.994 239.664C171.234 239.536 171.509 239.472 171.818 239.472C172.186 239.472 172.519 239.565 172.818 239.752C173.117 239.939 173.351 240.205 173.522 240.552C173.698 240.899 173.786 241.301 173.786 241.76C173.786 242.219 173.698 242.624 173.522 242.976C173.351 243.323 173.117 243.592 172.818 243.784C172.519 243.971 172.186 244.064 171.818 244.064C171.503 244.064 171.229 244.003 170.994 243.88C170.759 243.752 170.575 243.584 170.442 243.376V244H169.074V238.08H170.442V240.168ZM172.394 241.76C172.394 241.419 172.298 241.152 172.106 240.96C171.919 240.763 171.687 240.664 171.41 240.664C171.138 240.664 170.906 240.763 170.714 240.96C170.527 241.157 170.434 241.427 170.434 241.768C170.434 242.109 170.527 242.379 170.714 242.576C170.906 242.773 171.138 242.872 171.41 242.872C171.682 242.872 171.914 242.773 172.106 242.576C172.298 242.373 172.394 242.101 172.394 241.76ZM176.536 244.064C176.098 244.064 175.704 243.971 175.352 243.784C175.005 243.597 174.73 243.331 174.528 242.984C174.33 242.637 174.232 242.232 174.232 241.768C174.232 241.309 174.333 240.907 174.536 240.56C174.738 240.208 175.016 239.939 175.368 239.752C175.72 239.565 176.114 239.472 176.552 239.472C176.989 239.472 177.384 239.565 177.736 239.752C178.088 239.939 178.365 240.208 178.568 240.56C178.77 240.907 178.872 241.309 178.872 241.768C178.872 242.227 178.768 242.632 178.56 242.984C178.357 243.331 178.077 243.597 177.72 243.784C177.368 243.971 176.973 244.064 176.536 244.064ZM176.536 242.88C176.797 242.88 177.018 242.784 177.2 242.592C177.386 242.4 177.48 242.125 177.48 241.768C177.48 241.411 177.389 241.136 177.208 240.944C177.032 240.752 176.813 240.656 176.552 240.656C176.285 240.656 176.064 240.752 175.888 240.944C175.712 241.131 175.624 241.405 175.624 241.768C175.624 242.125 175.709 242.4 175.88 242.592C176.056 242.784 176.274 242.88 176.536 242.88ZM181.63 244.064C181.192 244.064 180.798 243.971 180.446 243.784C180.099 243.597 179.824 243.331 179.622 242.984C179.424 242.637 179.326 242.232 179.326 241.768C179.326 241.309 179.427 240.907 179.63 240.56C179.832 240.208 180.11 239.939 180.462 239.752C180.814 239.565 181.208 239.472 181.646 239.472C182.083 239.472 182.478 239.565 182.83 239.752C183.182 239.939 183.459 240.208 183.662 240.56C183.864 240.907 183.966 241.309 183.966 241.768C183.966 242.227 183.862 242.632 183.654 242.984C183.451 243.331 183.171 243.597 182.814 243.784C182.462 243.971 182.067 244.064 181.63 244.064ZM181.63 242.88C181.891 242.88 182.112 242.784 182.294 242.592C182.48 242.4 182.574 242.125 182.574 241.768C182.574 241.411 182.483 241.136 182.302 240.944C182.126 240.752 181.907 240.656 181.646 240.656C181.379 240.656 181.158 240.752 180.982 240.944C180.806 241.131 180.718 241.405 180.718 241.768C180.718 242.125 180.803 242.4 180.974 242.592C181.15 242.784 181.368 242.88 181.63 242.88ZM187.419 244L186.059 242.128V244H184.691V238.08H186.059V241.352L187.411 239.536H189.099L187.243 241.776L189.115 244H187.419Z" fill="#748CFC"/>
<rect x="49" y="85" width="13.3684" height="12.8675" rx="2" fill="#5BB373"/>
<rect x="71" y="234" width="13.3685" height="12.8675" rx="2" fill="#1024D7"/>
<path d="M57.7976 91.9099C57.5731 91.8635 57.3956 91.9638 57.2383 92.0514C57.0773 92.1417 56.7711 92.3808 56.5955 92.3196C55.6969 91.9634 54.8517 91.2063 54.4858 90.3379C54.4213 90.1654 54.6686 89.8687 54.7617 89.7119C54.852 89.5601 54.9541 89.3875 54.9075 89.1698C54.8655 88.9742 54.3213 88.3077 54.1289 88.1255C54.002 88.0051 53.872 87.9389 53.7385 87.9282C53.2368 87.9075 52.6764 88.5519 52.5782 88.706C52.3319 89.0347 52.3333 89.4721 52.5823 90.0025C53.1823 91.4271 55.4517 93.5769 56.9373 94.1762C57.2114 94.2996 57.4621 94.3614 57.6873 94.3614C57.9076 94.3614 58.1039 94.3023 58.2725 94.1849C58.3997 94.1143 59.0966 93.5482 59.0784 93.0523C59.0673 92.9258 58.9987 92.7994 58.8753 92.6771C58.6873 92.4901 57.9994 91.9507 57.7976 91.9099Z" fill="white"/>
<rect x="308" y="157" width="13" height="12" rx="2" fill="url(#paint22_linear_278_4369)"/>
<path d="M313.806 163.863L316.346 165.595C316.636 165.743 316.845 165.666 316.918 165.347L317.952 160.848C318.058 160.457 317.79 160.279 317.513 160.395L311.44 162.556C311.026 162.71 311.028 162.923 311.365 163.019L312.923 163.468L316.531 161.367C316.701 161.271 316.857 161.322 316.729 161.428" fill="url(#paint23_linear_278_4369)"/>
<path fill-rule="evenodd" clip-rule="evenodd" d="M77.7649 235.187C76.8356 235.419 76.4048 236.161 76.403 237.533C76.4021 238.133 76.3638 238.194 75.9633 238.24C75.5541 238.286 75.5213 238.345 75.4764 239.113C75.4282 239.936 75.4286 239.937 75.911 239.937H76.3938L76.4378 242.33L76.4818 244.723H77.4391H78.3964L78.4405 242.33L78.4845 239.937H79.0999C79.7727 239.937 79.9056 239.737 79.9099 238.721C79.9121 238.221 79.8983 238.211 79.1942 238.211H78.4762V237.505V236.798H79.1942H79.9121V235.935V235.072L78.9947 235.09C78.4901 235.101 77.9368 235.144 77.7649 235.187Z" fill="white"/>
</g>
<defs>
<filter id="filter0_d_278_4369" x="36" y="78" width="305" height="131" filterUnits="userSpaceOnUse" color-interpolation-filters="sRGB">
<feFlood flood-opacity="0" result="BackgroundImageFix"/>
<feColorMatrix in="SourceAlpha" type="matrix" values="0 0 0 0 0 0 0 0 0 0 0 0 0 0 0 0 0 0 127 0" result="hardAlpha"/>
<feOffset dy="4"/>
<feGaussianBlur stdDeviation="2"/>
<feComposite in2="hardAlpha" operator="out"/>
<feColorMatrix type="matrix" values="0 0 0 0 0 0 0 0 0 0 0 0 0 0 0 0 0 0 0.23 0"/>
<feBlend mode="normal" in2="BackgroundImageFix" result="effect1_dropShadow_278_4369"/>
<feBlend mode="normal" in="SourceGraphic" in2="effect1_dropShadow_278_4369" result="shape"/>
</filter>
<filter id="filter1_d_278_4369" x="52" y="227" width="165" height="70" filterUnits="userSpaceOnUse" color-interpolation-filters="sRGB">
<feFlood flood-opacity="0" result="BackgroundImageFix"/>
<feColorMatrix in="SourceAlpha" type="matrix" values="0 0 0 0 0 0 0 0 0 0 0 0 0 0 0 0 0 0 127 0" result="hardAlpha"/>
<feOffset dy="4"/>
<feGaussianBlur stdDeviation="2"/>
<feComposite in2="hardAlpha" operator="out"/>
<feColorMatrix type="matrix" values="0 0 0 0 0 0 0 0 0 0 0 0 0 0 0 0 0 0 0.23 0"/>
<feBlend mode="normal" in2="BackgroundImageFix" result="effect1_dropShadow_278_4369"/>
<feBlend mode="normal" in="SourceGraphic" in2="effect1_dropShadow_278_4369" result="shape"/>
</filter>
<filter id="filter2_f_278_4369" x="48" y="99" width="116" height="8" filterUnits="userSpaceOnUse" color-interpolation-filters="sRGB">
<feFlood flood-opacity="0" result="BackgroundImageFix"/>
<feBlend mode="normal" in="SourceGraphic" in2="BackgroundImageFix" result="shape"/>
<feGaussianBlur stdDeviation="0.5" result="effect1_foregroundBlur_278_4369"/>
</filter>
<filter id="filter3_f_278_4369" x="48" y="108" width="116" height="8" filterUnits="userSpaceOnUse" color-interpolation-filters="sRGB">
<feFlood flood-opacity="0" result="BackgroundImageFix"/>
<feBlend mode="normal" in="SourceGraphic" in2="BackgroundImageFix" result="shape"/>
<feGaussianBlur stdDeviation="0.5" result="effect1_foregroundBlur_278_4369"/>
</filter>
<filter id="filter4_f_278_4369" x="214" y="171" width="108" height="8" filterUnits="userSpaceOnUse" color-interpolation-filters="sRGB">
<feFlood flood-opacity="0" result="BackgroundImageFix"/>
<feBlend mode="normal" in="SourceGraphic" in2="BackgroundImageFix" result="shape"/>
<feGaussianBlur stdDeviation="0.5" result="effect1_foregroundBlur_278_4369"/>
</filter>
<filter id="filter5_f_278_4369" x="214" y="179" width="108" height="8" filterUnits="userSpaceOnUse" color-interpolation-filters="sRGB">
<feFlood flood-opacity="0" result="BackgroundImageFix"/>
<feBlend mode="normal" in="SourceGraphic" in2="BackgroundImageFix" result="shape"/>
<feGaussianBlur stdDeviation="0.5" result="effect1_foregroundBlur_278_4369"/>
</filter>
<filter id="filter6_f_278_4369" x="70" y="254" width="123" height="8" filterUnits="userSpaceOnUse" color-interpolation-filters="sRGB">
<feFlood flood-opacity="0" result="BackgroundImageFix"/>
<feBlend mode="normal" in="SourceGraphic" in2="BackgroundImageFix" result="shape"/>
<feGaussianBlur stdDeviation="0.5" result="effect1_foregroundBlur_278_4369"/>
</filter>
<filter id="filter7_f_278_4369" x="70" y="263" width="123" height="8" filterUnits="userSpaceOnUse" color-interpolation-filters="sRGB">
<feFlood flood-opacity="0" result="BackgroundImageFix"/>
<feBlend mode="normal" in="SourceGraphic" in2="BackgroundImageFix" result="shape"/>
<feGaussianBlur stdDeviation="0.5" result="effect1_foregroundBlur_278_4369"/>
</filter>
<linearGradient id="paint0_linear_278_4369" x1="190.498" y1="0.00273991" x2="190.498" y2="349.755" gradientUnits="userSpaceOnUse">
<stop stop-color="#AE54F9"/>
<stop offset="1" stop-color="#0EEDFF"/>
</linearGradient>
<linearGradient id="paint1_linear_278_4369" x1="190.503" y1="22.5211" x2="190.503" y2="323.526" gradientUnits="userSpaceOnUse">
<stop stop-color="#AE54F9"/>
<stop offset="1" stop-color="#0EEDFF"/>
</linearGradient>
<linearGradient id="paint2_linear_278_4369" x1="178.339" y1="580.563" x2="190.4" y2="142.472" gradientUnits="userSpaceOnUse">
<stop offset="0.01"/>
<stop offset="1" stop-opacity="0"/>
</linearGradient>
<linearGradient id="paint3_linear_278_4369" x1="191.153" y1="38.491" x2="191.153" y2="313.867" gradientUnits="userSpaceOnUse">
<stop stop-color="#AE54F9"/>
<stop offset="1" stop-color="#0EEDFF"/>
</linearGradient>
<linearGradient id="paint4_linear_278_4369" x1="192.711" y1="485.913" x2="190.233" y2="-47.5148" gradientUnits="userSpaceOnUse">
<stop offset="0.02" stop-color="white" stop-opacity="0"/>
<stop offset="0.58" stop-color="white" stop-opacity="0.39"/>
<stop offset="0.68" stop-color="white" stop-opacity="0.68"/>
<stop offset="1" stop-color="white"/>
</linearGradient>
<linearGradient id="paint5_linear_278_4369" x1="193.267" y1="16.5879" x2="193.785" y2="41.3056" gradientUnits="userSpaceOnUse">
<stop stop-color="#68E1FD"/>
<stop offset="1" stop-color="white"/>
</linearGradient>
<linearGradient id="paint6_linear_278_4369" x1="106" y1="100" x2="106" y2="106" gradientUnits="userSpaceOnUse">
<stop stop-color="#AE54F9"/>
<stop offset="1" stop-color="#0EEDFF"/>
</linearGradient>
<linearGradient id="paint7_linear_278_4369" x1="106" y1="109" x2="106" y2="115" gradientUnits="userSpaceOnUse">
<stop stop-color="#AE54F9"/>
<stop offset="1" stop-color="#0EEDFF"/>
</linearGradient>
<linearGradient id="paint8_linear_278_4369" x1="268" y1="172" x2="268" y2="178" gradientUnits="userSpaceOnUse">
<stop stop-color="#AE54F9"/>
<stop offset="1" stop-color="#0EEDFF"/>
</linearGradient>
<linearGradient id="paint9_linear_278_4369" x1="268" y1="180" x2="268" y2="186" gradientUnits="userSpaceOnUse">
<stop stop-color="#AE54F9"/>
<stop offset="1" stop-color="#0EEDFF"/>
</linearGradient>
<linearGradient id="paint10_linear_278_4369" x1="131.5" y1="255" x2="131.5" y2="261" gradientUnits="userSpaceOnUse">
<stop stop-color="#AE54F9"/>
<stop offset="1" stop-color="#0EEDFF"/>
</linearGradient>
<linearGradient id="paint11_linear_278_4369" x1="131.5" y1="264" x2="131.5" y2="270" gradientUnits="userSpaceOnUse">
<stop stop-color="#AE54F9"/>
<stop offset="1" stop-color="#0EEDFF"/>
</linearGradient>
<linearGradient id="paint12_linear_278_4369" x1="117.232" y1="173.403" x2="120.764" y2="182.219" gradientUnits="userSpaceOnUse">
<stop stop-color="#AE54F9"/>
<stop offset="1" stop-color="#0EEDFF"/>
</linearGradient>
<linearGradient id="paint13_linear_278_4369" x1="132.34" y1="173.404" x2="135.871" y2="182.22" gradientUnits="userSpaceOnUse">
<stop stop-color="#AE54F9"/>
<stop offset="1" stop-color="#0EEDFF"/>
</linearGradient>
<linearGradient id="paint14_linear_278_4369" x1="147.446" y1="173.403" x2="150.978" y2="182.219" gradientUnits="userSpaceOnUse">
<stop stop-color="#AE54F9"/>
<stop offset="1" stop-color="#0EEDFF"/>
</linearGradient>
<linearGradient id="paint15_linear_278_4369" x1="239.994" y1="253.137" x2="239.994" y2="262.58" gradientUnits="userSpaceOnUse">
<stop stop-color="#AE54F9"/>
<stop offset="1" stop-color="#0EEDFF"/>
</linearGradient>
<linearGradient id="paint16_linear_278_4369" x1="255.097" y1="253.137" x2="255.097" y2="262.58" gradientUnits="userSpaceOnUse">
<stop stop-color="#AE54F9"/>
<stop offset="1" stop-color="#0EEDFF"/>
</linearGradient>
<linearGradient id="paint17_linear_278_4369" x1="270.2" y1="253.137" x2="270.2" y2="262.58" gradientUnits="userSpaceOnUse">
<stop stop-color="#AE54F9"/>
<stop offset="1" stop-color="#0EEDFF"/>
</linearGradient>
<linearGradient id="paint18_linear_278_4369" x1="219.969" y1="92.4181" x2="219.969" y2="101.861" gradientUnits="userSpaceOnUse">
<stop stop-color="#AE54F9"/>
<stop offset="1" stop-color="#0EEDFF"/>
</linearGradient>
<linearGradient id="paint19_linear_278_4369" x1="235.079" y1="92.4181" x2="235.079" y2="101.861" gradientUnits="userSpaceOnUse">
<stop stop-color="#AE54F9"/>
<stop offset="1" stop-color="#0EEDFF"/>
</linearGradient>
<linearGradient id="paint20_linear_278_4369" x1="250.182" y1="92.4181" x2="250.182" y2="101.861" gradientUnits="userSpaceOnUse">
<stop stop-color="#AE54F9"/>
<stop offset="1" stop-color="#0EEDFF"/>
</linearGradient>
<linearGradient id="paint21_linear_278_4369" x1="34.9033" y1="338.092" x2="354.048" y2="338.092" gradientUnits="userSpaceOnUse">
<stop stop-color="#183866"/>
<stop offset="1" stop-color="#1A7FC1"/>
</linearGradient>
<linearGradient id="paint22_linear_278_4369" x1="316.671" y1="159.004" x2="313.837" y2="166.165" gradientUnits="userSpaceOnUse">
<stop stop-color="#37AEE2"/>
<stop offset="1" stop-color="#1E96C8"/>
</linearGradient>
<linearGradient id="paint23_linear_278_4369" x1="315.645" y1="162.679" x2="316.503" y2="164.799" gradientUnits="userSpaceOnUse">
<stop stop-color="#EFF7FC"/>
<stop offset="1" stop-color="white"/>
</linearGradient>
<clipPath id="clip0_278_4369">
<rect width="381" height="356" fill="white"/>
</clipPath>
</defs>
</svg>
